M48
INCH
T01C.012
T02C.02
T03C.031496
T04C.035433
T05C.03937
T06C.047244
T07C.102362
;LEADER: 12 
;HEADER: 
;CODE  : ASCII 
;FILE  : AWheel-1-4.drl for board D:/WorkPrj/LUGGAGE/R2/AWheel/BRD/#Taaaadt13292.tmp ... layers TOP and BOTTOM
;T01 Holesize 1. = 12.000000 Tolerance = +0.000000/-0.000000 PLATED MILS Quantity = 357
;T02 Holesize 2. = 20.000000 Tolerance = +0.000000/-0.000000 PLATED MILS Quantity = 111
;T03 Holesize 3. = 31.496000 Tolerance = +0.000000/-0.000000 PLATED MILS Quantity = 16
;T04 Holesize 4. = 35.433000 Tolerance = +0.000000/-0.000000 PLATED MILS Quantity = 2
;T05 Holesize 5. = 39.370000 Tolerance = +0.000000/-0.000000 PLATED MILS Quantity = 6
;T06 Holesize 6. = 47.244000 Tolerance = +0.000000/-0.000000 PLATED MILS Quantity = 24
;T07 Holesize 7. = 102.362000 Tolerance = +0.000000/-0.000000 PLATED MILS Quantity = 7
%
G90
T01
X-0291000Y0089000
X-0273500Y0087000
X-0273000Y0078000
X-0291000Y0073500
X-0291000Y0058500
X-0291000Y0043000
X-0291000Y0028000
X-0273000Y0012500
X-0291000Y0012500
X-0273000Y0000500
X-0291000Y-0003000
X-0291000Y-0018000
X-0291000Y-0033500
X-0291000Y-0048500
X-0291000Y-0064000
X-0291000Y-0094500
X-0276000Y-0109500
X-0291000Y-0109500
X-0261000Y-0109500
X-0261000Y-0094500
X-0261000Y-0079000
X-0257000Y0001500
X-0257500Y0012500
X-0255500Y0033000
X-0247500Y0033000
X-0256846Y0039346
X-0256000Y0042500
X-0256846Y0048846
X-0260154Y0060000
X-0256846Y0060000
X-0241500Y0060500
X-0246500Y0093000
X-0246000Y0100450
X-0241000Y0104000
X-0260000Y0115000
X-0252500Y0115000
X-0241000Y0115000
X-0218000Y0115000
X-0229500Y0115000
X-0218500Y0103000
X-0228740Y0101240
X-0214500Y0093000
X-0224000Y0047000
X-0212500Y0046000
X-0224000Y0042000
X-0217193Y0017193
X-0237000Y0012500
X-0216000Y-0004000
X-0228000Y-0056500
X-0187500Y-0056000
X-0194500Y0013000
X-0206000Y0033000
X-0182500Y0041500
X-0182500Y0046500
X-0202500Y0057500
X-0207500Y0074500
X-0207500Y0077500
X-0180500Y0079250
X-0207000Y0082500
X-0208584Y0084929
X-0203250Y0093250
X-0205000Y0101450
X-0187000Y0102000
X-0196500Y0103244
X-0206500Y0115000
R02X0011500
X-0161000Y0115000
X-0172500Y0115000
X-0158000Y0103500
X-0165000Y0100500
X-0172250Y0098750
X-0162250Y0093250
X-0171750Y0093250
X-0164750Y0084750
X-0155000Y0081500
X-0164000Y0073000
X-0176500Y0073000
X-0169500Y0060500
X-0158000Y0058000
X-0171000Y0046000
X-0164500Y0033000
X-0178500Y0013000
X-0175000Y-0004500
X-0147000Y-0056000
X-0135500Y-0008500
X-0149000Y0013000
X-0141500Y0014000
X-0141500Y0041500
X-0126750Y0041750
X-0141500Y0046500
X-0128000Y0046950
X-0133750Y0057750
X-0135500Y0061000
X-0148000Y0071950
X-0130437Y0077063
X-0143000Y0080000
X-0148500Y0085000
X-0133000Y0085000
X-0130750Y0093250
X-0130750Y0098750
X-0123750Y0098750
X-0146500Y0103387
X-0149500Y0115000
X-0141500Y0115000
X-0134000Y0115000
X-0126500Y0115000
X-0122500Y0115000
X-0113500Y0115000
X-0119000Y0115000
X-0103000Y0102500
X-0095500Y0100500
X-0099200Y0086700
X-0112000Y0085000
X-0112500Y0075500
X-0111500Y0071500
X-0106500Y0062000
X-0108500Y0057750
X-0103500Y0048000
X-0090500Y0047000
X-0117750Y0034250
X-0111750Y0029250
X-0118250Y0028750
X-0103500Y0023500
X-0110000Y0012000
X-0114500Y0012000
X-0116500Y-0016000
X-0116500Y-0019500
X-0095154Y-0108346
X-0088500Y-0105500
X-0069000Y0008000
X-0089500Y0025000
R04X0003000
X-0066500Y0028700
X-0062500Y0045000
X-0081000Y0048500
X-0086500Y0050500
X-0067500Y0061000
X-0076000Y0062000
X-0090000Y0071250
X-0076000Y0077000
X-0082500Y0081000
X-0070902Y0094598
X-0060500Y0107000
X-0077500Y0115500
X-0066000Y0115500
X-0059500Y0115500
X-0049000Y0115300
X-0036500Y0114500
X-0032250Y0106750
X-0048500Y0105500
X-0039000Y0105000
X-0032250Y0101250
X-0039000Y0096000
X-0050000Y0092000
X-0047000Y0087500
X-0041000Y0085564
X-0053000Y0082000
X-0048500Y0079000
X-0050000Y0074000
X-0052000Y0068500
X-0053500Y0061000
X-0038000Y0056000
X-0048250Y0051750
X-0044500Y0048000
X-0035500Y0043500
X-0049000Y0024500
X-0056500Y0009000
X-0011000Y-0094000
X-0002500Y0035000
X-0000750Y0037750
X-0027000Y0046500
X-0014500Y0051500
X-0018690Y0052000
X-0009000Y0052000
X-0014047Y0060547
X-0018783Y0061000
X-0009500Y0061000
X-0021000Y0063000
X-0029000Y0065000
X-0023000Y0065500
X-0009250Y0072750
X-0027593Y0074593
X-0009000Y0077000
X-0013000Y0082000
X-0006500Y0082500
X-0020000Y0083500
X-0001500Y0091000
X-0024500Y0096000
X-0020000Y0096000
X-0010500Y0101500
X-0015000Y0102000
X-0021000Y0114500
X-0006000Y0114500
X0024500Y0114500
X0009500Y0114500
X0001500Y0098500
X0002500Y0088500
X0007500Y0088000
X0010750Y0078250
X0012500Y0075000
X0009000Y0059500
X0009000Y0055000
X0023000Y0035500
X0009000Y0034000
X0017000Y0033500
X0013000Y0033000
X0011000Y0030500
X0008200Y0030300
X0001500Y-0000500
X0029000Y-0003000
X0026000Y-0003000
X0032000Y-0003000
X0035000Y-0003000
X0046500Y0015000
X0054000Y0015000
X0034500Y0017500
X0038000Y0018500
X0038000Y0021500
X0046500Y0022000
X0054000Y0022000
X0046500Y0029500
X0047750Y0044750
X0049000Y0053500
X0055000Y0053500
X0033500Y0055500
X0045500Y0057000
X0039500Y0058000
X0050500Y0058000
X0034000Y0073000
X0046000Y0075000
X0034000Y0087000
X0055000Y0114500
X0086000Y0114500
X0070500Y0114500
X0088000Y0095500
X0080500Y0090000
X0083000Y0087500
X0060000Y0076000
X0078500Y0074500
X0082000Y0074000
X0086000Y0073000
X0082250Y0064750
X0078500Y0055000
X0089846Y0054653
X0084846Y0054653
X0084500Y0045000
X0076750Y0044750
X0077000Y0037000
X0077000Y0029500
X0065000Y0026000
X0060500Y0026000
X0077000Y0022000
X0084500Y0015000
X0086000Y-0103500
X0077250Y-0113750
X0114500Y-0019500
X0114500Y-0016500
X0103000Y0018500
X0118500Y0018500
X0115500Y0023500
X0111500Y0024000
X0103000Y0026500
X0092500Y0029500
X0119500Y0032000
X0092500Y0037000
X0102000Y0037000
X0092500Y0045000
X0102000Y0045000
X0118500Y0050000
X0094500Y0054653
X0098846Y0054653
X0103750Y0070750
X0104250Y0076250
X0112750Y0076250
X0105000Y0086500
X0120000Y0025000
X0126500Y0025000
X0121500Y0035000
X0128000Y0066500
X0140000Y0067000
X0146500Y0113500
X0169500Y0114000
X0154500Y0114000
X0168500Y0103000
X0177500Y0101500
X0177500Y0087000
X0169328Y0078500
X0152500Y0073500
X0165500Y0068000
X0159815Y0066185
X0195000Y0044000
X0202000Y0065500
X0203000Y0071000
X0200500Y0073000
X0202500Y0078000
X0196500Y0078500
X0201162Y0080573
X0200500Y0088000
X0208500Y0088000
X0188740Y0089760
X0192500Y0101500
X0200500Y0101500
X0208500Y0102000
X0185000Y0114000
X0200000Y0114000
X0230500Y0114000
X0215500Y0114000
X0225000Y0103500
X0239500Y0103000
X0231500Y0103000
X0217760Y0089760
X0239500Y0088000
X0231500Y0087500
X0254000Y-0005000
X0261500Y-0005000
X0254000Y0002500
X0261500Y0002500
X0254000Y0010000
X0261500Y0010000
X0269500Y0010000
X0261500Y0018500
X0252693Y0031807
X0261154Y0034154
X0257846Y0034954
X0255500Y0046500
X0255500Y0052000
X0255000Y0056500
X0260654Y0059847
X0240000Y0080000
X0256500Y0085500
X0249760Y0089760
X0266750Y0091750
X0262500Y0101500
X0246000Y0114000
X0261000Y0114000
X0291500Y0114000
X0291500Y0086000
X0291500Y0071000
X0291500Y0055500
X0291500Y0040500
X0291500Y0025000
X0291500Y0010000
X0284500Y0010000
X0277000Y0010000
X0291500Y-0005500
X0291500Y-0020500
X0291500Y-0036000
X0291500Y-0051000
X0291500Y-0066500
X0285000Y-0067000
X0285000Y-0097500
X0285000Y-0113000
X0270000Y-0113000
T02
X-0264500Y-0053000
R02X0004000
X-0252000Y-0053000
X-0248000Y-0053000
X-0264500Y-0048500
R02X0004000
X-0252000Y-0048500
X-0248000Y-0048500
X-0249000Y0087000
X-0245500Y0087000
X-0213000Y0052000
X-0235000Y0047000
X-0212500Y0032500
X-0210500Y-0023000
X-0210500Y-0027000
R03Y-0004000
X-0206000Y-0039000
R04Y0004000
X-0193500Y0046500
X-0171500Y0051500
X-0152000Y0046500
X-0171000Y0033000
X-0165500Y-0022500
X-0169500Y-0022500
X-0169500Y-0026000
X-0165500Y-0026500
X-0169500Y-0030000
X-0165500Y-0030500
X-0165500Y-0034000
X-0169500Y-0034000
X-0165500Y-0038000
X-0169500Y-0038000
X-0126500Y0036000
X-0136870Y0054130
X-0094500Y0042500
X-0098000Y0039500
X-0094500Y0038000
X-0088000Y-0017500
X0080300Y-0006500
X0147000Y-0058000
X0147500Y-0008000
X0144000Y0015500
X0128000Y0035000
X0142000Y0049500
X0136500Y0062000
X0157000Y0062000
X0178000Y0061500
X0161500Y0054500
X0151500Y0049500
X0164500Y0049000
X0151500Y0044500
X0172500Y0035500
X0164500Y0035500
X0159000Y0015500
X0165500Y-0022500
X0161500Y-0022500
X0165500Y-0026500
X0161500Y-0026500
X0165500Y-0030500
X0161500Y-0030500
X0165500Y-0034000
X0161500Y-0034000
X0165500Y-0038000
X0161500Y-0038000
X0195500Y-0057500
X0208500Y-0036000
X0208500Y-0032000
R03Y0003500
X0195000Y-0004500
X0202500Y0015500
X0187000Y0016000
X0209000Y0034000
X0207500Y0048000
X0185000Y0049000
X0195000Y0049000
X0206000Y0054000
X0199000Y0061500
X0221000Y0062500
X0230000Y0052500
X0237000Y0049500
X0226500Y0049500
X0237500Y0044500
X0214000Y0035500
X0233000Y0016500
X0212500Y-0021500
R03Y-0003500
X0212500Y-0036000
X0226500Y-0043000
X0240500Y-0057500
X0244500Y-0043000
X0251000Y-0043000
R02X0005500
X0268000Y-0043000
X0262500Y-0037500
X0267500Y-0037000
X0253500Y0039250
X0250000Y0048500
X0247500Y0054500
X0242500Y0062500
T03
X-0251500Y-0062158
X-0251500Y-0081842
X-0210000Y-0081842
X-0210000Y-0062158
X-0169000Y-0062158
X-0169000Y-0081842
X-0109500Y-0100000
X-0109500Y-0110000
X0101000Y-0110000
X0101000Y-0100000
X0165500Y-0081342
X0165500Y-0061658
X0212000Y-0062658
X0212000Y-0082342
X0257500Y-0082842
X0257500Y-0063158
T04
X0058500Y-0040342
X0058500Y-0020658
T05
X-0275591Y-0013622
R02Y-0010000
X0275591Y-0033622
R02Y0010000
T06
X-0275591Y0066929
R04Y-0009843
X-0054406Y-0108500
X-0042595Y-0108500
X0007394Y-0103500
R02X0009842
X0036921Y-0103500
R02X0009843
X0103394Y0104000
R02X0009842
X0132921Y0104000
R02X0009843
X0275591Y0066929
R04Y-0009843
T07
X-0279528Y0102362
X-0279528Y-0082677
X-0102362Y-0078740
X0038500Y0102500
X0102362Y-0078740
X0279528Y-0082677
X0279528Y0102362
M30
