G04 ================== begin FILE IDENTIFICATION RECORD ==================*
G04 Layout Name:  D:/WorkPrj/LUGGAGE/R2/AWheel/BRD/AWheel.brd*
G04 Film Name:    BOTTOM*
G04 File Format:  Gerber RS274X*
G04 File Origin:  Cadence Allegro 16.6-2015-S088*
G04 Origin Date:  Fri Apr 27 16:37:20 2018*
G04 *
G04 Layer:  VIA CLASS/BOTTOM*
G04 Layer:  PIN/BOTTOM*
G04 Layer:  ETCH/BOTTOM*
G04 Layer:  BOARD GEOMETRY/OUTLINE*
G04 *
G04 Offset:    (0.000 0.000)*
G04 Mirror:    No*
G04 Mode:      Positive*
G04 Rotation:  0*
G04 FullContactRelief:  No*
G04 UndefLineWidth:     5.000*
G04 ================== end FILE IDENTIFICATION RECORD ====================*
%FSLAX25Y25*MOIN*%
%IR0*IPPOS*OFA0.00000B0.00000*MIA0B0*SFA1.00000B1.00000*%
%ADD11C,.23622*%
%ADD15C,.03*%
%ADD10C,.024*%
%ADD14C,.059055*%
%ADD13C,.086614*%
%ADD12C,.07874*%
%ADD18C,.070866*%
%ADD16C,.062992*%
%ADD17C,.094488*%
%ADD19C,.008*%
%ADD20C,.01*%
%ADD21C,.02*%
%ADD22C,.012*%
%ADD23C,.04*%
%ADD24C,.005*%
%ADD25C,.114022*%
%ADD30C,.040004*%
%ADD28C,.060004*%
%ADD27C,.034004*%
%ADD26C,.054004*%
%ADD29C,.092996*%
G75*
%LPD*%
G75*
G36*
G01X-294500Y-117500D02*
Y117500D01*
X294500D01*
Y-117500D01*
X-294500D01*
G37*
%LPC*%
G75*
G36*
G01X-184254Y95700D02*
X-198254D01*
X-201977Y91977D01*
G02X-204523Y94523I-1273J1273D01*
G01X-199746Y99300D01*
X-185746D01*
X-181246Y103800D01*
X-170254D01*
X-160977Y94523D01*
G02X-163523Y91977I-1273J-1273D01*
G01X-171746Y100200D01*
X-179754D01*
X-184254Y95700D01*
G37*
G36*
G01X251258Y76239D02*
X261100Y86080D01*
Y100536D01*
G02X263900I1400J964D01*
G01Y84920D01*
X252418Y73438D01*
X202918D01*
X202858Y73378D01*
G03X203114Y72696I283J-283D01*
G02X201301Y70950I-114J-1696D01*
G03X200824Y71331I-400J-12D01*
G02X200136Y74661I-324J1669D01*
G01X200193Y74673D01*
X201758Y76239D01*
X251258D01*
G37*
G36*
G01X229891Y49502D02*
G03X229480Y49149I-14J-400D01*
G02X226609Y52498I-2980J351D01*
G03X227020Y52851I14J400D01*
G02X229891Y49502I2980J-351D01*
G37*
G36*
G01X239232Y47495D02*
G03X239291Y46907I298J-267D01*
G02X235268Y46505I-1791J-2407D01*
G03X235209Y47093I-298J267D01*
G02X239232Y47495I1791J2407D01*
G37*
G36*
G01X153534Y47294D02*
G03Y46706I271J-294D01*
G02X149466I-2033J-2206D01*
G03Y47294I-271J294D01*
G02X153534I2034J2206D01*
G37*
G36*
G01X196829Y46622D02*
G03X196806Y46008I244J-317D01*
G02X193194I-1806J-2008D01*
G03X193171Y46622I-268J297D01*
G02X196829I1829J2378D01*
G37*
G36*
G01X-222403Y44823D02*
G03Y44177I237J-323D01*
G02X-225597I-1597J-2177D01*
G03Y44823I-237J323D01*
G02X-222403I1597J2177D01*
G37*
G36*
G01X-139903Y44323D02*
G03Y43677I237J-323D01*
G02X-143097I-1597J-2177D01*
G03Y44323I-237J323D01*
G02X-139903I1597J2177D01*
G37*
G36*
G01X-180903D02*
G03Y43677I237J-323D01*
G02X-184097I-1597J-2177D01*
G03Y44323I-237J323D01*
G02X-180903I1597J2177D01*
G37*
G36*
G01X27786Y-4190D02*
G03X27214I-286J-280D01*
G02Y-1810I-1214J1190D01*
G03X27786I286J280D01*
G02X30214I1214J-1190D01*
G03X30786I286J280D01*
G02X33214I1214J-1190D01*
G03X33786I286J280D01*
G02Y-4190I1214J-1190D01*
G03X33214I-286J-280D01*
G02X30786I-1214J1190D01*
G03X30214I-286J-280D01*
G02X27786I-1214J1190D01*
G37*
G36*
G01X205500Y-40621D02*
X203621Y-42500D01*
X158879D01*
X157500Y-41121D01*
Y-8379D01*
X158879Y-7000D01*
X192326D01*
G03X192640Y-6353I0J400D01*
G02X197360I2360J1853D01*
G03X197674Y-7000I315J-247D01*
G01X279621D01*
X281000Y-8379D01*
Y-13075D01*
X281001Y-13085D01*
G02Y-14159I-5411J-537D01*
G01X281000Y-14169D01*
Y-18121D01*
X280464Y-18657D01*
X281043Y-19236D01*
Y-28503D01*
G03X280805Y-29183I44J-398D01*
G01X281000Y-29379D01*
Y-33075D01*
X281001Y-33085D01*
G02Y-34159I-5411J-537D01*
G01X281000Y-34169D01*
Y-45621D01*
X279121Y-47500D01*
X223879D01*
X222500Y-46121D01*
Y-40230D01*
X206229D01*
X206183Y-40185D01*
G03X205500Y-40468I-283J-283D01*
G01Y-40621D01*
G37*
G36*
G01X-164879Y-6000D02*
X-162500Y-8379D01*
Y-45121D01*
X-163879Y-46500D01*
X-201621D01*
X-202622Y-45500D01*
X-203378D01*
X-203879Y-46000D01*
X-244500D01*
Y-55621D01*
X-245879Y-57000D01*
X-247492D01*
G03X-247755Y-57702I0J-400D01*
G02X-255245I-3745J-4298D01*
G03X-255508Y-57000I-263J302D01*
G01X-279621D01*
X-281000Y-55621D01*
Y-34169D01*
X-281001Y-34159D01*
G02Y-33085I5411J537D01*
G01X-281000Y-33075D01*
Y-29379D01*
X-280622Y-29000D01*
X-281500Y-28121D01*
Y-19879D01*
X-280622Y-19000D01*
X-281500Y-18121D01*
Y-7379D01*
X-280121Y-6000D01*
X-218655D01*
G03X-218313Y-5393I0J400D01*
G02X-213687I2313J1393D01*
G03X-213344Y-6000I343J-206D01*
G01X-177899D01*
G03X-177525Y-5458I0J400D01*
G02X-172475I2525J958D01*
G03X-172101Y-6000I374J-142D01*
G01X-164879D01*
G37*
G36*
G01X12476Y-106870D02*
G03X12151Y-106871I-162J-118D01*
G02X5080Y-108852I-4757J3372D01*
G02X4543Y-98413I2006J5336D01*
G02X11999Y-99924I2850J-5087D01*
G03X12631I316J245D01*
G02X21842I4605J-3576D01*
G03X22473I316J245D01*
G02X31684Y-99924I4605J-3576D01*
G03X32316I316J245D01*
G02X41840Y-100369I4605J-3576D01*
G02X41157Y-107508I-4754J-3147D01*
G02X32316Y-107076I-4235J4008D01*
G03X31684I-316J-245D01*
G02X22473Y-107076I-4605J3576D01*
G03X21842I-316J-245D01*
G02X12530Y-106943I-4605J3576D01*
G02X12476Y-106870I4556J3426D01*
G37*
G36*
G01X-48143Y-111320D02*
G03X-48857I-357J-181D01*
G02Y-105680I-5549J2821D01*
G03X-48143I357J181D01*
G02Y-111320I5549J-2820D01*
G37*
G36*
G01X36150Y17089D02*
G02X35684Y18720I-1650J411D01*
G03X36350Y18911I278J287D01*
G02X36810Y19714I1650J-411D01*
G03Y20286I-280J286D01*
G02X39190I1190J1214D01*
G03Y19714I280J-286D01*
G02X36816Y17280I-1190J-1214D01*
G03X36150Y17089I-278J-287D01*
G37*
G36*
G01X-265793Y22000D02*
X-280207D01*
X-281000Y22793D01*
Y31707D01*
X-280207Y32500D01*
X-278255D01*
G03X-278051Y33244I0J400D01*
G02X-277228Y41946I2461J4157D01*
G03Y42699I-136J376D01*
G02Y51789I1637J4545D01*
G03Y52542I-136J376D01*
G02X-273953I1637J4545D01*
G03Y51789I136J-376D01*
G02Y42699I-1637J-4545D01*
G03Y41946I136J-376D01*
G02X-273130Y33244I-1637J-4545D01*
G03X-272926Y32500I204J-344D01*
G01X-270207D01*
X-270000Y32707D01*
Y87707D01*
X-268207Y89500D01*
X-243793D01*
X-243000Y88707D01*
Y84793D01*
X-243793Y84000D01*
X-264793D01*
X-265000Y83793D01*
Y22793D01*
X-265793Y22000D01*
G37*
G36*
G01X277228Y32104D02*
G02X273953I-1637J-4545D01*
G03Y32857I-136J376D01*
G02Y41946I1637J4545D01*
G03Y42699I-136J376D01*
G02Y51789I1637J4545D01*
G03Y52542I-136J376D01*
G02X277228I1637J4545D01*
G03Y51789I136J-376D01*
G02Y42699I-1637J-4545D01*
G03Y41946I136J-376D01*
G02Y32857I-1637J-4545D01*
G03Y32104I136J-376D01*
G37*
G36*
G01X80713Y75111D02*
G02X80454Y73294I1287J-1111D01*
G03X79787Y73389I-364J-166D01*
G02X80047Y75206I-1287J1111D01*
G03X80713Y75111I364J166D01*
G37*
G36*
G01X82637Y89161D02*
G02X81339Y87863I363J-1661D01*
G03X80863Y88339I-391J85D01*
G02X82161Y89637I-363J1661D01*
G03X82637Y89161I391J-85D01*
G37*
G36*
G01X121160Y7200D02*
X30340D01*
X27340Y10200D01*
X-54160D01*
X-56660Y12700D01*
X-71160D01*
X-79480Y21020D01*
G02X-80223Y22346I1980J1980D01*
G01X-80260Y22500D01*
X-88239D01*
G02X-89500Y22200I-1261J2500D01*
G01X-89840D01*
X-95840Y16200D01*
X-128160D01*
X-136160Y24200D01*
X-208160D01*
X-213718Y29758D01*
X-213751Y29773D01*
G02X-209773Y33751I1251J2727D01*
G01X-209758Y33718D01*
X-209330Y33290D01*
G03X-208654Y33499I283J283D01*
G02X-205870Y30303I2654J-499D01*
G01X-205947Y30299D01*
X-206143Y30103D01*
X-205840Y29800D01*
X-173800D01*
Y31922D01*
X-173813Y31956D01*
G02X-168187I2813J1044D01*
G01X-168200Y31922D01*
Y29800D01*
X-136660D01*
X-128480Y37980D01*
G02X-124925Y38315I1980J-1980D01*
G03X-124300Y38646I225J331D01*
G01Y62754D01*
X-127246Y65700D01*
X-152746D01*
X-167746Y80700D01*
X-207000D01*
G02X-208587Y81651I0J1800D01*
G03X-209223Y81745I-353J-189D01*
G01X-209768Y81200D01*
X-222746D01*
X-232746Y91200D01*
X-246500D01*
G02Y94800I0J1800D01*
G01X-231254D01*
X-221254Y84800D01*
X-211259D01*
X-209857Y86202D01*
G02X-206794Y84742I1273J-1273D01*
G03X-206396Y84300I398J-42D01*
G01X-166254D01*
X-151254Y69300D01*
X-125754D01*
X-121483Y65029D01*
G03X-120800Y65312I283J283D01*
G01Y78700D01*
X-141904D01*
G02Y81300I-1095J1300D01*
G01X-120800D01*
Y87246D01*
X-104273Y103773D01*
G02X-101727Y101227I1273J-1273D01*
G01X-110808Y92146D01*
X-102462Y83800D01*
X-91539D01*
X-89269Y86070D01*
X-75231D01*
X-72461Y83300D01*
X-54096D01*
G02X-51406Y82592I1096J-1300D01*
G03X-50749Y82449I375J139D01*
G01X-50497Y82700D01*
X-28497D01*
X-23497Y87700D01*
X-18997D01*
X-17780Y88917D01*
G03X-18063Y89600I-283J283D01*
G01X-43080D01*
X-59281Y105801D01*
X-59421Y105686D01*
G02X-61814Y108079I-1079J1314D01*
G01X-61699Y108219D01*
X-62080Y108600D01*
X-105920D01*
X-126420Y88100D01*
X-211580D01*
X-214807Y91327D01*
X-214864Y91339D01*
G02X-212839Y93364I364J1661D01*
G01X-212827Y93307D01*
X-210420Y90900D01*
X-173150D01*
Y92286D01*
G02X-170350I1400J964D01*
G01Y90900D01*
X-132150D01*
Y92286D01*
G02X-129350I1400J964D01*
G01Y90900D01*
X-127580D01*
X-107080Y111400D01*
X-60920D01*
X-41920Y92400D01*
X-33650D01*
Y100286D01*
G02X-30850I1400J964D01*
G01Y92400D01*
X-18580D01*
X-14080Y96900D01*
X-224D01*
G03X105Y97529I0J400D01*
G02X2895I1395J971D01*
G03X3224Y96900I328J-228D01*
G01X18580D01*
X30580Y84900D01*
X86420D01*
X94920Y93400D01*
X151206D01*
Y99376D01*
G02X148061Y102363I1400J4624D01*
G03X147309I-376J-136D01*
G02X138219I-4545J1637D01*
G03X137466I-376J-136D01*
G02X128376Y102363I-4545J1637D01*
G03X127624I-376J-136D01*
G02X118534Y102363I-4545J1637D01*
G03X117781I-376J-136D01*
G02Y105637I-4545J1637D01*
G03X118534I376J136D01*
G02X127624Y105637I4545J-1637D01*
G03X128376I376J136D01*
G02X137466Y105637I4545J-1637D01*
G03X138219I376J136D01*
G02X147309I4545J-1637D01*
G03X148061I376J136D01*
G02X154006Y99376I4545J-1637D01*
G01Y93400D01*
X175920D01*
X179100Y96580D01*
Y97920D01*
X177193Y99827D01*
X177136Y99839D01*
G02X179161Y101864I364J1661D01*
G01X179173Y101807D01*
X181900Y99080D01*
Y97400D01*
X207100D01*
Y101036D01*
G02X209900I1400J964D01*
G01Y97400D01*
X231920D01*
X237827Y103307D01*
X237839Y103364D01*
G02X239864Y101339I1661J-364D01*
G01X239807Y101327D01*
X233080Y94600D01*
X181080D01*
X177080Y90600D01*
X170728D01*
Y79464D01*
G02X167928I-1400J-964D01*
G01Y90600D01*
X96080D01*
X88166Y82686D01*
G03X88449Y82003I283J-283D01*
G01X92806D01*
X98503Y87700D01*
X103796D01*
G02Y85300I1204J-1200D01*
G01X99497D01*
X93800Y79603D01*
X16702D01*
G03X16419Y78920I0J-400D01*
G01X29539Y65800D01*
X67754D01*
X72383Y70429D01*
X100883D01*
X102477Y72023D01*
G02X104995Y72050I1273J-1273D01*
G01X132211D01*
X139961Y79800D01*
X159539D01*
X164539Y74800D01*
X190961D01*
X194804Y78643D01*
X194813Y78711D01*
G02X196711Y76813I1687J-211D01*
G01X196643Y76804D01*
X192039Y72200D01*
X163461D01*
X158461Y77200D01*
X141039D01*
X133289Y69450D01*
X104996D01*
X102374Y66828D01*
X73874D01*
X69246Y62200D01*
X31300D01*
Y59754D01*
X-754Y27700D01*
X-44746D01*
X-48746Y31700D01*
X-73688D01*
G03X-73971Y31017I0J-400D01*
G01X-68754Y25800D01*
X-54254D01*
X-50254Y21800D01*
X-2846D01*
X6927Y31573D01*
G02X9369Y31669I1273J-1273D01*
G03X9649Y31689I130J152D01*
G02X11000Y32300I1351J-1189D01*
G01X11367D01*
Y32527D01*
X11360Y32553D01*
G02X14572Y32352I1640J447D01*
G03X14942Y31800I370J-152D01*
G01X15350D01*
G03X15664Y32448I0J400D01*
G02X18336I1336J1052D01*
G03X18650Y31800I314J-248D01*
G01X27254D01*
X32754Y37300D01*
X45950D01*
Y44750D01*
G02X49550I1800J0D01*
G01Y37300D01*
X56254D01*
X69254Y50300D01*
X76700D01*
Y55000D01*
G02X80300I1800J0D01*
G01Y50300D01*
X101754D01*
X110754Y59300D01*
X154496D01*
G03X154790Y59971I0J400D01*
G02X157815Y64887I2210J2029D01*
G03X158284Y65446I109J385D01*
G02X159708Y64488I1531J739D01*
G03X159367Y63843I-25J-399D01*
G02X159970Y62422I-2367J-1843D01*
G03X160649Y62195I396J56D01*
G01X160754Y62300D01*
X164754D01*
X170754Y68300D01*
X198746D01*
X199746Y67300D01*
X202000D01*
G02Y63700I0J-1800D01*
G01X201885D01*
G03X201545Y63088I0J-400D01*
G02X197307Y63977I-2545J-1588D01*
G03X197364Y64590I-226J330D01*
G01X197254Y64700D01*
X179929D01*
G03X179702Y63970I0J-400D01*
G02X176298I-1702J-2470D01*
G03X176071Y64700I-227J329D01*
G01X172246D01*
X166246Y58700D01*
X162246D01*
X159246Y55700D01*
X112246D01*
X103246Y46700D01*
X70746D01*
X57746Y33700D01*
X34246D01*
X28746Y28200D01*
X11011D01*
X10414Y28797D01*
X10373Y28813D01*
G02X9831Y29131I627J1688D01*
G03X9551Y29111I-130J-152D01*
G02X9473Y29027I-1351J1190D01*
G01X-1354Y18200D01*
X-51746D01*
X-55746Y22200D01*
X-70246D01*
X-74115Y26069D01*
G03X-74786Y25688I-283J-283D01*
G02X-74700Y25000I-2714J-688D01*
G01Y24160D01*
X-68840Y18300D01*
X-54340D01*
X-51840Y15800D01*
X29660D01*
X32660Y12800D01*
X118840D01*
X135840Y29800D01*
X161700D01*
Y34423D01*
G02X167300I2800J1077D01*
G01Y29800D01*
X206200D01*
Y32923D01*
G02X210653Y36504I2800J1077D01*
G03X211242Y36680I220J334D01*
G02X212155Y33134I2758J-1180D01*
G03X211843Y33040I-123J-158D01*
G02X211800Y32923I-2843J959D01*
G01Y29800D01*
X232840D01*
X245340Y42300D01*
X254410D01*
X254718Y41992D01*
X254751Y41977D01*
G02X251920Y36700I-1251J-2727D01*
G01X247660D01*
X235160Y24200D01*
X138160D01*
X121160Y7200D01*
G37*
G54D25*
X-251414Y-82016D03*
X-209914D03*
Y-62016D03*
X-168914Y-82016D03*
Y-62016D03*
X58586Y-40016D03*
Y-21016D03*
X165586Y-81016D03*
Y-61516D03*
X212086Y-82516D03*
Y-62516D03*
X257586Y-83016D03*
Y-63016D03*
G54D30*
X80300Y-6500D03*
X128000Y35000D03*
X136500Y62000D03*
G54D28*
X-235000Y47000D03*
X-193500Y46500D03*
X-152000D03*
X-88000Y-17500D03*
X147000Y-58000D03*
X147500Y-8000D03*
X144000Y15500D03*
X159000D03*
X142000Y49500D03*
X187000Y16000D03*
X172500Y35500D03*
X185000Y49000D03*
X195500Y-57500D03*
X202500Y15500D03*
X240500Y-57500D03*
X233000Y16500D03*
X242500Y62500D03*
X221000D03*
G54D27*
X-260153Y60000D03*
X-241500Y60500D03*
X-228740Y101240D03*
X-187000Y102000D03*
X-135500Y61000D03*
X-146500Y103387D03*
X-158000Y103500D03*
X-110000Y12000D03*
X-128000Y46950D03*
X-56500Y9000D03*
X-66500Y28700D03*
X-50000Y92000D03*
X-41000Y85564D03*
X-47000Y87500D03*
X-15000Y102000D03*
X-10500Y101500D03*
X-20000Y96000D03*
X1500Y-500D03*
X49000Y53500D03*
X46000Y75000D03*
X45500Y57000D03*
X50500Y58000D03*
X65000Y26000D03*
X60500D03*
X60000Y76000D03*
X98846Y54654D03*
X89846D03*
X84846D03*
X94500D03*
X86000Y73000D03*
X88000Y95500D03*
X114500Y-16500D03*
X115500Y23500D03*
X119500Y32000D03*
X112750Y76250D03*
X188740Y89760D03*
X192500Y101500D03*
X200500D03*
X217760Y89760D03*
X231500Y103000D03*
X225000Y103500D03*
X249760Y89760D03*
X256500Y85500D03*
X-196500Y103244D03*
X-241000Y104000D03*
G54D26*
X-247500Y33000D03*
X-228000Y-56500D03*
X-237000Y12500D03*
X-217193Y17193D03*
X-194500Y13000D03*
X-202500Y57500D03*
X-187500Y-56000D03*
X-178500Y13000D03*
X-164500Y33000D03*
X-147000Y-56000D03*
X-135500Y-8500D03*
X-141500Y14000D03*
X-149000Y13000D03*
X-158000Y58000D03*
X-116500Y-16000D03*
X-95154Y-108346D03*
X86000Y-103500D03*
X252693Y31807D03*
X261154Y34154D03*
X255500Y52000D03*
X260654Y59846D03*
X-256000Y42500D03*
X-255500Y33000D03*
G54D29*
X-109500Y-110000D03*
Y-100000D03*
X101000Y-110000D03*
Y-100000D03*
%LPD*%
G75*
G36*
G01X-279500Y-30000D02*
Y-55000D01*
X-279000Y-55500D01*
X-246500D01*
X-246000Y-55000D01*
Y-46500D01*
X-246500Y-46000D01*
X-266000D01*
X-267500Y-44500D01*
Y-30000D01*
X-268000Y-29500D01*
X-279000D01*
X-279500Y-30000D01*
G37*
G36*
G01X-280000Y-20500D02*
Y-26500D01*
Y-27500D01*
X-279500Y-28000D01*
X-278500D01*
X-267000D01*
X-266000Y-29000D01*
Y-43500D01*
X-265000Y-44500D01*
X-204500D01*
X-204000Y-44000D01*
Y-21500D01*
Y-20500D01*
X-204500Y-20000D01*
X-205500D01*
X-279500D01*
X-280000Y-20500D01*
G37*
G36*
G01Y-8000D02*
Y-16000D01*
Y-17500D01*
X-279500Y-18000D01*
X-270500D01*
X-270000Y-18500D01*
X-202000D01*
X-201500Y-19000D01*
Y-44500D01*
X-201000Y-45000D01*
X-164500D01*
X-164000Y-44500D01*
Y-9000D01*
X-165500Y-7500D01*
X-279500D01*
X-280000Y-8000D01*
G37*
G36*
G01X-244000Y89000D02*
X-268000D01*
X-269500Y87500D01*
Y32500D01*
X-270000Y32000D01*
X-280000D01*
X-280500Y31500D01*
Y23000D01*
X-280000Y22500D01*
X-266000D01*
X-265500Y23000D01*
Y84000D01*
X-265000Y84500D01*
X-244000D01*
X-243500Y85000D01*
Y88500D01*
X-244000Y89000D01*
G37*
G36*
G01X-120746Y23200D02*
X-108754D01*
X-104254Y27700D01*
X-93225D01*
G02X-92947Y27012I0J-400D01*
G03X-92980Y26980I1948J-2011D01*
G01X-98160Y21800D01*
X-125840D01*
X-131290Y27250D01*
X-124983Y33557D01*
G02X-124300Y33274I283J-283D01*
G01Y26754D01*
X-120746Y23200D01*
G37*
G36*
G01X-119255Y26801D02*
X-120700Y28246D01*
Y43688D01*
G02X-120017Y43971I400J0D01*
G01X-115194Y39148D01*
X-117282Y37060D01*
Y36556D01*
X-117893Y35946D01*
X-117961Y35937D01*
G03X-116063Y34039I211J-1687D01*
G01X-116055Y34107D01*
X-114682Y35479D01*
Y35982D01*
X-113355Y37309D01*
X-107746Y31700D01*
X-106312D01*
G02X-106029Y31017I0J-400D01*
G01X-110245Y26801D01*
X-119255D01*
G37*
G36*
G01X-43254Y31300D02*
X-47254Y35300D01*
X-106254D01*
X-117200Y46246D01*
Y55754D01*
G02X-116517Y56037I400J0D01*
G01X-112580Y52100D01*
X-105420D01*
X-102420Y55100D01*
X-84580D01*
X-79830Y50350D01*
X-49650D01*
Y48570D01*
X-49400Y48320D01*
Y45420D01*
X-40330Y36350D01*
X-1714D01*
G03Y39150I964J1400D01*
G01X-39170D01*
X-46600Y46580D01*
Y46767D01*
G02X-45876Y47001I400J0D01*
G03X-43300Y49204I1376J999D01*
G01Y58003D01*
X-32503Y68800D01*
X-6503D01*
X-4800Y70503D01*
Y74982D01*
X-4779Y75003D01*
Y77976D01*
X-6924Y80122D01*
G02X-6615Y80804I283J283D01*
G03X-6573Y80801I115J1696D01*
G01X-6495Y80798D01*
X-5300Y79603D01*
X8878D01*
G02X9235Y79021I0J-400D01*
G03X11846Y76950I1515J-771D01*
G01X14711D01*
X27700Y63961D01*
Y61246D01*
X-2246Y31300D01*
X-43254D01*
G37*
G36*
G01X-46600Y49234D02*
Y49480D01*
X-46850Y49730D01*
Y50786D01*
G03X-49214Y53150I-1400J964D01*
G01X-78670D01*
X-83420Y57900D01*
X-103580D01*
X-106580Y54900D01*
X-111420D01*
X-114600Y58080D01*
Y80420D01*
X-111693Y83327D01*
X-111636Y83339D01*
G03X-113661Y85364I-364J1661D01*
G01X-113673Y85307D01*
X-116517Y82463D01*
G02X-117200Y82746I-283J283D01*
G01Y85754D01*
X-112646Y90308D01*
X-103539Y81200D01*
X-90461D01*
X-88192Y83469D01*
X-76308D01*
X-75722Y82883D01*
G02X-76005Y82200I-283J-283D01*
G01X-81296D01*
G03Y79800I-1204J-1200D01*
G01X-75997D01*
X-73497Y77300D01*
X-52503D01*
X-50856Y78947D01*
G02X-50178Y78728I283J-283D01*
G03X-46964Y79728I1678J272D01*
G02X-46602Y80300I361J171D01*
G01X-27503D01*
X-22503Y85300D01*
X-21566D01*
G02X-21268Y84633I0J-400D01*
G03X-18732I1267J-1133D01*
G02X-18434Y85300I298J267D01*
G01X-18003D01*
X-15003Y88300D01*
X-8863D01*
G02X-8580Y87617I0J-400D01*
G01X-10200Y85997D01*
Y80003D01*
X-10144Y79947D01*
X-10247Y79700D01*
X-31497D01*
X-43997Y67200D01*
X-56003D01*
X-61503Y72700D01*
X-80503D01*
X-84503Y76700D01*
X-93997D01*
X-97997Y72700D01*
X-110296D01*
G03Y70300I-1204J-1200D01*
G01X-97003D01*
X-93003Y74300D01*
X-85497D01*
X-81497Y70300D01*
X-62497D01*
X-56997Y64800D01*
X-43003D01*
X-30503Y77300D01*
X-10997D01*
X-10702Y77005D01*
X-10699Y76927D01*
G03X-7867Y75732I1699J73D01*
G02X-7200Y75434I267J-298D01*
G01Y74050D01*
G02X-7914Y73802I-400J0D01*
G03X-10673Y71819I-1336J-1052D01*
G02X-11008Y71200I-335J-219D01*
G01X-33497D01*
X-45700Y58997D01*
Y49204D01*
G03X-45876Y48999I1200J-1205D01*
G02X-46600Y49234I-324J235D01*
G37*
G36*
G01X-91000Y27000D02*
Y23000D01*
X-75500D01*
Y26000D01*
X-76500Y27000D01*
X-91000D01*
G37*
G36*
G01X-4306Y82003D02*
X-4798Y82495D01*
X-4801Y82573D01*
G03X-7228Y84036I-1699J-73D01*
G02X-7800Y84398I-171J361D01*
G01Y85003D01*
X-7003Y85800D01*
X1497D01*
X2495Y86798D01*
X2573Y86801D01*
G03X801Y88573I-73J1699D01*
G01X798Y88495D01*
X503Y88200D01*
X-1637D01*
G02X-1920Y88883I0J400D01*
G01X-1505Y89298D01*
X-1427Y89301D01*
G03X-3199Y91073I-73J1699D01*
G01X-3202Y90995D01*
X-3497Y90700D01*
X-15354D01*
G02X-15637Y91383I0J400D01*
G01X-12920Y94100D01*
X17420D01*
X28834Y82686D01*
G02X28551Y82003I-283J-283D01*
G01X-4306D01*
G37*
G36*
G01X159500Y-41000D02*
X203000D01*
X204000Y-40000D01*
Y-20000D01*
X206000Y-18000D01*
X279000D01*
X279500Y-17500D01*
Y-9000D01*
X279000Y-8500D01*
X159500D01*
X159000Y-9000D01*
Y-40500D01*
X159500Y-41000D01*
G37*
G36*
G01X279543Y-19858D02*
Y-27000D01*
X279500D01*
X279000Y-27500D01*
X266503D01*
X266108Y-27895D01*
X255273Y-38730D01*
X206850D01*
X206653Y-38533D01*
Y-20055D01*
X207126Y-19582D01*
X279267D01*
X279543Y-19858D01*
G37*
G36*
G01X267000Y-29500D02*
X256000Y-40500D01*
X224500D01*
X224000Y-41000D01*
Y-45500D01*
X224500Y-46000D01*
X278500D01*
X279500Y-45000D01*
Y-30000D01*
X279000Y-29500D01*
X267000D01*
G37*
%LPC*%
G75*
G36*
G01X-22669Y63324D02*
G03X-23050Y63801I-393J76D01*
G02X-21331Y65176I50J1699D01*
G03X-20950Y64700I393J-76D01*
G02X-19302Y63078I-50J-1699D01*
G03X-18879Y62698I400J18D01*
G02X-20481Y60922I97J-1697D01*
G03X-20903Y61303I-400J-18D01*
G02X-22669Y63324I-97J1697D01*
G37*
G54D27*
X-111750Y29250D03*
X-86500Y50500D03*
X-90500Y47000D03*
X-62500Y45000D03*
X-35500Y43500D03*
X-27000Y46500D03*
X-29000Y65000D03*
X-18690Y52000D03*
X-14500Y51500D03*
X-9500Y61000D03*
X-14047Y60547D03*
X-90000Y71250D03*
X-106500Y62000D03*
X-53500Y61000D03*
X-50000Y74000D03*
X-27593Y74593D03*
X-13000Y82000D03*
%LPD*%
G75*
G54D10*
X-276000Y-109500D03*
X-291000D03*
Y-94500D03*
Y-64000D03*
Y-48500D03*
Y-33500D03*
X-273000Y500D03*
X-291000Y-18000D03*
Y-3000D03*
X-273000Y12500D03*
X-291000D03*
Y28000D03*
Y43000D03*
X-273000Y78000D03*
X-291000Y58500D03*
Y73500D03*
X-273500Y87000D03*
X-291000Y89000D03*
X-261000Y-109500D03*
Y-94500D03*
Y-79000D03*
X-257000Y1500D03*
X-257500Y12500D03*
X-256847Y48846D03*
Y39346D03*
X-255500Y33000D03*
X-247500D03*
X-256000Y42500D03*
X-256847Y60000D03*
X-260153D03*
X-246500Y93000D03*
X-246000Y100450D03*
X-260000Y115000D03*
X-252500D03*
X-228000Y-56500D03*
X-237000Y12500D03*
X-224000Y42000D03*
Y47000D03*
X-241500Y60500D03*
X-228740Y101240D03*
X-218500Y103000D03*
X-241000Y104000D03*
Y115000D03*
X-229500D03*
X-218000D03*
X-216000Y-4000D03*
X-217193Y17193D03*
X-194500Y13000D03*
X-212500Y46000D03*
X-206000Y33000D03*
X-207000Y82500D03*
X-207500Y74500D03*
Y77500D03*
X-202500Y57500D03*
X-203250Y93250D03*
X-208584Y84929D03*
X-214500Y93000D03*
X-205000Y101450D03*
X-196500Y103244D03*
X-206500Y115000D03*
X-195000D03*
X-187500Y-56000D03*
X-175000Y-4500D03*
X-178500Y13000D03*
X-182500Y41500D03*
Y46500D03*
X-171000Y46000D03*
X-164500Y33000D03*
X-164000Y73000D03*
X-169500Y60500D03*
X-176500Y73000D03*
X-180500Y79250D03*
X-171750Y93250D03*
X-187000Y102000D03*
X-165000Y100500D03*
X-172250Y98750D03*
X-164750Y84750D03*
X-183500Y115000D03*
X-172500D03*
X-147000Y-56000D03*
X-135500Y-8500D03*
X-141500Y14000D03*
X-149000Y13000D03*
X-141500Y41500D03*
Y46500D03*
X-143000Y80000D03*
X-135500Y61000D03*
X-155000Y81500D03*
X-148000Y71950D03*
X-158000Y58000D03*
X-162250Y93250D03*
X-146500Y103387D03*
X-148500Y85000D03*
X-158000Y103500D03*
X-161000Y115000D03*
X-149500D03*
X-141500D03*
X-116500Y-19500D03*
Y-16000D03*
X-114500Y12000D03*
X-110000D03*
X-117750Y34250D03*
X-118250Y28750D03*
X-126750Y41750D03*
X-111750Y29250D03*
X-128000Y46950D03*
X-111500Y71500D03*
X-108500Y57750D03*
X-112500Y75500D03*
X-130437Y77063D03*
X-133750Y57750D03*
X-130750Y93250D03*
X-112000Y85000D03*
X-133000D03*
X-130750Y98750D03*
X-123750D03*
X-134000Y115000D03*
X-126500D03*
X-122500D03*
X-119000D03*
X-113500D03*
X-95154Y-108346D03*
X-88500Y-105500D03*
X-83500Y25000D03*
X-86500D03*
X-89500D03*
X-103500Y23500D03*
X-86500Y50500D03*
X-81000Y48500D03*
X-103500Y48000D03*
X-90500Y47000D03*
X-82500Y81000D03*
X-90000Y71250D03*
X-106500Y62000D03*
X-103000Y102500D03*
X-99200Y86700D03*
X-95500Y100500D03*
X-77500Y25000D03*
X-80500D03*
X-69000Y8000D03*
X-56500Y9000D03*
X-62500Y45000D03*
X-66500Y28700D03*
X-53500Y61000D03*
X-67500D03*
X-76000Y77000D03*
Y62000D03*
X-60500Y107000D03*
X-70902Y94598D03*
X-77500Y115500D03*
X-59500D03*
X-66000D03*
X-49000Y24500D03*
X-35500Y43500D03*
X-27000Y46500D03*
X-48250Y51750D03*
X-44500Y48000D03*
X-53000Y82000D03*
X-29000Y65000D03*
X-48500Y79000D03*
X-50000Y74000D03*
X-27593Y74593D03*
X-52000Y68500D03*
X-38000Y56000D03*
X-32250Y101250D03*
X-50000Y92000D03*
X-41000Y85564D03*
X-47000Y87500D03*
X-48500Y105500D03*
X-39000Y105000D03*
Y96000D03*
X-32250Y106750D03*
X-49000Y115300D03*
X-36500Y114500D03*
X-11000Y-94000D03*
X-18690Y52000D03*
X-14500Y51500D03*
X-750Y37750D03*
X-9000Y52000D03*
X-2500Y35000D03*
X-9500Y61000D03*
X-9250Y72750D03*
X-14047Y60547D03*
X-9000Y77000D03*
X-6500Y82500D03*
X-13000Y82000D03*
X-18783Y61000D03*
X-23000Y65500D03*
X-21000Y63000D03*
X-1500Y91000D03*
X-15000Y102000D03*
X-10500Y101500D03*
X-20000Y83500D03*
Y96000D03*
X-24500D03*
X-21000Y114500D03*
X-6000D03*
X26000Y-3000D03*
X1500Y-500D03*
X13000Y33000D03*
X11000Y30500D03*
X8200Y30300D03*
X17000Y33500D03*
X23000Y35500D03*
X9000Y55000D03*
Y34000D03*
X10750Y78250D03*
X12500Y75000D03*
X9000Y59500D03*
X2500Y88500D03*
X1500Y98500D03*
X7500Y88000D03*
X9500Y114500D03*
X24500D03*
X35000Y-3000D03*
X32000D03*
X29000D03*
X54000Y15000D03*
X46500D03*
Y22000D03*
X54000D03*
X34500Y17500D03*
X38000Y18500D03*
Y21500D03*
X47750Y44750D03*
X49000Y53500D03*
X46500Y29500D03*
X55000Y53500D03*
X33500Y55500D03*
X46000Y75000D03*
X45500Y57000D03*
X50500Y58000D03*
X39500D03*
X34000Y73000D03*
Y87000D03*
X55000Y114500D03*
X77250Y-113750D03*
X77000Y22000D03*
X65000Y26000D03*
X60500D03*
X78500Y55000D03*
X77000Y37000D03*
Y29500D03*
X76750Y44750D03*
X60000Y76000D03*
X78500Y74500D03*
X82000Y74000D03*
X82250Y64750D03*
X80500Y90000D03*
X83000Y87500D03*
X70500Y114500D03*
X86000Y-103500D03*
X103000Y26500D03*
Y18500D03*
X84500Y15000D03*
X98846Y54654D03*
X89846D03*
X84846D03*
X94500D03*
X102000Y37000D03*
Y45000D03*
X92500Y29500D03*
Y37000D03*
Y45000D03*
X84500D03*
X103750Y70750D03*
X86000Y73000D03*
X104250Y76250D03*
X105000Y86500D03*
X88000Y95500D03*
X86000Y114500D03*
X114500Y-16500D03*
Y-19500D03*
X115500Y23500D03*
X120000Y25000D03*
X126500D03*
X118500Y18500D03*
X111500Y24000D03*
X119500Y32000D03*
X118500Y50000D03*
X121500Y35000D03*
X112750Y76250D03*
X128000Y66500D03*
X159815Y66185D03*
X152500Y73500D03*
X140000Y67000D03*
X146500Y113500D03*
X154500Y114000D03*
X169328Y78500D03*
X165500Y68000D03*
X177500Y101500D03*
X188740Y89760D03*
X168500Y103000D03*
X177500Y87000D03*
X192500Y101500D03*
X169500Y114000D03*
X185000D03*
X195000Y44000D03*
X202000Y65500D03*
X203000Y71000D03*
X200500Y73000D03*
X196500Y78500D03*
X202500Y78000D03*
X201162Y80573D03*
X200500Y101500D03*
X208500Y102000D03*
X217760Y89760D03*
X200500Y88000D03*
X208500D03*
X200000Y114000D03*
X215500D03*
X240000Y80000D03*
X231500Y103000D03*
X239500D03*
X231500Y87500D03*
X239500Y88000D03*
X225000Y103500D03*
X230500Y114000D03*
X246000D03*
X270000Y-113000D03*
X261500Y-5000D03*
X254000D03*
X261500Y18500D03*
Y2500D03*
X254000D03*
Y10000D03*
X261500D03*
X269500D03*
X252693Y31807D03*
X255500Y46500D03*
X257846Y34954D03*
X261154Y34154D03*
X255500Y52000D03*
X255000Y56500D03*
X260654Y59846D03*
X262500Y101500D03*
X249760Y89760D03*
X266750Y91750D03*
X256500Y85500D03*
X261000Y114000D03*
X285000Y-113000D03*
Y-97500D03*
X291500Y-66500D03*
X285000Y-67000D03*
X291500Y-36000D03*
Y-51000D03*
Y-5500D03*
Y-20500D03*
X277000Y10000D03*
X284500D03*
X291500Y25000D03*
Y10000D03*
Y55500D03*
Y40500D03*
Y71000D03*
Y86000D03*
Y114000D03*
G54D20*
G01X-143000Y80000D02*
X-119000D01*
G01X-113002Y39502D02*
X-115982Y36521D01*
Y36018D01*
X-117750Y34250D01*
G01X-53000Y82000D02*
X-73000D01*
X-75770Y84770D01*
X-88730D01*
X-91000Y82500D01*
X-103000D01*
X-113000Y92500D01*
G01X29500Y64000D02*
X15250Y78250D01*
X10750D01*
G01X196500Y78500D02*
X191500Y73500D01*
X164000D01*
X159000Y78500D01*
X140500D01*
X132750Y70750D01*
X103750D01*
G54D11*
X-279528Y-82677D03*
Y102362D03*
X-102362Y-78740D03*
X38500Y102500D03*
X102362Y-78740D03*
X279528Y-82677D03*
Y102362D03*
G54D21*
G01X-208584Y84929D02*
X-210513Y83000D01*
X-222000D01*
X-232000Y93000D01*
X-246500D01*
G01X8200Y30300D02*
X-2100Y20000D01*
X-51000D01*
X-55000Y24000D01*
X-69500D01*
X-75000Y29500D01*
X-105000D01*
X-109500Y25000D01*
X-120001D01*
X-122500Y27500D01*
Y63500D01*
X-126500Y67500D01*
X-152000D01*
X-167000Y82500D01*
X-207000D01*
G01X-203250Y93250D02*
X-199000Y97500D01*
X-185000D01*
X-180500Y102000D01*
X-171000D01*
X-162250Y93250D01*
G01X-113002Y39502D02*
X-107000Y33500D01*
X-48000D01*
X-44000Y29500D01*
X-1500D01*
X29500Y60500D01*
Y64000D01*
G01X-119000Y80000D02*
Y45500D01*
X-113002Y39502D01*
G01X-119000Y80000D02*
Y86500D01*
X-113000Y92500D01*
G01D02*
X-103000Y102500D01*
G01X47500Y35500D02*
X33500D01*
X28000Y30000D01*
X11757D01*
X11257Y30500D01*
X11000D01*
G01X78000Y48500D02*
X70000D01*
X57000Y35500D01*
X47500D01*
G01X47750Y44750D02*
Y35750D01*
X47500Y35500D01*
G01X103750Y70750D02*
X101629Y68629D01*
X73129D01*
X68500Y64000D01*
X29500D01*
G01X202000Y65500D02*
X199000D01*
X198000Y66500D01*
X171500D01*
X165500Y60500D01*
X161500D01*
X158500Y57500D01*
X111500D01*
X102500Y48500D01*
X78000D01*
G01X78500Y55000D02*
Y49000D01*
X78000Y48500D01*
G54D12*
X-275591Y-23622D03*
Y-33622D03*
Y-13622D03*
X275591Y-33622D03*
Y-23622D03*
Y-13622D03*
G54D22*
G01X-171500Y89500D02*
X-211000D01*
X-214500Y93000D01*
G01X-130500Y89500D02*
X-171500D01*
G01X-171750Y93250D02*
Y89750D01*
X-171500Y89500D01*
G01X-112000Y85000D02*
X-116000Y81000D01*
Y57500D01*
X-112000Y53500D01*
X-106000D01*
X-103000Y56500D01*
X-84000D01*
X-79250Y51750D01*
X-48250D01*
G01X-130750Y93250D02*
Y89750D01*
X-130500Y89500D01*
G01X-59500Y107999D02*
X-61500Y110000D01*
X-106500D01*
X-127000Y89500D01*
X-130500D01*
G01X-60500Y107000D02*
X-60499D01*
X-59500Y107999D01*
G01X-32500Y91000D02*
X-42500D01*
X-59500Y107999D01*
G01X-48250Y51750D02*
Y49150D01*
X-48000Y48900D01*
Y46000D01*
X-39750Y37750D01*
X-750D01*
G01X-32500Y91000D02*
X-18000D01*
X-13500Y95500D01*
X18000D01*
X30000Y83500D01*
X87000D01*
X95500Y92000D01*
X152500D01*
G01X-32250Y101250D02*
Y91250D01*
X-32500Y91000D01*
G01X152606Y104000D02*
Y92106D01*
X152500Y92000D01*
G01X169500D02*
X152500D01*
G01X169328Y78500D02*
Y91828D01*
X169500Y92000D01*
G01X208500Y96000D02*
X180500D01*
G01D02*
X176500Y92000D01*
X169500D01*
G01X177500Y101500D02*
X180500Y98500D01*
Y96000D01*
G01X262500Y101500D02*
Y85500D01*
X251838Y74838D01*
X202339D01*
X200500Y73000D01*
G01X239500Y103000D02*
X232500Y96000D01*
X208500D01*
G01Y102000D02*
Y96000D01*
G54D13*
X-275591Y27559D03*
Y57087D03*
Y47244D03*
Y37402D03*
Y66929D03*
X27079Y-103500D03*
X17236D03*
X7394D03*
X56606D03*
X46764D03*
X36921D03*
X103394Y104000D03*
X113236D03*
X123079D03*
X132921D03*
X142764D03*
X152606D03*
X275591Y27559D03*
Y37402D03*
Y47244D03*
Y57087D03*
Y66929D03*
G54D23*
G01X-212500Y32500D02*
X-207000Y27000D01*
X-171000D01*
G01D02*
X-135000D01*
G01X-171000Y33000D02*
Y27000D01*
G01X-135000D02*
X-127000Y19000D01*
X-97000D01*
X-91000Y25000D01*
G01X-126500Y36000D02*
X-135000Y27500D01*
Y27000D01*
G01X-91000Y25000D02*
X-89500D01*
G01X164500Y27000D02*
X137000D01*
X120000Y10000D01*
X31500D01*
X28500Y13000D01*
X-53000D01*
X-55500Y15500D01*
X-70000D01*
X-77500Y23000D01*
G01D02*
Y25000D01*
G01X164500Y35500D02*
Y27000D01*
G01X209000D02*
X164500D01*
G01X253500Y39250D02*
X253250Y39500D01*
X246500D01*
X234000Y27000D01*
X209000D01*
G01Y34000D02*
Y27000D01*
G54D14*
X-251500Y-81842D03*
Y-62158D03*
X-210000Y-81842D03*
Y-62158D03*
X-169000Y-81842D03*
Y-62158D03*
X165500Y-81342D03*
Y-61658D03*
X212000Y-82342D03*
Y-62658D03*
X257500Y-82842D03*
Y-63158D03*
G54D24*
G01X-295276Y-118110D02*
Y118110D01*
X295276D01*
Y-118110D01*
X-295276D01*
G54D15*
X-264500Y-53000D03*
Y-48500D03*
X-260500Y-53000D03*
Y-48500D03*
X-256500Y-53000D03*
Y-48500D03*
X-252000Y-53000D03*
Y-48500D03*
X-248000D03*
Y-53000D03*
X-245500Y87000D03*
X-249000D03*
X-235000Y47000D03*
X-206000Y-39000D03*
Y-35000D03*
Y-31000D03*
X-210500Y-39000D03*
Y-35000D03*
Y-31000D03*
Y-27000D03*
X-206000D03*
Y-23000D03*
X-210500D03*
X-212500Y32500D03*
X-213000Y52000D03*
X-193500Y46500D03*
X-169500Y-30000D03*
Y-34000D03*
Y-38000D03*
X-165500D03*
Y-34000D03*
Y-30500D03*
Y-26500D03*
X-169500Y-26000D03*
X-165500Y-22500D03*
X-169500D03*
X-171000Y33000D03*
X-171500Y51500D03*
X-136870Y54130D03*
X-152000Y46500D03*
X-126500Y36000D03*
X-88000Y-17500D03*
X-94500Y38000D03*
X-98000Y39500D03*
X-94500Y42500D03*
X80300Y-6500D03*
X128000Y35000D03*
X136500Y62000D03*
X147000Y-58000D03*
X161500Y-26500D03*
Y-30500D03*
Y-34000D03*
Y-38000D03*
X147500Y-8000D03*
X161500Y-22500D03*
X144000Y15500D03*
X159000D03*
X164500Y35500D03*
X151500Y44500D03*
Y49500D03*
X164500Y49000D03*
X161500Y54500D03*
X142000Y49500D03*
X157000Y62000D03*
X165500Y-38000D03*
Y-34000D03*
Y-30500D03*
Y-26500D03*
Y-22500D03*
X187000Y16000D03*
X172500Y35500D03*
X185000Y49000D03*
X178000Y61500D03*
X195500Y-57500D03*
X208500Y-28500D03*
Y-32000D03*
Y-36000D03*
X212500D03*
Y-32000D03*
Y-28500D03*
X195000Y-4500D03*
X208500Y-25000D03*
X212500D03*
Y-21500D03*
X208500D03*
X202500Y15500D03*
X209000Y34000D03*
X195000Y49000D03*
X207500Y48000D03*
X206000Y54000D03*
X214000Y35500D03*
X199000Y61500D03*
X240500Y-57500D03*
X226500Y-43000D03*
X244500D03*
X233000Y16500D03*
X237500Y44500D03*
X230000Y52500D03*
X237000Y49500D03*
X226500D03*
X242500Y62500D03*
X221000D03*
X267500Y-37000D03*
X268000Y-43000D03*
X262500Y-37500D03*
X262000Y-43000D03*
X256500D03*
X251000D03*
X253500Y39250D03*
X247500Y54500D03*
X250000Y48500D03*
G54D16*
X-109500Y-110000D03*
Y-100000D03*
X101000Y-110000D03*
Y-100000D03*
G54D17*
X-54405Y-108500D03*
X-42594D03*
G54D18*
X58500Y-40342D03*
Y-20657D03*
G54D19*
G01X-9000Y77000D02*
X-10500Y78500D01*
X-31000D01*
X-43500Y66000D01*
X-56500D01*
X-62000Y71500D01*
X-81000D01*
X-85000Y75500D01*
X-93500D01*
X-97500Y71500D01*
X-111500D01*
G01X-82500Y81000D02*
X-75500D01*
X-73000Y78500D01*
X-53000D01*
X-50000Y81500D01*
X-28000D01*
X-23000Y86500D01*
X-18500D01*
X-15500Y89500D01*
X-3000D01*
X-1500Y91000D01*
G01X2500Y88500D02*
X1000Y87000D01*
X-7500D01*
X-9000Y85500D01*
Y80500D01*
X-5979Y77479D01*
Y75500D01*
X-6000Y75479D01*
Y71000D01*
X-7000Y70000D01*
X-33000D01*
X-44500Y58500D01*
Y48000D01*
G01X-6500Y82500D02*
X-4803Y80803D01*
X93303D01*
X99000Y86500D01*
X105000D01*
M02*
