G04 ================== begin FILE IDENTIFICATION RECORD ==================*
G04 Layout Name:  D:/WorkPrj/LUGGAGE/R2/AWheel/BRD/AWheel.brd*
G04 Film Name:    DRILL*
G04 File Format:  Gerber RS274X*
G04 File Origin:  Cadence Allegro 16.6-2015-S088*
G04 Origin Date:  Fri Apr 27 16:37:20 2018*
G04 *
G04 Layer:  BOARD GEOMETRY/OUTLINE*
G04 Layer:  MANUFACTURING/NCLEGEND-1-4*
G04 *
G04 Offset:    (0.000 0.000)*
G04 Mirror:    No*
G04 Mode:      Positive*
G04 Rotation:  0*
G04 FullContactRelief:  No*
G04 UndefLineWidth:     5.000*
G04 ================== end FILE IDENTIFICATION RECORD ====================*
%FSLAX25Y25*MOIN*%
%IR0*IPPOS*OFA0.00000B0.00000*MIA0B0*SFA1.00000B1.00000*%
%AMMACRO10*
1,1,.005,.006,0.0*
20,1,.005,.006,0.0,-.006,0.0,0.0*
1,1,.005,-.006,0.0*
1,1,.005,0.0,.006*
20,1,.005,0.0,.006,0.0,-.006,0.0*
1,1,.005,0.0,-.006*
%
%ADD10MACRO10*%
%AMMACRO18*
1,1,.005,.007338,-.017717*
20,1,.005,.007338,-.017717,-.007338,-.017717,0.0*
1,1,.005,-.007338,-.017717*
20,1,.005,-.007338,-.017717,-.017717,-.007338,0.0*
1,1,.005,-.017717,-.007338*
20,1,.005,-.017717,-.007338,-.017717,.007338,0.0*
1,1,.005,-.017717,.007338*
20,1,.005,-.017717,.007338,-.007338,.017717,0.0*
1,1,.005,-.007338,.017717*
20,1,.005,-.007338,.017717,.007338,.017717,0.0*
1,1,.005,.007338,.017717*
20,1,.005,.007338,.017717,.017717,.007338,0.0*
1,1,.005,.017717,.007338*
20,1,.005,.017717,.007338,.017717,-.007338,0.0*
1,1,.005,.017717,-.007338*
20,1,.005,.017717,-.007338,.007338,-.017717,0.0*
1,1,.005,.007338,-.017717*
%
%ADD18MACRO18*%
%AMMACRO11*
1,1,.005,-.038386,.012795*
20,1,.005,-.038386,.012795,-.037803,.019461,0.0*
1,1,.005,-.037803,.019461*
20,1,.005,-.037803,.019461,-.036071,.025924,0.0*
1,1,.005,-.036071,.025924*
20,1,.005,-.036071,.025924,-.033243,.031988,0.0*
1,1,.005,-.033243,.031988*
20,1,.005,-.033243,.031988,-.029405,.037469,0.0*
1,1,.005,-.029405,.037469*
20,1,.005,-.029405,.037469,-.024674,.0422,0.0*
1,1,.005,-.024674,.0422*
20,1,.005,-.024674,.0422,-.019193,.046038,0.0*
1,1,.005,-.019193,.046038*
20,1,.005,-.019193,.046038,-.013129,.048866,0.0*
1,1,.005,-.013129,.048866*
20,1,.005,-.013129,.048866,-.006666,.050598,0.0*
1,1,.005,-.006666,.050598*
20,1,.005,-.006666,.050598,0.0,.051181,0.0*
1,1,.005,0.0,.051181*
20,1,.005,0.0,.051181,.006666,.050598,0.0*
1,1,.005,.006666,.050598*
20,1,.005,.006666,.050598,.013129,.048866,0.0*
1,1,.005,.013129,.048866*
20,1,.005,.013129,.048866,.019193,.046038,0.0*
1,1,.005,.019193,.046038*
20,1,.005,.019193,.046038,.024674,.0422,0.0*
1,1,.005,.024674,.0422*
20,1,.005,.024674,.0422,.029405,.037469,0.0*
1,1,.005,.029405,.037469*
20,1,.005,.029405,.037469,.033243,.031988,0.0*
1,1,.005,.033243,.031988*
20,1,.005,.033243,.031988,.036071,.025924,0.0*
1,1,.005,.036071,.025924*
20,1,.005,.036071,.025924,.037803,.019461,0.0*
1,1,.005,.037803,.019461*
20,1,.005,.037803,.019461,.038386,.012795,0.0*
1,1,.005,.038386,.012795*
20,1,.005,.038386,.012795,.038386,-.012795,0.0*
1,1,.005,.038386,-.012795*
20,1,.005,.038386,-.012795,.037803,-.019461,0.0*
1,1,.005,.037803,-.019461*
20,1,.005,.037803,-.019461,.036071,-.025924,0.0*
1,1,.005,.036071,-.025924*
20,1,.005,.036071,-.025924,.033243,-.031988,0.0*
1,1,.005,.033243,-.031988*
20,1,.005,.033243,-.031988,.029405,-.037469,0.0*
1,1,.005,.029405,-.037469*
20,1,.005,.029405,-.037469,.024674,-.0422,0.0*
1,1,.005,.024674,-.0422*
20,1,.005,.024674,-.0422,.019193,-.046038,0.0*
1,1,.005,.019193,-.046038*
20,1,.005,.019193,-.046038,.013129,-.048866,0.0*
1,1,.005,.013129,-.048866*
20,1,.005,.013129,-.048866,.006666,-.050598,0.0*
1,1,.005,.006666,-.050598*
20,1,.005,.006666,-.050598,0.0,-.051181,0.0*
1,1,.005,0.0,-.051181*
20,1,.005,0.0,-.051181,-.006666,-.050598,0.0*
1,1,.005,-.006666,-.050598*
20,1,.005,-.006666,-.050598,-.013129,-.048866,0.0*
1,1,.005,-.013129,-.048866*
20,1,.005,-.013129,-.048866,-.019193,-.046038,0.0*
1,1,.005,-.019193,-.046038*
20,1,.005,-.019193,-.046038,-.024674,-.0422,0.0*
1,1,.005,-.024674,-.0422*
20,1,.005,-.024674,-.0422,-.029405,-.037469,0.0*
1,1,.005,-.029405,-.037469*
20,1,.005,-.029405,-.037469,-.033243,-.031988,0.0*
1,1,.005,-.033243,-.031988*
20,1,.005,-.033243,-.031988,-.036071,-.025924,0.0*
1,1,.005,-.036071,-.025924*
20,1,.005,-.036071,-.025924,-.037803,-.019461,0.0*
1,1,.005,-.037803,-.019461*
20,1,.005,-.037803,-.019461,-.038386,-.012795,0.0*
1,1,.005,-.038386,-.012795*
20,1,.005,-.038386,-.012795,-.038386,.012795,0.0*
1,1,.005,-.038386,.012795*
%
%ADD11MACRO11*%
%AMMACRO12*
1,1,.005,.019685,0.0*
20,1,.005,.019685,0.0,0.0,-.019685,0.0*
1,1,.005,0.0,-.019685*
20,1,.005,0.0,-.019685,-.019685,0.0,0.0*
1,1,.005,-.019685,0.0*
20,1,.005,-.019685,0.0,0.0,.019685,0.0*
1,1,.005,0.0,.019685*
20,1,.005,0.0,.019685,.019685,0.0,0.0*
1,1,.005,.019685,0.0*
%
%ADD12MACRO12*%
%AMMACRO13*
1,1,.005,-.005906,.017717*
20,1,.005,-.005906,.017717,.005906,.017717,0.0*
1,1,.005,.005906,.017717*
20,1,.005,.005906,.017717,.008982,.017447,0.0*
1,1,.005,.008982,.017447*
20,1,.005,.008982,.017447,.011965,.016648,0.0*
1,1,.005,.011965,.016648*
20,1,.005,.011965,.016648,.014764,.015343,0.0*
1,1,.005,.014764,.015343*
20,1,.005,.014764,.015343,.017293,.013572,0.0*
1,1,.005,.017293,.013572*
20,1,.005,.017293,.013572,.019477,.011388,0.0*
1,1,.005,.019477,.011388*
20,1,.005,.019477,.011388,.021248,.008858,0.0*
1,1,.005,.021248,.008858*
20,1,.005,.021248,.008858,.022554,.006059,0.0*
1,1,.005,.022554,.006059*
20,1,.005,.022554,.006059,.023353,.003076,0.0*
1,1,.005,.023353,.003076*
20,1,.005,.023353,.003076,.023622,0.0,0.0*
1,1,.005,.023622,0.0*
20,1,.005,.023622,0.0,.023353,-.003076,0.0*
1,1,.005,.023353,-.003076*
20,1,.005,.023353,-.003076,.022554,-.006059,0.0*
1,1,.005,.022554,-.006059*
20,1,.005,.022554,-.006059,.021248,-.008858,0.0*
1,1,.005,.021248,-.008858*
20,1,.005,.021248,-.008858,.019477,-.011388,0.0*
1,1,.005,.019477,-.011388*
20,1,.005,.019477,-.011388,.017293,-.013572,0.0*
1,1,.005,.017293,-.013572*
20,1,.005,.017293,-.013572,.014764,-.015343,0.0*
1,1,.005,.014764,-.015343*
20,1,.005,.014764,-.015343,.011965,-.016648,0.0*
1,1,.005,.011965,-.016648*
20,1,.005,.011965,-.016648,.008982,-.017447,0.0*
1,1,.005,.008982,-.017447*
20,1,.005,.008982,-.017447,.005906,-.017717,0.0*
1,1,.005,.005906,-.017717*
20,1,.005,.005906,-.017717,-.005906,-.017717,0.0*
1,1,.005,-.005906,-.017717*
20,1,.005,-.005906,-.017717,-.008982,-.017447,0.0*
1,1,.005,-.008982,-.017447*
20,1,.005,-.008982,-.017447,-.011965,-.016648,0.0*
1,1,.005,-.011965,-.016648*
20,1,.005,-.011965,-.016648,-.014764,-.015343,0.0*
1,1,.005,-.014764,-.015343*
20,1,.005,-.014764,-.015343,-.017293,-.013572,0.0*
1,1,.005,-.017293,-.013572*
20,1,.005,-.017293,-.013572,-.019477,-.011388,0.0*
1,1,.005,-.019477,-.011388*
20,1,.005,-.019477,-.011388,-.021248,-.008858,0.0*
1,1,.005,-.021248,-.008858*
20,1,.005,-.021248,-.008858,-.022554,-.006059,0.0*
1,1,.005,-.022554,-.006059*
20,1,.005,-.022554,-.006059,-.023353,-.003076,0.0*
1,1,.005,-.023353,-.003076*
20,1,.005,-.023353,-.003076,-.023622,0.0,0.0*
1,1,.005,-.023622,0.0*
20,1,.005,-.023622,0.0,-.023353,.003076,0.0*
1,1,.005,-.023353,.003076*
20,1,.005,-.023353,.003076,-.022554,.006059,0.0*
1,1,.005,-.022554,.006059*
20,1,.005,-.022554,.006059,-.021248,.008858,0.0*
1,1,.005,-.021248,.008858*
20,1,.005,-.021248,.008858,-.019477,.011388,0.0*
1,1,.005,-.019477,.011388*
20,1,.005,-.019477,.011388,-.017293,.013572,0.0*
1,1,.005,-.017293,.013572*
20,1,.005,-.017293,.013572,-.014764,.015343,0.0*
1,1,.005,-.014764,.015343*
20,1,.005,-.014764,.015343,-.011965,.016648,0.0*
1,1,.005,-.011965,.016648*
20,1,.005,-.011965,.016648,-.008982,.017447,0.0*
1,1,.005,-.008982,.017447*
20,1,.005,-.008982,.017447,-.005906,.017717,0.0*
1,1,.005,-.005906,.017717*
%
%ADD13MACRO13*%
%AMMACRO17*
1,1,.005,0.0,.023622*
20,1,.005,0.0,.023622,.023622,-.023622,0.0*
1,1,.005,.023622,-.023622*
20,1,.005,.023622,-.023622,-.023622,-.023622,0.0*
1,1,.005,-.023622,-.023622*
20,1,.005,-.023622,-.023622,0.0,.023622,0.0*
1,1,.005,0.0,.023622*
%
%ADD17MACRO17*%
%AMMACRO14*
1,1,.005,.015748,0.0*
20,1,.005,.015748,0.0,.007874,.013638,0.0*
1,1,.005,.007874,.013638*
20,1,.005,.007874,.013638,-.007874,.013638,0.0*
1,1,.005,-.007874,.013638*
20,1,.005,-.007874,.013638,-.015748,0.0,0.0*
1,1,.005,-.015748,0.0*
20,1,.005,-.015748,0.0,-.007874,-.013638,0.0*
1,1,.005,-.007874,-.013638*
20,1,.005,-.007874,-.013638,.007874,-.013638,0.0*
1,1,.005,.007874,-.013638*
20,1,.005,.007874,-.013638,.015748,0.0,0.0*
1,1,.005,.015748,0.0*
%
%ADD14MACRO14*%
%AMMACRO16*
1,1,.005,0.0,.015748*
20,1,.005,0.0,.015748,-.013638,.007874,0.0*
1,1,.005,-.013638,.007874*
20,1,.005,-.013638,.007874,-.013638,-.007874,0.0*
1,1,.005,-.013638,-.007874*
20,1,.005,-.013638,-.007874,0.0,-.015748,0.0*
1,1,.005,0.0,-.015748*
20,1,.005,0.0,-.015748,.013638,-.007874,0.0*
1,1,.005,.013638,-.007874*
20,1,.005,.013638,-.007874,.013638,.007874,0.0*
1,1,.005,.013638,.007874*
20,1,.005,.013638,.007874,0.0,.015748,0.0*
1,1,.005,0.0,.015748*
%
%ADD16MACRO16*%
%AMMACRO15*
1,1,.005,.01,.01*
20,1,.005,.01,.01,.01,-.01,0.0*
1,1,.005,.01,-.01*
20,1,.005,.01,-.01,-.01,-.01,0.0*
1,1,.005,-.01,-.01*
20,1,.005,-.01,-.01,-.01,.01,0.0*
1,1,.005,-.01,.01*
20,1,.005,-.01,.01,.01,.01,0.0*
1,1,.005,.01,.01*
%
%ADD15MACRO15*%
%ADD19C,.005*%
%ADD20C,.006*%
G75*
%LPD*%
G75*
G54D10*
X-276000Y-109500D03*
X-291000D03*
Y-94500D03*
Y-64000D03*
Y-48500D03*
Y-33500D03*
X-273000Y500D03*
X-291000Y-18000D03*
Y-3000D03*
X-273000Y12500D03*
X-291000D03*
Y28000D03*
Y43000D03*
X-273000Y78000D03*
X-291000Y58500D03*
Y73500D03*
X-273500Y87000D03*
X-291000Y89000D03*
X-261000Y-109500D03*
Y-94500D03*
Y-79000D03*
X-257000Y1500D03*
X-257500Y12500D03*
X-256847Y48846D03*
Y39346D03*
X-255500Y33000D03*
X-247500D03*
X-256000Y42500D03*
X-256847Y60000D03*
X-260153D03*
X-246500Y93000D03*
X-246000Y100450D03*
X-260000Y115000D03*
X-252500D03*
X-228000Y-56500D03*
X-237000Y12500D03*
X-224000Y42000D03*
Y47000D03*
X-241500Y60500D03*
X-228740Y101240D03*
X-218500Y103000D03*
X-241000Y104000D03*
Y115000D03*
X-229500D03*
X-218000D03*
X-216000Y-4000D03*
X-217193Y17193D03*
X-194500Y13000D03*
X-212500Y46000D03*
X-206000Y33000D03*
X-207000Y82500D03*
X-207500Y74500D03*
Y77500D03*
X-202500Y57500D03*
X-203250Y93250D03*
X-208584Y84929D03*
X-214500Y93000D03*
X-205000Y101450D03*
X-196500Y103244D03*
X-206500Y115000D03*
X-195000D03*
X-187500Y-56000D03*
X-175000Y-4500D03*
X-178500Y13000D03*
X-182500Y41500D03*
Y46500D03*
X-171000Y46000D03*
X-164500Y33000D03*
X-164000Y73000D03*
X-169500Y60500D03*
X-176500Y73000D03*
X-180500Y79250D03*
X-171750Y93250D03*
X-187000Y102000D03*
X-165000Y100500D03*
X-172250Y98750D03*
X-164750Y84750D03*
X-183500Y115000D03*
X-172500D03*
X-147000Y-56000D03*
X-135500Y-8500D03*
X-141500Y14000D03*
X-149000Y13000D03*
X-141500Y41500D03*
Y46500D03*
X-143000Y80000D03*
X-135500Y61000D03*
X-155000Y81500D03*
X-148000Y71950D03*
X-158000Y58000D03*
X-162250Y93250D03*
X-146500Y103387D03*
X-148500Y85000D03*
X-158000Y103500D03*
X-161000Y115000D03*
X-149500D03*
X-141500D03*
X-116500Y-19500D03*
Y-16000D03*
X-114500Y12000D03*
X-110000D03*
X-117750Y34250D03*
X-118250Y28750D03*
X-126750Y41750D03*
X-111750Y29250D03*
X-128000Y46950D03*
X-111500Y71500D03*
X-108500Y57750D03*
X-112500Y75500D03*
X-130437Y77063D03*
X-133750Y57750D03*
X-130750Y93250D03*
X-112000Y85000D03*
X-133000D03*
X-130750Y98750D03*
X-123750D03*
X-134000Y115000D03*
X-126500D03*
X-122500D03*
X-119000D03*
X-113500D03*
X-95154Y-108346D03*
X-88500Y-105500D03*
X-83500Y25000D03*
X-86500D03*
X-89500D03*
X-103500Y23500D03*
X-86500Y50500D03*
X-81000Y48500D03*
X-103500Y48000D03*
X-90500Y47000D03*
X-82500Y81000D03*
X-90000Y71250D03*
X-106500Y62000D03*
X-103000Y102500D03*
X-99200Y86700D03*
X-95500Y100500D03*
X-77500Y25000D03*
X-80500D03*
X-69000Y8000D03*
X-56500Y9000D03*
X-62500Y45000D03*
X-66500Y28700D03*
X-53500Y61000D03*
X-67500D03*
X-76000Y77000D03*
Y62000D03*
X-60500Y107000D03*
X-70902Y94598D03*
X-77500Y115500D03*
X-59500D03*
X-66000D03*
X-49000Y24500D03*
X-35500Y43500D03*
X-27000Y46500D03*
X-48250Y51750D03*
X-44500Y48000D03*
X-53000Y82000D03*
X-29000Y65000D03*
X-48500Y79000D03*
X-50000Y74000D03*
X-27593Y74593D03*
X-52000Y68500D03*
X-38000Y56000D03*
X-32250Y101250D03*
X-50000Y92000D03*
X-41000Y85564D03*
X-47000Y87500D03*
X-48500Y105500D03*
X-39000Y105000D03*
Y96000D03*
X-32250Y106750D03*
X-49000Y115300D03*
X-36500Y114500D03*
X-11000Y-94000D03*
X-18690Y52000D03*
X-14500Y51500D03*
X-750Y37750D03*
X-9000Y52000D03*
X-2500Y35000D03*
X-9500Y61000D03*
X-9250Y72750D03*
X-14047Y60547D03*
X-9000Y77000D03*
X-6500Y82500D03*
X-13000Y82000D03*
X-18783Y61000D03*
X-23000Y65500D03*
X-21000Y63000D03*
X-1500Y91000D03*
X-15000Y102000D03*
X-10500Y101500D03*
X-20000Y83500D03*
Y96000D03*
X-24500D03*
X-21000Y114500D03*
X-6000D03*
X26000Y-3000D03*
X1500Y-500D03*
X13000Y33000D03*
X11000Y30500D03*
X8200Y30300D03*
X17000Y33500D03*
X23000Y35500D03*
X9000Y55000D03*
Y34000D03*
X10750Y78250D03*
X12500Y75000D03*
X9000Y59500D03*
X2500Y88500D03*
X1500Y98500D03*
X7500Y88000D03*
X9500Y114500D03*
X24500D03*
X35000Y-3000D03*
X32000D03*
X29000D03*
X54000Y15000D03*
X46500D03*
Y22000D03*
X54000D03*
X34500Y17500D03*
X38000Y18500D03*
Y21500D03*
X47750Y44750D03*
X49000Y53500D03*
X46500Y29500D03*
X55000Y53500D03*
X33500Y55500D03*
X46000Y75000D03*
X45500Y57000D03*
X50500Y58000D03*
X39500D03*
X34000Y73000D03*
Y87000D03*
X55000Y114500D03*
X77250Y-113750D03*
X77000Y22000D03*
X65000Y26000D03*
X60500D03*
X78500Y55000D03*
X77000Y37000D03*
Y29500D03*
X76750Y44750D03*
X60000Y76000D03*
X78500Y74500D03*
X82000Y74000D03*
X82250Y64750D03*
X80500Y90000D03*
X83000Y87500D03*
X70500Y114500D03*
X86000Y-103500D03*
X103000Y26500D03*
Y18500D03*
X84500Y15000D03*
X98846Y54654D03*
X89846D03*
X84846D03*
X94500D03*
X102000Y37000D03*
Y45000D03*
X92500Y29500D03*
Y37000D03*
Y45000D03*
X84500D03*
X103750Y70750D03*
X86000Y73000D03*
X104250Y76250D03*
X105000Y86500D03*
X88000Y95500D03*
X86000Y114500D03*
X114500Y-16500D03*
Y-19500D03*
X115500Y23500D03*
X120000Y25000D03*
X126500D03*
X118500Y18500D03*
X111500Y24000D03*
X119500Y32000D03*
X118500Y50000D03*
X121500Y35000D03*
X112750Y76250D03*
X128000Y66500D03*
X159815Y66185D03*
X152500Y73500D03*
X140000Y67000D03*
X146500Y113500D03*
X154500Y114000D03*
X169328Y78500D03*
X165500Y68000D03*
X177500Y101500D03*
X188740Y89760D03*
X168500Y103000D03*
X177500Y87000D03*
X192500Y101500D03*
X169500Y114000D03*
X185000D03*
X195000Y44000D03*
X202000Y65500D03*
X203000Y71000D03*
X200500Y73000D03*
X196500Y78500D03*
X202500Y78000D03*
X201162Y80573D03*
X200500Y101500D03*
X208500Y102000D03*
X217760Y89760D03*
X200500Y88000D03*
X208500D03*
X200000Y114000D03*
X215500D03*
X240000Y80000D03*
X231500Y103000D03*
X239500D03*
X231500Y87500D03*
X239500Y88000D03*
X225000Y103500D03*
X230500Y114000D03*
X246000D03*
X270000Y-113000D03*
X261500Y-5000D03*
X254000D03*
X261500Y18500D03*
Y2500D03*
X254000D03*
Y10000D03*
X261500D03*
X269500D03*
X252693Y31807D03*
X255500Y46500D03*
X257846Y34954D03*
X261154Y34154D03*
X255500Y52000D03*
X255000Y56500D03*
X260654Y59846D03*
X262500Y101500D03*
X249760Y89760D03*
X266750Y91750D03*
X256500Y85500D03*
X261000Y114000D03*
X285000Y-113000D03*
Y-97500D03*
X291500Y-66500D03*
X285000Y-67000D03*
X291500Y-36000D03*
Y-51000D03*
Y-5500D03*
Y-20500D03*
X277000Y10000D03*
X284500D03*
X291500Y25000D03*
Y10000D03*
Y55500D03*
Y40500D03*
Y71000D03*
Y86000D03*
Y114000D03*
X323800Y74823D03*
G54D20*
G01X317293Y83750D02*
Y86250D01*
X318307D01*
G01X317933Y85042D02*
X317293D01*
G01X319880Y86250D02*
X320520D01*
G01X320200D02*
Y83750D01*
G01X319880D02*
X320520D01*
G01X322760Y85000D02*
X323293D01*
Y84250D01*
X323133Y84000D01*
X322947Y83833D01*
X322680Y83750D01*
X322413Y83833D01*
X322227Y84000D01*
X322067Y84250D01*
X321960Y84542D01*
X321907Y84875D01*
Y85167D01*
X321960Y85417D01*
X322067Y85708D01*
X322227Y85958D01*
X322387Y86125D01*
X322600Y86250D01*
X322787D01*
X323000Y86167D01*
X323160Y86000D01*
G01X324413Y86250D02*
Y84458D01*
X324520Y84083D01*
X324733Y83833D01*
X325000Y83750D01*
X325267Y83833D01*
X325480Y84083D01*
X325587Y84458D01*
Y86250D01*
G01X326867Y83750D02*
Y86250D01*
X327533D01*
X327747Y86125D01*
X327880Y85958D01*
X327933Y85625D01*
X327880Y85292D01*
X327720Y85083D01*
X327533Y84958D01*
X326867D01*
G01X327533D02*
X327933Y83750D01*
G01X330333D02*
X329267D01*
Y86250D01*
X330333D01*
G01X329907Y85042D02*
X329267D01*
G01X345320Y-33907D02*
Y-31407D01*
X344333Y-33199D01*
X345667D01*
G01X347347Y-33907D02*
X347400Y-33366D01*
X347480Y-32907D01*
X347587Y-32491D01*
X347720Y-32032D01*
X347933Y-31407D01*
X346867D01*
G01X349800Y-33991D02*
X349747Y-33949D01*
Y-33866D01*
X349800Y-33824D01*
X349853Y-33866D01*
Y-33949D01*
X349800Y-33991D01*
G01X351693Y-31824D02*
X351853Y-31574D01*
X352040Y-31449D01*
X352253Y-31407D01*
X352520Y-31491D01*
X352707Y-31699D01*
X352760Y-31949D01*
X352733Y-32199D01*
X352627Y-32407D01*
X352093Y-32824D01*
X351853Y-33116D01*
X351693Y-33532D01*
X351640Y-33907D01*
X352760D01*
G01X354920D02*
Y-31407D01*
X353933Y-33199D01*
X355267D01*
G01X357320Y-33907D02*
Y-31407D01*
X356333Y-33199D01*
X357667D01*
G01X343800Y-49262D02*
Y-46762D01*
X343480Y-47262D01*
G01Y-49262D02*
X344120D01*
G01X346200Y-46762D02*
X345987Y-46845D01*
X345827Y-47053D01*
X345720Y-47303D01*
X345640Y-47637D01*
X345613Y-48012D01*
X345640Y-48387D01*
X345720Y-48720D01*
X345827Y-48970D01*
X345987Y-49178D01*
X346200Y-49262D01*
X346413Y-49178D01*
X346573Y-48970D01*
X346680Y-48720D01*
X346760Y-48387D01*
X346787Y-48012D01*
X346760Y-47637D01*
X346680Y-47303D01*
X346573Y-47053D01*
X346413Y-46845D01*
X346200Y-46762D01*
G01X348093Y-47178D02*
X348253Y-46928D01*
X348440Y-46803D01*
X348653Y-46762D01*
X348920Y-46845D01*
X349107Y-47053D01*
X349160Y-47303D01*
X349133Y-47553D01*
X349027Y-47762D01*
X348493Y-48178D01*
X348253Y-48470D01*
X348093Y-48887D01*
X348040Y-49262D01*
X349160D01*
G01X351000Y-49345D02*
X350947Y-49303D01*
Y-49220D01*
X351000Y-49178D01*
X351053Y-49220D01*
Y-49303D01*
X351000Y-49345D01*
G01X352813Y-48762D02*
X352973Y-49053D01*
X353187Y-49220D01*
X353427Y-49262D01*
X353640Y-49220D01*
X353853Y-49012D01*
X353987Y-48762D01*
X354013Y-48512D01*
X353960Y-48220D01*
X353773Y-48012D01*
X353587Y-47928D01*
X353347D01*
G01X353587D02*
X353747Y-47803D01*
X353880Y-47595D01*
X353933Y-47345D01*
X353880Y-47095D01*
X353747Y-46887D01*
X353507Y-46762D01*
X353267Y-46803D01*
X353027Y-46970D01*
G01X355293Y-48220D02*
X355480Y-47928D01*
X355640Y-47762D01*
X355853Y-47678D01*
X356040Y-47762D01*
X356173Y-47928D01*
X356280Y-48178D01*
X356307Y-48470D01*
X356280Y-48720D01*
X356173Y-48970D01*
X356013Y-49178D01*
X355827Y-49262D01*
X355613Y-49178D01*
X355427Y-48928D01*
X355320Y-48553D01*
X355293Y-48137D01*
X355347Y-47595D01*
X355427Y-47303D01*
X355560Y-47012D01*
X355747Y-46803D01*
X355933Y-46762D01*
X356120Y-46845D01*
X356253Y-47053D01*
G01X357693Y-47178D02*
X357853Y-46928D01*
X358040Y-46803D01*
X358253Y-46762D01*
X358520Y-46845D01*
X358707Y-47053D01*
X358760Y-47303D01*
X358733Y-47553D01*
X358627Y-47762D01*
X358093Y-48178D01*
X357853Y-48470D01*
X357693Y-48887D01*
X357640Y-49262D01*
X358760D01*
G01X345613Y-2699D02*
X345773Y-2990D01*
X345987Y-3157D01*
X346227Y-3199D01*
X346440Y-3157D01*
X346653Y-2949D01*
X346787Y-2699D01*
X346813Y-2449D01*
X346760Y-2157D01*
X346573Y-1949D01*
X346387Y-1865D01*
X346147D01*
G01X346387D02*
X346547Y-1740D01*
X346680Y-1532D01*
X346733Y-1282D01*
X346680Y-1032D01*
X346547Y-824D01*
X346307Y-699D01*
X346067Y-740D01*
X345827Y-907D01*
G01X348147Y-2907D02*
X348333Y-3115D01*
X348547Y-3199D01*
X348760Y-3115D01*
X348947Y-2865D01*
X349080Y-2490D01*
X349133Y-2115D01*
Y-1657D01*
X349080Y-1282D01*
X348947Y-949D01*
X348787Y-782D01*
X348600Y-699D01*
X348387Y-782D01*
X348227Y-949D01*
X348120Y-1199D01*
X348067Y-1532D01*
X348120Y-1824D01*
X348253Y-2115D01*
X348413Y-2282D01*
X348600Y-2324D01*
X348813Y-2240D01*
X348973Y-2032D01*
X349133Y-1657D01*
G01X351000Y-3282D02*
X350947Y-3240D01*
Y-3157D01*
X351000Y-3115D01*
X351053Y-3157D01*
Y-3240D01*
X351000Y-3282D01*
G01X352813Y-2699D02*
X352973Y-2990D01*
X353187Y-3157D01*
X353427Y-3199D01*
X353640Y-3157D01*
X353853Y-2949D01*
X353987Y-2699D01*
X354013Y-2449D01*
X353960Y-2157D01*
X353773Y-1949D01*
X353587Y-1865D01*
X353347D01*
G01X353587D02*
X353747Y-1740D01*
X353880Y-1532D01*
X353933Y-1282D01*
X353880Y-1032D01*
X353747Y-824D01*
X353507Y-699D01*
X353267Y-740D01*
X353027Y-907D01*
G01X355747Y-3199D02*
X355800Y-2657D01*
X355880Y-2199D01*
X355987Y-1782D01*
X356120Y-1324D01*
X356333Y-699D01*
X355267D01*
G01X345320Y-18553D02*
Y-16053D01*
X344333Y-17845D01*
X345667D01*
G01X347347Y-18553D02*
X347400Y-18011D01*
X347480Y-17553D01*
X347587Y-17136D01*
X347720Y-16678D01*
X347933Y-16053D01*
X346867D01*
G01X349800Y-18636D02*
X349747Y-18595D01*
Y-18511D01*
X349800Y-18470D01*
X349853Y-18511D01*
Y-18595D01*
X349800Y-18636D01*
G01X351693Y-16470D02*
X351853Y-16220D01*
X352040Y-16095D01*
X352253Y-16053D01*
X352520Y-16136D01*
X352707Y-16345D01*
X352760Y-16595D01*
X352733Y-16845D01*
X352627Y-17053D01*
X352093Y-17470D01*
X351853Y-17761D01*
X351693Y-18178D01*
X351640Y-18553D01*
X352760D01*
G01X354920D02*
Y-16053D01*
X353933Y-17845D01*
X355267D01*
G01X357320Y-18553D02*
Y-16053D01*
X356333Y-17845D01*
X357667D01*
G01X344413Y28010D02*
X344573Y27718D01*
X344787Y27552D01*
X345027Y27510D01*
X345240Y27552D01*
X345453Y27760D01*
X345587Y28010D01*
X345613Y28260D01*
X345560Y28552D01*
X345373Y28760D01*
X345187Y28843D01*
X344947D01*
G01X345187D02*
X345347Y28968D01*
X345480Y29177D01*
X345533Y29427D01*
X345480Y29677D01*
X345347Y29885D01*
X345107Y30010D01*
X344867Y29968D01*
X344627Y29802D01*
G01X347400Y27510D02*
Y30010D01*
X347080Y29510D01*
G01Y27510D02*
X347720D01*
G01X349800Y27427D02*
X349747Y27468D01*
Y27552D01*
X349800Y27593D01*
X349853Y27552D01*
Y27468D01*
X349800Y27427D01*
G01X352520Y27510D02*
Y30010D01*
X351533Y28218D01*
X352867D01*
G01X354147Y27802D02*
X354333Y27593D01*
X354547Y27510D01*
X354760Y27593D01*
X354947Y27843D01*
X355080Y28218D01*
X355133Y28593D01*
Y29052D01*
X355080Y29427D01*
X354947Y29760D01*
X354787Y29927D01*
X354600Y30010D01*
X354387Y29927D01*
X354227Y29760D01*
X354120Y29510D01*
X354067Y29177D01*
X354120Y28885D01*
X354253Y28593D01*
X354413Y28427D01*
X354600Y28385D01*
X354813Y28468D01*
X354973Y28677D01*
X355133Y29052D01*
G01X356493Y28552D02*
X356680Y28843D01*
X356840Y29010D01*
X357053Y29093D01*
X357240Y29010D01*
X357373Y28843D01*
X357480Y28593D01*
X357507Y28302D01*
X357480Y28052D01*
X357373Y27802D01*
X357213Y27593D01*
X357027Y27510D01*
X356813Y27593D01*
X356627Y27843D01*
X356520Y28218D01*
X356493Y28635D01*
X356547Y29177D01*
X356627Y29468D01*
X356760Y29760D01*
X356947Y29968D01*
X357133Y30010D01*
X357320Y29927D01*
X357453Y29718D01*
G01X344413Y12656D02*
X344573Y12364D01*
X344787Y12197D01*
X345027Y12156D01*
X345240Y12197D01*
X345453Y12406D01*
X345587Y12656D01*
X345613Y12906D01*
X345560Y13197D01*
X345373Y13406D01*
X345187Y13489D01*
X344947D01*
G01X345187D02*
X345347Y13614D01*
X345480Y13822D01*
X345533Y14072D01*
X345480Y14322D01*
X345347Y14531D01*
X345107Y14656D01*
X344867Y14614D01*
X344627Y14447D01*
G01X346813Y12530D02*
X346973Y12322D01*
X347160Y12197D01*
X347400Y12156D01*
X347640Y12239D01*
X347827Y12406D01*
X347960Y12697D01*
X347987Y13031D01*
X347933Y13364D01*
X347800Y13572D01*
X347613Y13739D01*
X347427Y13781D01*
X347240Y13739D01*
X347000Y13572D01*
X347080Y14656D01*
X347800D01*
G01X349800Y12072D02*
X349747Y12114D01*
Y12197D01*
X349800Y12239D01*
X349853Y12197D01*
Y12114D01*
X349800Y12072D01*
G01X352520Y12156D02*
Y14656D01*
X351533Y12864D01*
X352867D01*
G01X354013Y12656D02*
X354173Y12364D01*
X354387Y12197D01*
X354627Y12156D01*
X354840Y12197D01*
X355053Y12406D01*
X355187Y12656D01*
X355213Y12906D01*
X355160Y13197D01*
X354973Y13406D01*
X354787Y13489D01*
X354547D01*
G01X354787D02*
X354947Y13614D01*
X355080Y13822D01*
X355133Y14072D01*
X355080Y14322D01*
X354947Y14531D01*
X354707Y14656D01*
X354467Y14614D01*
X354227Y14447D01*
G01X356413Y12656D02*
X356573Y12364D01*
X356787Y12197D01*
X357027Y12156D01*
X357240Y12197D01*
X357453Y12406D01*
X357587Y12656D01*
X357613Y12906D01*
X357560Y13197D01*
X357373Y13406D01*
X357187Y13489D01*
X356947D01*
G01X357187D02*
X357347Y13614D01*
X357480Y13822D01*
X357533Y14072D01*
X357480Y14322D01*
X357347Y14531D01*
X357107Y14656D01*
X356867Y14614D01*
X356627Y14447D01*
G01X344413Y43364D02*
X344573Y43072D01*
X344787Y42906D01*
X345027Y42864D01*
X345240Y42906D01*
X345453Y43114D01*
X345587Y43364D01*
X345613Y43614D01*
X345560Y43906D01*
X345373Y44114D01*
X345187Y44198D01*
X344947D01*
G01X345187D02*
X345347Y44322D01*
X345480Y44531D01*
X345533Y44781D01*
X345480Y45031D01*
X345347Y45239D01*
X345107Y45364D01*
X344867Y45323D01*
X344627Y45156D01*
G01X347400Y42864D02*
Y45364D01*
X347080Y44864D01*
G01Y42864D02*
X347720D01*
G01X349800Y42781D02*
X349747Y42822D01*
Y42906D01*
X349800Y42948D01*
X349853Y42906D01*
Y42822D01*
X349800Y42781D01*
G01X352520Y42864D02*
Y45364D01*
X351533Y43572D01*
X352867D01*
G01X354147Y43156D02*
X354333Y42948D01*
X354547Y42864D01*
X354760Y42948D01*
X354947Y43198D01*
X355080Y43572D01*
X355133Y43948D01*
Y44406D01*
X355080Y44781D01*
X354947Y45114D01*
X354787Y45281D01*
X354600Y45364D01*
X354387Y45281D01*
X354227Y45114D01*
X354120Y44864D01*
X354067Y44531D01*
X354120Y44239D01*
X354253Y43948D01*
X354413Y43781D01*
X354600Y43739D01*
X354813Y43822D01*
X354973Y44031D01*
X355133Y44406D01*
G01X356493Y43906D02*
X356680Y44198D01*
X356840Y44364D01*
X357053Y44448D01*
X357240Y44364D01*
X357373Y44198D01*
X357480Y43948D01*
X357507Y43656D01*
X357480Y43406D01*
X357373Y43156D01*
X357213Y42948D01*
X357027Y42864D01*
X356813Y42948D01*
X356627Y43198D01*
X356520Y43572D01*
X356493Y43989D01*
X356547Y44531D01*
X356627Y44823D01*
X356760Y45114D01*
X356947Y45323D01*
X357133Y45364D01*
X357320Y45281D01*
X357453Y45073D01*
G01X347400Y73573D02*
Y76073D01*
X347080Y75573D01*
G01Y73573D02*
X347720D01*
G01X349293Y75656D02*
X349453Y75906D01*
X349640Y76031D01*
X349853Y76073D01*
X350120Y75990D01*
X350307Y75781D01*
X350360Y75531D01*
X350333Y75281D01*
X350227Y75073D01*
X349693Y74656D01*
X349453Y74364D01*
X349293Y73948D01*
X349240Y73573D01*
X350360D01*
G01X352200Y73490D02*
X352147Y73531D01*
Y73614D01*
X352200Y73656D01*
X352253Y73614D01*
Y73531D01*
X352200Y73490D01*
G01X354600Y76073D02*
X354387Y75990D01*
X354227Y75781D01*
X354120Y75531D01*
X354040Y75198D01*
X354013Y74823D01*
X354040Y74448D01*
X354120Y74114D01*
X354227Y73864D01*
X354387Y73656D01*
X354600Y73573D01*
X354813Y73656D01*
X354973Y73864D01*
X355080Y74114D01*
X355160Y74448D01*
X355187Y74823D01*
X355160Y75198D01*
X355080Y75531D01*
X354973Y75781D01*
X354813Y75990D01*
X354600Y76073D01*
G01X346893Y60302D02*
X347053Y60552D01*
X347240Y60677D01*
X347453Y60719D01*
X347720Y60635D01*
X347907Y60427D01*
X347960Y60177D01*
X347933Y59927D01*
X347827Y59719D01*
X347293Y59302D01*
X347053Y59010D01*
X346893Y58594D01*
X346840Y58219D01*
X347960D01*
G01X349800Y60719D02*
X349587Y60635D01*
X349427Y60427D01*
X349320Y60177D01*
X349240Y59844D01*
X349213Y59469D01*
X349240Y59094D01*
X349320Y58760D01*
X349427Y58510D01*
X349587Y58302D01*
X349800Y58219D01*
X350013Y58302D01*
X350173Y58510D01*
X350280Y58760D01*
X350360Y59094D01*
X350387Y59469D01*
X350360Y59844D01*
X350280Y60177D01*
X350173Y60427D01*
X350013Y60635D01*
X349800Y60719D01*
G01X352200Y58135D02*
X352147Y58177D01*
Y58260D01*
X352200Y58302D01*
X352253Y58260D01*
Y58177D01*
X352200Y58135D01*
G01X354600Y60719D02*
X354387Y60635D01*
X354227Y60427D01*
X354120Y60177D01*
X354040Y59844D01*
X354013Y59469D01*
X354040Y59094D01*
X354120Y58760D01*
X354227Y58510D01*
X354387Y58302D01*
X354600Y58219D01*
X354813Y58302D01*
X354973Y58510D01*
X355080Y58760D01*
X355160Y59094D01*
X355187Y59469D01*
X355160Y59844D01*
X355080Y60177D01*
X354973Y60427D01*
X354813Y60635D01*
X354600Y60719D01*
G01X337533Y88750D02*
X338200Y91250D01*
X338867Y88750D01*
G01X338627Y89625D02*
X337773D01*
G01X340067Y91250D02*
Y88750D01*
X341133D01*
G01X342467Y91250D02*
Y88750D01*
X343533D01*
G01X347213Y91250D02*
Y89458D01*
X347320Y89083D01*
X347533Y88833D01*
X347800Y88750D01*
X348067Y88833D01*
X348280Y89083D01*
X348387Y89458D01*
Y91250D01*
G01X349587Y88750D02*
Y91250D01*
X350813Y88750D01*
Y91250D01*
G01X352280D02*
X352920D01*
G01X352600D02*
Y88750D01*
G01X352280D02*
X352920D01*
G01X355000Y91250D02*
Y88750D01*
G01X354387Y91250D02*
X355613D01*
G01X356840Y89083D02*
X357053Y88875D01*
X357293Y88750D01*
X357507D01*
X357720Y88875D01*
X357880Y89083D01*
X357960Y89375D01*
X357907Y89667D01*
X357773Y89917D01*
X357533Y90083D01*
X357213Y90167D01*
X357027Y90333D01*
X356947Y90625D01*
X357000Y90917D01*
X357133Y91125D01*
X357320Y91250D01*
X357507D01*
X357693Y91167D01*
X357853Y90958D01*
G01X361533Y88750D02*
X362200Y91250D01*
X362867Y88750D01*
G01X362627Y89625D02*
X361773D01*
G01X364067Y88750D02*
Y91250D01*
X364733D01*
X364947Y91125D01*
X365080Y90958D01*
X365133Y90625D01*
X365080Y90292D01*
X364920Y90083D01*
X364733Y89958D01*
X364067D01*
G01X364733D02*
X365133Y88750D01*
G01X367533D02*
X366467D01*
Y91250D01*
X367533D01*
G01X367107Y90042D02*
X366467D01*
G01X371480Y91250D02*
X372120D01*
G01X371800D02*
Y88750D01*
G01X371480D02*
X372120D01*
G01X373587D02*
Y91250D01*
X374813Y88750D01*
Y91250D01*
G01X378307Y88750D02*
Y91250D01*
X379000Y89167D01*
X379693Y91250D01*
Y88750D01*
G01X381080Y91250D02*
X381720D01*
G01X381400D02*
Y88750D01*
G01X381080D02*
X381720D01*
G01X383267Y91250D02*
Y88750D01*
X384333D01*
G01X385640Y89083D02*
X385853Y88875D01*
X386093Y88750D01*
X386307D01*
X386520Y88875D01*
X386680Y89083D01*
X386760Y89375D01*
X386707Y89667D01*
X386573Y89917D01*
X386333Y90083D01*
X386013Y90167D01*
X385827Y90333D01*
X385747Y90625D01*
X385800Y90917D01*
X385933Y91125D01*
X386120Y91250D01*
X386307D01*
X386493Y91167D01*
X386653Y90958D01*
G01X346840Y84083D02*
X347053Y83875D01*
X347293Y83750D01*
X347507D01*
X347720Y83875D01*
X347880Y84083D01*
X347960Y84375D01*
X347907Y84667D01*
X347773Y84917D01*
X347533Y85083D01*
X347213Y85167D01*
X347027Y85333D01*
X346947Y85625D01*
X347000Y85917D01*
X347133Y86125D01*
X347320Y86250D01*
X347507D01*
X347693Y86167D01*
X347853Y85958D01*
G01X349480Y86250D02*
X350120D01*
G01X349800D02*
Y83750D01*
G01X349480D02*
X350120D01*
G01X351693Y86250D02*
X352707D01*
X351693Y83750D01*
X352707D01*
G01X355133D02*
X354067D01*
Y86250D01*
X355133D01*
G01X354707Y85042D02*
X354067D01*
G01X337613Y113750D02*
Y116250D01*
X338147D01*
X338360Y116125D01*
X338520Y115958D01*
X338653Y115708D01*
X338760Y115417D01*
X338787Y115000D01*
X338760Y114583D01*
X338653Y114292D01*
X338520Y114042D01*
X338360Y113875D01*
X338147Y113750D01*
X337613D01*
G01X340067D02*
Y116250D01*
X340733D01*
X340947Y116125D01*
X341080Y115958D01*
X341133Y115625D01*
X341080Y115292D01*
X340920Y115083D01*
X340733Y114958D01*
X340067D01*
G01X340733D02*
X341133Y113750D01*
G01X342680Y116250D02*
X343320D01*
G01X343000D02*
Y113750D01*
G01X342680D02*
X343320D01*
G01X344867Y116250D02*
Y113750D01*
X345933D01*
G01X347267Y116250D02*
Y113750D01*
X348333D01*
G01X353187Y116042D02*
X353027Y116167D01*
X352840Y116250D01*
X352627D01*
X352387Y116125D01*
X352200Y115917D01*
X352067Y115667D01*
X351960Y115250D01*
X351933Y114875D01*
X351987Y114500D01*
X352067Y114250D01*
X352227Y114000D01*
X352413Y113833D01*
X352600Y113750D01*
X352787D01*
X352973Y113833D01*
X353133Y113958D01*
X353267Y114125D01*
G01X354440Y113750D02*
Y116250D01*
G01X355560D02*
Y113750D01*
G01Y115000D02*
X354440D01*
G01X356733Y113750D02*
X357400Y116250D01*
X358067Y113750D01*
G01X357827Y114625D02*
X356973D01*
G01X359267Y113750D02*
Y116250D01*
X359933D01*
X360147Y116125D01*
X360280Y115958D01*
X360333Y115625D01*
X360280Y115292D01*
X360120Y115083D01*
X359933Y114958D01*
X359267D01*
G01X359933D02*
X360333Y113750D01*
G01X362200Y116250D02*
Y113750D01*
G01X361587Y116250D02*
X362813D01*
G01X364600Y113667D02*
X364547Y113708D01*
Y113792D01*
X364600Y113833D01*
X364653Y113792D01*
Y113708D01*
X364600Y113667D01*
G01Y114792D02*
X364547Y114833D01*
Y114917D01*
X364600Y114958D01*
X364653Y114917D01*
Y114833D01*
X364600Y114792D01*
G01X368600Y114000D02*
Y113750D01*
X368867Y113333D01*
X369933D01*
X370200Y113750D01*
Y114167D01*
X369933Y114583D01*
X368867D01*
X368600Y115000D01*
Y115417D01*
X368867Y115833D01*
X369933D01*
X370200Y115417D01*
Y115167D01*
G01X369667Y116250D02*
Y112917D01*
G01X369133D02*
Y116250D01*
G01X371213Y113750D02*
Y116250D01*
X371747D01*
X371960Y116125D01*
X372120Y115958D01*
X372253Y115708D01*
X372360Y115417D01*
X372387Y115000D01*
X372360Y114583D01*
X372253Y114292D01*
X372120Y114042D01*
X371960Y113875D01*
X371747Y113750D01*
X371213D01*
G01X373400Y116250D02*
X373773Y113750D01*
X374200Y116250D01*
X374627Y113750D01*
X375000Y116250D01*
G01X376040Y113750D02*
Y116250D01*
G01X377160D02*
Y113750D01*
G01Y115000D02*
X376040D01*
G01X379533Y113750D02*
X378467D01*
Y116250D01*
X379533D01*
G01X379107Y115042D02*
X378467D01*
G01X381933Y113750D02*
X380867D01*
Y116250D01*
X381933D01*
G01X381507Y115042D02*
X380867D01*
G01X383267Y116250D02*
Y113750D01*
X384333D01*
G01X385400Y114000D02*
Y113750D01*
X385667Y113333D01*
X386733D01*
X387000Y113750D01*
Y114167D01*
X386733Y114583D01*
X385667D01*
X385400Y115000D01*
Y115417D01*
X385667Y115833D01*
X386733D01*
X387000Y115417D01*
Y115167D01*
G01X386467Y116250D02*
Y112917D01*
G01X385933D02*
Y116250D01*
G01X375267Y-33907D02*
Y-31407D01*
X375907D01*
X376120Y-31532D01*
X376280Y-31824D01*
X376333Y-32157D01*
X376280Y-32491D01*
X376147Y-32741D01*
X375907Y-32866D01*
X375267D01*
G01X377667Y-31407D02*
Y-33907D01*
X378733D01*
G01X379933D02*
X380600Y-31407D01*
X381267Y-33907D01*
G01X381027Y-33032D02*
X380173D01*
G01X383000Y-31407D02*
Y-33907D01*
G01X382387Y-31407D02*
X383613D01*
G01X385933Y-33907D02*
X384867D01*
Y-31407D01*
X385933D01*
G01X385507Y-32616D02*
X384867D01*
G01X387213Y-33907D02*
Y-31407D01*
X387747D01*
X387960Y-31532D01*
X388120Y-31699D01*
X388253Y-31949D01*
X388360Y-32241D01*
X388387Y-32657D01*
X388360Y-33074D01*
X388253Y-33366D01*
X388120Y-33616D01*
X387960Y-33782D01*
X387747Y-33907D01*
X387213D01*
G01X375267Y-49262D02*
Y-46762D01*
X375907D01*
X376120Y-46887D01*
X376280Y-47178D01*
X376333Y-47512D01*
X376280Y-47845D01*
X376147Y-48095D01*
X375907Y-48220D01*
X375267D01*
G01X377667Y-46762D02*
Y-49262D01*
X378733D01*
G01X379933D02*
X380600Y-46762D01*
X381267Y-49262D01*
G01X381027Y-48387D02*
X380173D01*
G01X383000Y-46762D02*
Y-49262D01*
G01X382387Y-46762D02*
X383613D01*
G01X385933Y-49262D02*
X384867D01*
Y-46762D01*
X385933D01*
G01X385507Y-47970D02*
X384867D01*
G01X387213Y-49262D02*
Y-46762D01*
X387747D01*
X387960Y-46887D01*
X388120Y-47053D01*
X388253Y-47303D01*
X388360Y-47595D01*
X388387Y-48012D01*
X388360Y-48428D01*
X388253Y-48720D01*
X388120Y-48970D01*
X387960Y-49137D01*
X387747Y-49262D01*
X387213D01*
G01X375267Y-3199D02*
Y-699D01*
X375907D01*
X376120Y-824D01*
X376280Y-1115D01*
X376333Y-1449D01*
X376280Y-1782D01*
X376147Y-2032D01*
X375907Y-2157D01*
X375267D01*
G01X377667Y-699D02*
Y-3199D01*
X378733D01*
G01X379933D02*
X380600Y-699D01*
X381267Y-3199D01*
G01X381027Y-2324D02*
X380173D01*
G01X383000Y-699D02*
Y-3199D01*
G01X382387Y-699D02*
X383613D01*
G01X385933Y-3199D02*
X384867D01*
Y-699D01*
X385933D01*
G01X385507Y-1907D02*
X384867D01*
G01X387213Y-3199D02*
Y-699D01*
X387747D01*
X387960Y-824D01*
X388120Y-990D01*
X388253Y-1240D01*
X388360Y-1532D01*
X388387Y-1949D01*
X388360Y-2365D01*
X388253Y-2657D01*
X388120Y-2907D01*
X387960Y-3074D01*
X387747Y-3199D01*
X387213D01*
G01X375267Y-18553D02*
Y-16053D01*
X375907D01*
X376120Y-16178D01*
X376280Y-16470D01*
X376333Y-16803D01*
X376280Y-17136D01*
X376147Y-17386D01*
X375907Y-17511D01*
X375267D01*
G01X377667Y-16053D02*
Y-18553D01*
X378733D01*
G01X379933D02*
X380600Y-16053D01*
X381267Y-18553D01*
G01X381027Y-17678D02*
X380173D01*
G01X383000Y-16053D02*
Y-18553D01*
G01X382387Y-16053D02*
X383613D01*
G01X385933Y-18553D02*
X384867D01*
Y-16053D01*
X385933D01*
G01X385507Y-17261D02*
X384867D01*
G01X387213Y-18553D02*
Y-16053D01*
X387747D01*
X387960Y-16178D01*
X388120Y-16345D01*
X388253Y-16595D01*
X388360Y-16886D01*
X388387Y-17303D01*
X388360Y-17720D01*
X388253Y-18011D01*
X388120Y-18261D01*
X387960Y-18428D01*
X387747Y-18553D01*
X387213D01*
G01X375267Y27510D02*
Y30010D01*
X375907D01*
X376120Y29885D01*
X376280Y29593D01*
X376333Y29260D01*
X376280Y28927D01*
X376147Y28677D01*
X375907Y28552D01*
X375267D01*
G01X377667Y30010D02*
Y27510D01*
X378733D01*
G01X379933D02*
X380600Y30010D01*
X381267Y27510D01*
G01X381027Y28385D02*
X380173D01*
G01X383000Y30010D02*
Y27510D01*
G01X382387Y30010D02*
X383613D01*
G01X385933Y27510D02*
X384867D01*
Y30010D01*
X385933D01*
G01X385507Y28802D02*
X384867D01*
G01X387213Y27510D02*
Y30010D01*
X387747D01*
X387960Y29885D01*
X388120Y29718D01*
X388253Y29468D01*
X388360Y29177D01*
X388387Y28760D01*
X388360Y28343D01*
X388253Y28052D01*
X388120Y27802D01*
X387960Y27635D01*
X387747Y27510D01*
X387213D01*
G01X375267Y12156D02*
Y14656D01*
X375907D01*
X376120Y14531D01*
X376280Y14239D01*
X376333Y13906D01*
X376280Y13572D01*
X376147Y13322D01*
X375907Y13197D01*
X375267D01*
G01X377667Y14656D02*
Y12156D01*
X378733D01*
G01X379933D02*
X380600Y14656D01*
X381267Y12156D01*
G01X381027Y13031D02*
X380173D01*
G01X383000Y14656D02*
Y12156D01*
G01X382387Y14656D02*
X383613D01*
G01X385933Y12156D02*
X384867D01*
Y14656D01*
X385933D01*
G01X385507Y13447D02*
X384867D01*
G01X387213Y12156D02*
Y14656D01*
X387747D01*
X387960Y14531D01*
X388120Y14364D01*
X388253Y14114D01*
X388360Y13822D01*
X388387Y13406D01*
X388360Y12989D01*
X388253Y12697D01*
X388120Y12447D01*
X387960Y12281D01*
X387747Y12156D01*
X387213D01*
G01X375267Y42864D02*
Y45364D01*
X375907D01*
X376120Y45239D01*
X376280Y44948D01*
X376333Y44614D01*
X376280Y44281D01*
X376147Y44031D01*
X375907Y43906D01*
X375267D01*
G01X377667Y45364D02*
Y42864D01*
X378733D01*
G01X379933D02*
X380600Y45364D01*
X381267Y42864D01*
G01X381027Y43739D02*
X380173D01*
G01X383000Y45364D02*
Y42864D01*
G01X382387Y45364D02*
X383613D01*
G01X385933Y42864D02*
X384867D01*
Y45364D01*
X385933D01*
G01X385507Y44156D02*
X384867D01*
G01X387213Y42864D02*
Y45364D01*
X387747D01*
X387960Y45239D01*
X388120Y45073D01*
X388253Y44823D01*
X388360Y44531D01*
X388387Y44114D01*
X388360Y43698D01*
X388253Y43406D01*
X388120Y43156D01*
X387960Y42989D01*
X387747Y42864D01*
X387213D01*
G01X375267Y73573D02*
Y76073D01*
X375907D01*
X376120Y75948D01*
X376280Y75656D01*
X376333Y75323D01*
X376280Y74990D01*
X376147Y74739D01*
X375907Y74614D01*
X375267D01*
G01X377667Y76073D02*
Y73573D01*
X378733D01*
G01X379933D02*
X380600Y76073D01*
X381267Y73573D01*
G01X381027Y74448D02*
X380173D01*
G01X383000Y76073D02*
Y73573D01*
G01X382387Y76073D02*
X383613D01*
G01X385933Y73573D02*
X384867D01*
Y76073D01*
X385933D01*
G01X385507Y74864D02*
X384867D01*
G01X387213Y73573D02*
Y76073D01*
X387747D01*
X387960Y75948D01*
X388120Y75781D01*
X388253Y75531D01*
X388360Y75239D01*
X388387Y74823D01*
X388360Y74406D01*
X388253Y74114D01*
X388120Y73864D01*
X387960Y73698D01*
X387747Y73573D01*
X387213D01*
G01X375267Y58219D02*
Y60719D01*
X375907D01*
X376120Y60594D01*
X376280Y60302D01*
X376333Y59969D01*
X376280Y59635D01*
X376147Y59385D01*
X375907Y59260D01*
X375267D01*
G01X377667Y60719D02*
Y58219D01*
X378733D01*
G01X379933D02*
X380600Y60719D01*
X381267Y58219D01*
G01X381027Y59094D02*
X380173D01*
G01X383000Y60719D02*
Y58219D01*
G01X382387Y60719D02*
X383613D01*
G01X385933Y58219D02*
X384867D01*
Y60719D01*
X385933D01*
G01X385507Y59510D02*
X384867D01*
G01X387213Y58219D02*
Y60719D01*
X387747D01*
X387960Y60594D01*
X388120Y60427D01*
X388253Y60177D01*
X388360Y59885D01*
X388387Y59469D01*
X388360Y59052D01*
X388253Y58760D01*
X388120Y58510D01*
X387960Y58344D01*
X387747Y58219D01*
X387213D01*
G01X375267Y83750D02*
Y86250D01*
X375907D01*
X376120Y86125D01*
X376280Y85833D01*
X376333Y85500D01*
X376280Y85167D01*
X376147Y84917D01*
X375907Y84792D01*
X375267D01*
G01X377667Y86250D02*
Y83750D01*
X378733D01*
G01X379933D02*
X380600Y86250D01*
X381267Y83750D01*
G01X381027Y84625D02*
X380173D01*
G01X383000Y86250D02*
Y83750D01*
G01X382387Y86250D02*
X383613D01*
G01X385933Y83750D02*
X384867D01*
Y86250D01*
X385933D01*
G01X385507Y85042D02*
X384867D01*
G01X387213Y83750D02*
Y86250D01*
X387747D01*
X387960Y86125D01*
X388120Y85958D01*
X388253Y85708D01*
X388360Y85417D01*
X388387Y85000D01*
X388360Y84583D01*
X388253Y84292D01*
X388120Y84042D01*
X387960Y83875D01*
X387747Y83750D01*
X387213D01*
G01X401293Y-31824D02*
X401453Y-31574D01*
X401640Y-31449D01*
X401853Y-31407D01*
X402120Y-31491D01*
X402307Y-31699D01*
X402360Y-31949D01*
X402333Y-32199D01*
X402227Y-32407D01*
X401693Y-32824D01*
X401453Y-33116D01*
X401293Y-33532D01*
X401240Y-33907D01*
X402360D01*
G01X401747Y-49262D02*
X401800Y-48720D01*
X401880Y-48262D01*
X401987Y-47845D01*
X402120Y-47387D01*
X402333Y-46762D01*
X401267D01*
G01X401293Y-2157D02*
X401480Y-1865D01*
X401640Y-1699D01*
X401853Y-1615D01*
X402040Y-1699D01*
X402173Y-1865D01*
X402280Y-2115D01*
X402307Y-2407D01*
X402280Y-2657D01*
X402173Y-2907D01*
X402013Y-3115D01*
X401827Y-3199D01*
X401613Y-3115D01*
X401427Y-2865D01*
X401320Y-2490D01*
X401293Y-2074D01*
X401347Y-1532D01*
X401427Y-1240D01*
X401560Y-949D01*
X401747Y-740D01*
X401933Y-699D01*
X402120Y-782D01*
X402253Y-990D01*
G01X400093Y-16470D02*
X400253Y-16220D01*
X400440Y-16095D01*
X400653Y-16053D01*
X400920Y-16136D01*
X401107Y-16345D01*
X401160Y-16595D01*
X401133Y-16845D01*
X401027Y-17053D01*
X400493Y-17470D01*
X400253Y-17761D01*
X400093Y-18178D01*
X400040Y-18553D01*
X401160D01*
G01X402493Y-16470D02*
X402653Y-16220D01*
X402840Y-16095D01*
X403053Y-16053D01*
X403320Y-16136D01*
X403507Y-16345D01*
X403560Y-16595D01*
X403533Y-16845D01*
X403427Y-17053D01*
X402893Y-17470D01*
X402653Y-17761D01*
X402493Y-18178D01*
X402440Y-18553D01*
X403560D01*
G01X402120Y27510D02*
Y30010D01*
X401133Y28218D01*
X402467D01*
G01X401293Y14239D02*
X401453Y14489D01*
X401640Y14614D01*
X401853Y14656D01*
X402120Y14572D01*
X402307Y14364D01*
X402360Y14114D01*
X402333Y13864D01*
X402227Y13656D01*
X401693Y13239D01*
X401453Y12947D01*
X401293Y12530D01*
X401240Y12156D01*
X402360D01*
G01X400600Y42864D02*
Y45364D01*
X400280Y44864D01*
G01Y42864D02*
X400920D01*
G01X402493Y44948D02*
X402653Y45198D01*
X402840Y45323D01*
X403053Y45364D01*
X403320Y45281D01*
X403507Y45073D01*
X403560Y44823D01*
X403533Y44573D01*
X403427Y44364D01*
X402893Y43948D01*
X402653Y43656D01*
X402493Y43239D01*
X402440Y42864D01*
X403560D01*
G01X398813Y74073D02*
X398973Y73781D01*
X399187Y73614D01*
X399427Y73573D01*
X399640Y73614D01*
X399853Y73823D01*
X399987Y74073D01*
X400013Y74323D01*
X399960Y74614D01*
X399773Y74823D01*
X399587Y74906D01*
X399347D01*
G01X399587D02*
X399747Y75031D01*
X399880Y75239D01*
X399933Y75489D01*
X399880Y75740D01*
X399747Y75948D01*
X399507Y76073D01*
X399267Y76031D01*
X399027Y75864D01*
G01X401213Y73948D02*
X401373Y73739D01*
X401560Y73614D01*
X401800Y73573D01*
X402040Y73656D01*
X402227Y73823D01*
X402360Y74114D01*
X402387Y74448D01*
X402333Y74781D01*
X402200Y74990D01*
X402013Y75156D01*
X401827Y75198D01*
X401640Y75156D01*
X401400Y74990D01*
X401480Y76073D01*
X402200D01*
G01X404147Y73573D02*
X404200Y74114D01*
X404280Y74573D01*
X404387Y74990D01*
X404520Y75448D01*
X404733Y76073D01*
X403667D01*
G01X399400Y58219D02*
Y60719D01*
X399080Y60219D01*
G01Y58219D02*
X399720D01*
G01X401800D02*
Y60719D01*
X401480Y60219D01*
G01Y58219D02*
X402120D01*
G01X404200D02*
Y60719D01*
X403880Y60219D01*
G01Y58219D02*
X404520D01*
G01X399400Y83750D02*
X399187Y83792D01*
X399000Y83958D01*
X398840Y84208D01*
X398733Y84500D01*
X398680Y84833D01*
Y85167D01*
X398733Y85500D01*
X398840Y85792D01*
X399000Y86042D01*
X399187Y86208D01*
X399400Y86250D01*
X399613Y86208D01*
X399800Y86042D01*
X399960Y85792D01*
X400067Y85500D01*
X400120Y85167D01*
Y84833D01*
X400067Y84500D01*
X399960Y84208D01*
X399800Y83958D01*
X399613Y83792D01*
X399400Y83750D01*
G01X399613Y84417D02*
X399933Y83750D01*
G01X401800Y86250D02*
Y83750D01*
G01X401187Y86250D02*
X402413D01*
G01X404200Y83750D02*
Y84875D01*
X403667Y86250D01*
G01X404733D02*
X404200Y84875D01*
G54D11*
X-279528Y-82677D03*
Y102362D03*
X-102362Y-78740D03*
X38500Y102500D03*
X102362Y-78740D03*
X279528Y-82677D03*
Y102362D03*
X323800Y-48012D03*
G54D12*
X-275591Y-23622D03*
Y-33622D03*
Y-13622D03*
X275591Y-33622D03*
Y-23622D03*
Y-13622D03*
X323800Y-1949D03*
G54D13*
X-275591Y27559D03*
Y57087D03*
Y47244D03*
Y37402D03*
Y66929D03*
X27079Y-103500D03*
X17236D03*
X7394D03*
X56606D03*
X46764D03*
X36921D03*
X103394Y104000D03*
X113236D03*
X123079D03*
X132921D03*
X142764D03*
X152606D03*
X275591Y27559D03*
Y37402D03*
Y47244D03*
Y57087D03*
Y66929D03*
X323800Y-17303D03*
G54D14*
X-251500Y-81842D03*
Y-62158D03*
X-210000Y-81842D03*
Y-62158D03*
X-169000Y-81842D03*
Y-62158D03*
X165500Y-81342D03*
Y-61658D03*
X212000Y-82342D03*
Y-62658D03*
X257500Y-82842D03*
Y-63158D03*
X323800Y44114D03*
G54D15*
X-264500Y-53000D03*
Y-48500D03*
X-260500Y-53000D03*
Y-48500D03*
X-256500Y-53000D03*
Y-48500D03*
X-252000Y-53000D03*
Y-48500D03*
X-248000D03*
Y-53000D03*
X-245500Y87000D03*
X-249000D03*
X-235000Y47000D03*
X-206000Y-39000D03*
Y-35000D03*
Y-31000D03*
X-210500Y-39000D03*
Y-35000D03*
Y-31000D03*
Y-27000D03*
X-206000D03*
Y-23000D03*
X-210500D03*
X-212500Y32500D03*
X-213000Y52000D03*
X-193500Y46500D03*
X-169500Y-30000D03*
Y-34000D03*
Y-38000D03*
X-165500D03*
Y-34000D03*
Y-30500D03*
Y-26500D03*
X-169500Y-26000D03*
X-165500Y-22500D03*
X-169500D03*
X-171000Y33000D03*
X-171500Y51500D03*
X-136870Y54130D03*
X-152000Y46500D03*
X-126500Y36000D03*
X-88000Y-17500D03*
X-94500Y38000D03*
X-98000Y39500D03*
X-94500Y42500D03*
X80300Y-6500D03*
X128000Y35000D03*
X136500Y62000D03*
X147000Y-58000D03*
X161500Y-26500D03*
Y-30500D03*
Y-34000D03*
Y-38000D03*
X147500Y-8000D03*
X161500Y-22500D03*
X144000Y15500D03*
X159000D03*
X164500Y35500D03*
X151500Y44500D03*
Y49500D03*
X164500Y49000D03*
X161500Y54500D03*
X142000Y49500D03*
X157000Y62000D03*
X165500Y-38000D03*
Y-34000D03*
Y-30500D03*
Y-26500D03*
Y-22500D03*
X187000Y16000D03*
X172500Y35500D03*
X185000Y49000D03*
X178000Y61500D03*
X195500Y-57500D03*
X208500Y-28500D03*
Y-32000D03*
Y-36000D03*
X212500D03*
Y-32000D03*
Y-28500D03*
X195000Y-4500D03*
X208500Y-25000D03*
X212500D03*
Y-21500D03*
X208500D03*
X202500Y15500D03*
X209000Y34000D03*
X195000Y49000D03*
X207500Y48000D03*
X206000Y54000D03*
X214000Y35500D03*
X199000Y61500D03*
X240500Y-57500D03*
X226500Y-43000D03*
X244500D03*
X233000Y16500D03*
X237500Y44500D03*
X230000Y52500D03*
X237000Y49500D03*
X226500D03*
X242500Y62500D03*
X221000D03*
X267500Y-37000D03*
X268000Y-43000D03*
X262500Y-37500D03*
X262000Y-43000D03*
X256500D03*
X251000D03*
X253500Y39250D03*
X247500Y54500D03*
X250000Y48500D03*
X323800Y59469D03*
G54D16*
X-109500Y-110000D03*
Y-100000D03*
X101000Y-110000D03*
Y-100000D03*
X323800Y28760D03*
G54D17*
X-54405Y-108500D03*
X-42594D03*
X323800Y-32657D03*
G54D18*
X58500Y-40342D03*
Y-20657D03*
X323800Y13406D03*
G54D19*
G01X315000Y-40334D02*
X409400D01*
G01X315000Y-9626D02*
X409400D01*
G01X315000Y-24980D02*
X409400D01*
G01X315000Y21083D02*
X409400D01*
G01X315000Y5728D02*
X409400D01*
G01X315000Y51791D02*
X409400D01*
G01X315000Y36437D02*
X409400D01*
G01X315000Y67146D02*
X409400D01*
G01X315000Y92500D02*
X409400D01*
G01X315000Y87500D02*
X409400D01*
G01X315000Y82500D02*
X409400D01*
G01X332600Y87500D02*
Y-55689D01*
G01X369400Y87500D02*
Y-55689D01*
G01X394200Y87500D02*
Y-55689D01*
G01X-295276Y-118110D02*
Y118110D01*
X295276D01*
Y-118110D01*
X-295276D01*
G01X315000Y-55689D02*
Y117500D01*
X409400D01*
Y-55689D01*
X315000D01*
M02*
