G04 ================== begin FILE IDENTIFICATION RECORD ==================*
G04 Layout Name:  D:/WorkPrj/LUGGAGE/R2/AWheel/BRD/AWheel.brd*
G04 Film Name:    IN1*
G04 File Format:  Gerber RS274X*
G04 File Origin:  Cadence Allegro 16.6-2015-S088*
G04 Origin Date:  Fri Apr 27 16:37:20 2018*
G04 *
G04 Layer:  BOARD GEOMETRY/OUTLINE*
G04 Layer:  ETCH/IN1*
G04 Layer:  VIA CLASS/IN1*
G04 Layer:  PIN/IN1*
G04 *
G04 Offset:    (0.000 0.000)*
G04 Mirror:    No*
G04 Mode:      Positive*
G04 Rotation:  0*
G04 FullContactRelief:  No*
G04 UndefLineWidth:     5.000*
G04 ================== end FILE IDENTIFICATION RECORD ====================*
%FSLAX25Y25*MOIN*%
%IR0*IPPOS*OFA0.00000B0.00000*MIA0B0*SFA1.00000B1.00000*%
%ADD11C,.204724*%
%ADD15C,.03*%
%ADD10C,.024*%
%ADD14C,.059055*%
%ADD13C,.086614*%
%ADD12C,.07874*%
%ADD18C,.070866*%
%ADD16C,.062992*%
%ADD17C,.094488*%
%ADD19C,.005*%
%ADD25C,.12207*%
%ADD22C,.10087*%
%ADD27C,.040004*%
%ADD21C,.060004*%
%ADD26C,.034004*%
%ADD20C,.054004*%
%ADD24C,.08906*%
%ADD23C,.092996*%
G75*
%LPD*%
G75*
G36*
G01X196402Y60000D02*
G03X201598I2598J1500D01*
G01X219341D01*
G03X222659I1659J2500D01*
G01X240841D01*
G03X244159I1659J2500D01*
G01X257950D01*
X257954Y59803D01*
G03X263353I2700J43D01*
G01X263357Y60000D01*
X264500D01*
Y10086D01*
X268586Y6000D01*
X294500D01*
Y-117500D01*
X-294500D01*
Y8000D01*
X-268586D01*
X-265000Y11586D01*
Y54586D01*
X-263086Y56500D01*
X-205008D01*
G03X-199992I2508J1000D01*
G01X-160245D01*
G03X-155755I2245J1500D01*
G01X-136914D01*
X-135500Y55086D01*
Y14586D01*
X-130914Y10000D01*
X-119914D01*
X-97914Y-12000D01*
X85586D01*
X98586Y-25000D01*
X125914D01*
X135500Y-15414D01*
Y57086D01*
X137638Y59224D01*
G03X138736Y60000I-1138J2776D01*
G01X154764D01*
G03X159236I2236J2000D01*
G01X175402D01*
G03X180598I2598J1500D01*
G01X196402D01*
G37*
G36*
G01X-258705Y59110D02*
G03X-261602I-1448J890D01*
G02X-261942Y58500I-341J-209D01*
G01X-263914D01*
X-267000Y55414D01*
Y12414D01*
X-269414Y10000D01*
X-294500D01*
Y117500D01*
X294500D01*
Y8000D01*
X269414D01*
X266500Y10914D01*
Y60914D01*
X265414Y62000D01*
X262282D01*
G03X259024I-1629J-2153D01*
G01X245899D01*
G02X245499Y62412I0J400D01*
G03X239501I-2999J88D01*
G02X239101Y62000I-400J-12D01*
G01X224399D01*
G02X223999Y62412I0J400D01*
G03X218001I-2999J88D01*
G02X217601Y62000I-400J-12D01*
G01X201963D01*
X201928Y62156D01*
G03X201483Y63184I-2928J-656D01*
G02X201850Y63807I331J224D01*
G03X200416Y64882I150J1694D01*
G02X199921Y64355I-373J-146D01*
G03X196072Y62156I-921J-2855D01*
G01X196037Y62000D01*
X180963D01*
X180928Y62156D01*
G03X175072I-2928J-656D01*
G01X175037Y62000D01*
X160006D01*
X159994Y62188D01*
G03X159367Y63843I-2994J-187D01*
G02X159708Y64488I316J246D01*
G03X158284Y65446I107J1697D01*
G02X157815Y64887I-360J-174D01*
G03X154006Y62188I-815J-2887D01*
G01X153994Y62000D01*
X138508D01*
X138492Y62182D01*
G03X135319Y60386I-1992J-182D01*
G02X135366Y59780I-236J-323D01*
G01X133500Y57914D01*
Y-14586D01*
X125086Y-23000D01*
X99414D01*
X86414Y-10000D01*
X-97086D01*
X-119086Y12000D01*
X-130086D01*
X-133500Y15414D01*
Y55914D01*
X-136086Y58500D01*
X-155342D01*
X-155380Y58652D01*
G03X-160620I-2620J-652D01*
G01X-160658Y58500D01*
X-199992D01*
G03X-205008I-2508J-1000D01*
G01X-240140D01*
G02X-240399Y59205I0J400D01*
G03X-242601I-1101J1295D01*
G02X-242860Y58500I-259J-305D01*
G01X-258365D01*
G02X-258705Y59110I0J400D01*
G37*
%LPC*%
G75*
G36*
G01X253426Y-44764D02*
G02Y-41236I-2426J1765D01*
G03X254074I324J235D01*
G02X258926I2426J-1764D01*
G03X259574I324J235D01*
G02X260477Y-40415I2426J-1765D01*
G03X260536Y-39768I-203J345D01*
G02X264505Y-35268I1964J2268D01*
G03X265093Y-35209I267J298D01*
G02X269549Y-34809I2407J-1791D01*
G03X270218Y-34455I273J292D01*
G02X272785Y-28965I5373J833D01*
G03Y-28279I-206J343D01*
G02Y-18965I2806J4657D01*
G03Y-18279I-206J343D01*
G02X278396I2806J4657D01*
G03Y-18965I206J-343D01*
G02Y-28279I-2806J-4657D01*
G03Y-28965I206J-343D01*
G02X271220Y-36857I-2806J-4657D01*
G03X270499Y-37084I-322J-238D01*
G02X269111Y-39531I-2999J84D01*
G03X269169Y-40237I215J-338D01*
G02X265353Y-44412I-1169J-2763D01*
G03X264647I-353J-188D01*
G02X259574Y-44764I-2647J1412D01*
G03X258926I-324J-235D01*
G02X254074I-2426J1765D01*
G03X253426I-324J-235D01*
G37*
G36*
G01X104976Y-104322D02*
G03Y-104937I256J-308D01*
G02X97170I-3903J-4693D01*
G03Y-104322I-256J307D01*
G02X104976I3903J4692D01*
G37*
G36*
G01X-48143Y-111320D02*
G03X-48857I-357J-181D01*
G02Y-105680I-5549J2821D01*
G03X-48143I357J181D01*
G02Y-111320I5549J-2820D01*
G37*
G36*
G01X22473Y-107076D02*
G03X21842I-316J-245D01*
G02X12631I-4605J3576D01*
G03X11999I-316J-245D01*
G02Y-99924I-4605J3576D01*
G03X12631I316J245D01*
G02X21842I4605J-3576D01*
G03X22473I316J245D01*
G02X31684Y-99924I4605J-3576D01*
G03X32316I316J245D01*
G02Y-107076I4605J-3576D01*
G03X31684I-316J-245D01*
G02X22473Y-107076I-4605J3576D01*
G37*
G36*
G01X-258500Y-55236D02*
G02X-262500I-2000J2236D01*
G02X-266634Y-50891I-2000J2236D01*
G03Y-50609I-142J141D01*
G02X-262500Y-46264I2133J2109D01*
G02X-258500I2000J-2236D01*
G02X-254391Y-46367I2000J-2236D01*
G03X-254109I141J142D01*
G02X-250000Y-46264I2109J-2133D01*
G02X-245866Y-50609I2000J-2236D01*
G03Y-50891I142J-141D01*
G02X-250000Y-55236I-2133J-2109D01*
G02X-254109Y-55134I-2000J2236D01*
G03X-254391I-141J-142D01*
G02X-258500Y-55236I-2109J2133D01*
G37*
G36*
G01X-208109Y-41134D02*
G03X-208391I-141J-142D01*
G02X-212736Y-37000I-2109J2133D01*
G02Y-33000I2236J2000D01*
G02Y-29000I2236J2000D01*
G02Y-25000I2236J2000D01*
G02X-208391Y-20866I2236J2000D01*
G03X-208109I141J142D01*
G02X-203764Y-25000I2109J-2133D01*
G02Y-29000I-2236J-2000D01*
G02Y-33000I-2236J-2000D01*
G02Y-37000I-2236J-2000D01*
G02X-208109Y-41134I-2236J-2000D01*
G37*
G36*
G01X-163264Y-36000D02*
G02X-167500Y-40236I-2236J-2000D01*
G02X-171736Y-36000I-2000J2236D01*
G02Y-32000I2236J2000D01*
G02Y-28000I2236J2000D01*
G02X-171937Y-24250I2236J2000D01*
G02X-167500Y-20264I2437J1750D01*
G02X-163264Y-24500I2000J-2236D01*
G02Y-28500I-2236J-2000D01*
G02X-163063Y-32250I-2236J-2000D01*
G02X-163264Y-36000I-2437J-1750D01*
G37*
G36*
G01X167736D02*
G02X163500Y-40236I-2236J-2000D01*
G02X159264Y-36000I-2000J2236D01*
G02X159063Y-32250I2236J2000D01*
G02X159264Y-28500I2437J1750D01*
G02Y-24500I2236J2000D01*
G02X163500Y-20264I2236J2000D01*
G02X167736Y-24500I2000J-2236D01*
G02Y-28500I-2236J-2000D01*
G02X167937Y-32250I-2236J-2000D01*
G02X167736Y-36000I-2437J-1750D01*
G37*
G36*
G01X-272785Y-28279D02*
G03Y-28965I206J-343D01*
G02X-278396I-2806J-4657D01*
G03Y-28279I-206J343D01*
G02X-278832Y-19257I2806J4657D01*
G03X-278851Y-18601I-238J321D01*
G02X-272241Y-18660I3351J5101D01*
G03X-272271Y-19316I214J-338D01*
G02X-272785Y-28279I-3319J-4307D01*
G37*
G36*
G01X214736Y-34000D02*
G02X210500Y-38236I-2236J-2000D01*
G02X206264Y-34000I-2000J2236D01*
G02X206063Y-30250I2236J2000D01*
G02Y-26750I2437J1750D01*
G02Y-23250I2437J1750D01*
G02X210500Y-19264I2437J1750D01*
G02X214937Y-23250I2000J-2236D01*
G02Y-26750I-2437J-1750D01*
G02Y-30250I-2437J-1750D01*
G02X214736Y-34000I-2437J-1750D01*
G37*
G36*
G01X212347Y32996D02*
G03X211758Y32820I-220J-334D01*
G02X210653Y36504I-2758J1180D01*
G03X211242Y36680I220J334D01*
G02X212347Y32996I2758J-1180D01*
G37*
G36*
G01X-180903Y44323D02*
G03Y43677I237J-323D01*
G02X-184097I-1597J-2177D01*
G03Y44323I-237J323D01*
G02X-180903I1597J2177D01*
G37*
G36*
G01X-139903D02*
G03Y43677I237J-323D01*
G02X-143097I-1597J-2177D01*
G03Y44323I-237J323D01*
G02X-139903I1597J2177D01*
G37*
G36*
G01X-222403Y44823D02*
G03Y44177I237J-323D01*
G02X-225597I-1597J-2177D01*
G03Y44823I-237J323D01*
G02X-222403I1597J2177D01*
G37*
G36*
G01X196829Y46622D02*
G03X196806Y46008I244J-317D01*
G02X193194I-1806J-2008D01*
G03X193171Y46622I-268J297D01*
G02X196829I1829J2378D01*
G37*
G36*
G01X153534Y47294D02*
G03Y46706I271J-294D01*
G02X149466I-2033J-2206D01*
G03Y47294I-271J294D01*
G02X153534I2034J2206D01*
G37*
G36*
G01X239232Y47495D02*
G03X239291Y46907I298J-267D01*
G02X235268Y46505I-1791J-2407D01*
G03X235209Y47093I-298J267D01*
G02X239232Y47495I1791J2407D01*
G37*
G36*
G01X229891Y49502D02*
G03X229480Y49149I-14J-400D01*
G02X226609Y52498I-2980J351D01*
G03X227020Y52851I14J400D01*
G02X229891Y49502I2980J-351D01*
G37*
G36*
G01X-246958Y85631D02*
G03X-247542I-292J-274D01*
G02Y88369I-1458J1369D01*
G03X-246958I292J274D01*
G02Y85631I1458J-1369D01*
G37*
G36*
G01X-208671Y82811D02*
G03X-208973Y83274I-393J73D01*
G02X-206913Y84618I389J1655D01*
G03X-206611Y84155I393J-73D01*
G02X-208671Y82811I-389J-1655D01*
G37*
G36*
G01X202200Y73050D02*
G03X202676Y72669I400J12D01*
G02X201301Y70950I324J-1669D01*
G03X200824Y71331I-400J-12D01*
G02X202200Y73050I-324J1669D01*
G37*
G36*
G01X-22669Y63324D02*
G03X-23050Y63801I-393J76D01*
G02X-21331Y65176I50J1699D01*
G03X-20950Y64700I393J-76D01*
G02X-19302Y63078I-50J-1699D01*
G03X-18879Y62698I400J18D01*
G02X-20481Y60922I97J-1697D01*
G03X-20903Y61303I-400J-18D01*
G02X-22669Y63324I-97J1697D01*
G37*
G36*
G01X9957Y29157D02*
G03X9424Y29119I-245J-316D01*
G02X9243Y31642I-1223J1181D01*
G03X9776Y31681I245J316D01*
G02X10950Y32200I1224J-1181D01*
G03X11331Y32676I-12J400D01*
G02X13050Y31300I1669J324D01*
G03X12669Y30824I12J-400D01*
G02X9957Y29157I-1669J-324D01*
G37*
G36*
G01X-87714Y23810D02*
G03X-88286I-286J-280D01*
G02Y26190I-1214J1190D01*
G03X-87714I286J280D01*
G02X-85286I1214J-1190D01*
G03X-84714I286J280D01*
G02X-82286I1214J-1190D01*
G03X-81714I286J280D01*
G02X-79286I1214J-1190D01*
G03X-78714I286J280D01*
G02Y23810I1214J-1190D01*
G03X-79286I-286J-280D01*
G02X-81714I-1214J1190D01*
G03X-82286I-286J-280D01*
G02X-84714I-1214J1190D01*
G03X-85286I-286J-280D01*
G02X-87714I-1214J1190D01*
G37*
G36*
G01X27786Y-4190D02*
G03X27214I-286J-280D01*
G02Y-1810I-1214J1190D01*
G03X27786I286J280D01*
G02X30214I1214J-1190D01*
G03X30786I286J280D01*
G02X33214I1214J-1190D01*
G03X33786I286J280D01*
G02Y-4190I1214J-1190D01*
G03X33214I-286J-280D01*
G02X30786I-1214J1190D01*
G03X30214I-286J-280D01*
G02X27786I-1214J1190D01*
G37*
G36*
G01X117781Y102363D02*
G02Y105637I-4545J1637D01*
G03X118534I376J136D01*
G02X127624Y105637I4545J-1637D01*
G03X128376I376J136D01*
G02X137466Y105637I4545J-1637D01*
G03X138219I376J136D01*
G02X147309I4545J-1637D01*
G03X148061I376J136D01*
G02Y102363I4545J-1637D01*
G03X147309I-376J-136D01*
G02X138219I-4545J1637D01*
G03X137466I-376J-136D01*
G02X128376Y102363I-4545J1637D01*
G03X127624I-376J-136D01*
G02X118534Y102363I-4545J1637D01*
G03X117781I-376J-136D01*
G37*
G36*
G01X82637Y89161D02*
G02X81339Y87863I363J-1661D01*
G03X80863Y88339I-391J85D01*
G02X82161Y89637I-363J1661D01*
G03X82637Y89161I391J-85D01*
G37*
G36*
G01X80713Y75111D02*
G02X80454Y73294I1287J-1111D01*
G03X79787Y73389I-364J-166D01*
G02X80047Y75206I-1287J1111D01*
G03X80713Y75111I364J166D01*
G37*
G36*
G01X277228Y32104D02*
G02X273953I-1637J-4545D01*
G03Y32857I-136J376D01*
G02Y41946I1637J4545D01*
G03Y42699I-136J376D01*
G02Y51789I1637J4545D01*
G03Y52542I-136J376D01*
G02X277228I1637J4545D01*
G03Y51789I136J-376D01*
G02Y42699I-1637J-4545D01*
G03Y41946I136J-376D01*
G02Y32857I-1637J-4545D01*
G03Y32104I136J-376D01*
G37*
G36*
G01X-273953D02*
G02X-277228I-1637J-4545D01*
G03Y32857I-136J376D01*
G02Y41946I1637J4545D01*
G03Y42699I-136J376D01*
G02Y51789I1637J4545D01*
G03Y52542I-136J376D01*
G02X-273953I1637J4545D01*
G03Y51789I136J-376D01*
G02Y42699I-1637J-4545D01*
G03Y41946I136J-376D01*
G02Y32857I-1637J-4545D01*
G03Y32104I136J-376D01*
G37*
G36*
G01X36150Y17089D02*
G02X35684Y18720I-1650J411D01*
G03X36350Y18911I278J287D01*
G02X36810Y19714I1650J-411D01*
G03Y20286I-280J286D01*
G02X39190I1190J1214D01*
G03Y19714I280J-286D01*
G02X36816Y17280I-1190J-1214D01*
G03X36150Y17089I-278J-287D01*
G37*
G54D25*
X257573Y-83130D03*
X212073Y-82630D03*
X165573Y-81630D03*
G54D22*
X58500Y-40342D03*
G54D27*
X-126500Y36000D03*
X80300Y-6500D03*
X128000Y35000D03*
G54D21*
X253500Y39250D03*
X233000Y16500D03*
X244500Y-43000D03*
X226500D03*
X240500Y-57500D03*
X202500Y15500D03*
X195000Y-4500D03*
X195500Y-57500D03*
X185000Y49000D03*
X172500Y35500D03*
X187000Y16000D03*
X142000Y49500D03*
X164500Y35500D03*
X159000Y15500D03*
X144000D03*
X147500Y-8000D03*
X147000Y-58000D03*
X-88000Y-17500D03*
X-152000Y46500D03*
X-171000Y33000D03*
X-193500Y46500D03*
X-212500Y32500D03*
X-235000Y47000D03*
G54D26*
X-246500Y93000D03*
X-228740Y101240D03*
X-203250Y93250D03*
X-214500Y93000D03*
X-171750Y93250D03*
X-187000Y102000D03*
X-143000Y80000D03*
X-135500Y61000D03*
X-162250Y93250D03*
X-146500Y103387D03*
X-158000Y103500D03*
X-110000Y12000D03*
X-117750Y34250D03*
X-111750Y29250D03*
X-128000Y46950D03*
X-111500Y71500D03*
X-130750Y93250D03*
X-112000Y85000D03*
X-86500Y50500D03*
X-90500Y47000D03*
X-82500Y81000D03*
X-90000Y71250D03*
X-106500Y62000D03*
X-103000Y102500D03*
X-56500Y9000D03*
X-62500Y45000D03*
X-66500Y28700D03*
X-53500Y61000D03*
X-60500Y107000D03*
X-35500Y43500D03*
X-27000Y46500D03*
X-48250Y51750D03*
X-44500Y48000D03*
X-53000Y82000D03*
X-29000Y65000D03*
X-48500Y79000D03*
X-50000Y74000D03*
X-27593Y74593D03*
X-32250Y101250D03*
X-50000Y92000D03*
X-41000Y85564D03*
X-47000Y87500D03*
X-18690Y52000D03*
X-14500Y51500D03*
X-750Y37750D03*
X-9500Y61000D03*
X-9250Y72750D03*
X-14047Y60547D03*
X-9000Y77000D03*
X-6500Y82500D03*
X-13000Y82000D03*
X-1500Y91000D03*
X-15000Y102000D03*
X-10500Y101500D03*
X-20000Y83500D03*
Y96000D03*
X1500Y-500D03*
X17000Y33500D03*
X10750Y78250D03*
X2500Y88500D03*
X1500Y98500D03*
X47750Y44750D03*
X49000Y53500D03*
X46000Y75000D03*
X45500Y57000D03*
X50500Y58000D03*
X65000Y26000D03*
X60500D03*
X78500Y55000D03*
X60000Y76000D03*
X98846Y54654D03*
X89846D03*
X84846D03*
X94500D03*
X103750Y70750D03*
X86000Y73000D03*
X105000Y86500D03*
X88000Y95500D03*
X114500Y-16500D03*
X115500Y23500D03*
X119500Y32000D03*
X112750Y76250D03*
X169328Y78500D03*
X177500Y101500D03*
X188740Y89760D03*
X192500Y101500D03*
X196500Y78500D03*
X200500Y101500D03*
X208500Y102000D03*
X217760Y89760D03*
X231500Y103000D03*
X239500D03*
X225000Y103500D03*
X262500Y101500D03*
X249760Y89760D03*
X256500Y85500D03*
X-196500Y103244D03*
X-241000Y104000D03*
G54D20*
X255500Y52000D03*
X261154Y34154D03*
X252693Y31807D03*
X86000Y-103500D03*
X-95154Y-108346D03*
X-116500Y-16000D03*
X-149000Y13000D03*
X-141500Y14000D03*
X-135500Y-8500D03*
X-147000Y-56000D03*
X-164500Y33000D03*
X-178500Y13000D03*
X-175000Y-4500D03*
X-187500Y-56000D03*
X-206000Y33000D03*
X-194500Y13000D03*
X-217193Y17193D03*
X-216000Y-4000D03*
X-237000Y12500D03*
X-228000Y-56500D03*
X-247500Y33000D03*
X-256000Y42500D03*
X-255500Y33000D03*
G54D24*
X-169000Y-81842D03*
X-210000D03*
X-251500D03*
G54D23*
X-109500Y-100000D03*
Y-110000D03*
%LPD*%
G75*
G54D10*
X-276000Y-109500D03*
X-291000D03*
Y-94500D03*
Y-64000D03*
Y-48500D03*
Y-33500D03*
X-273000Y500D03*
X-291000Y-18000D03*
Y-3000D03*
X-273000Y12500D03*
X-291000D03*
Y28000D03*
Y43000D03*
X-273000Y78000D03*
X-291000Y58500D03*
Y73500D03*
X-273500Y87000D03*
X-291000Y89000D03*
X-261000Y-109500D03*
Y-94500D03*
Y-79000D03*
X-257000Y1500D03*
X-257500Y12500D03*
X-256847Y48846D03*
Y39346D03*
X-255500Y33000D03*
X-247500D03*
X-256000Y42500D03*
X-256847Y60000D03*
X-260153D03*
X-246500Y93000D03*
X-246000Y100450D03*
X-260000Y115000D03*
X-252500D03*
X-228000Y-56500D03*
X-237000Y12500D03*
X-224000Y42000D03*
Y47000D03*
X-241500Y60500D03*
X-228740Y101240D03*
X-218500Y103000D03*
X-241000Y104000D03*
Y115000D03*
X-229500D03*
X-218000D03*
X-216000Y-4000D03*
X-217193Y17193D03*
X-194500Y13000D03*
X-212500Y46000D03*
X-206000Y33000D03*
X-207000Y82500D03*
X-207500Y74500D03*
Y77500D03*
X-202500Y57500D03*
X-203250Y93250D03*
X-208584Y84929D03*
X-214500Y93000D03*
X-205000Y101450D03*
X-196500Y103244D03*
X-206500Y115000D03*
X-195000D03*
X-187500Y-56000D03*
X-175000Y-4500D03*
X-178500Y13000D03*
X-182500Y41500D03*
Y46500D03*
X-171000Y46000D03*
X-164500Y33000D03*
X-164000Y73000D03*
X-169500Y60500D03*
X-176500Y73000D03*
X-180500Y79250D03*
X-171750Y93250D03*
X-187000Y102000D03*
X-165000Y100500D03*
X-172250Y98750D03*
X-164750Y84750D03*
X-183500Y115000D03*
X-172500D03*
X-147000Y-56000D03*
X-135500Y-8500D03*
X-141500Y14000D03*
X-149000Y13000D03*
X-141500Y41500D03*
Y46500D03*
X-143000Y80000D03*
X-135500Y61000D03*
X-155000Y81500D03*
X-148000Y71950D03*
X-158000Y58000D03*
X-162250Y93250D03*
X-146500Y103387D03*
X-148500Y85000D03*
X-158000Y103500D03*
X-161000Y115000D03*
X-149500D03*
X-141500D03*
X-116500Y-19500D03*
Y-16000D03*
X-114500Y12000D03*
X-110000D03*
X-117750Y34250D03*
X-118250Y28750D03*
X-126750Y41750D03*
X-111750Y29250D03*
X-128000Y46950D03*
X-111500Y71500D03*
X-108500Y57750D03*
X-112500Y75500D03*
X-130437Y77063D03*
X-133750Y57750D03*
X-130750Y93250D03*
X-112000Y85000D03*
X-133000D03*
X-130750Y98750D03*
X-123750D03*
X-134000Y115000D03*
X-126500D03*
X-122500D03*
X-119000D03*
X-113500D03*
X-95154Y-108346D03*
X-88500Y-105500D03*
X-83500Y25000D03*
X-86500D03*
X-89500D03*
X-103500Y23500D03*
X-86500Y50500D03*
X-81000Y48500D03*
X-103500Y48000D03*
X-90500Y47000D03*
X-82500Y81000D03*
X-90000Y71250D03*
X-106500Y62000D03*
X-103000Y102500D03*
X-99200Y86700D03*
X-95500Y100500D03*
X-77500Y25000D03*
X-80500D03*
X-69000Y8000D03*
X-56500Y9000D03*
X-62500Y45000D03*
X-66500Y28700D03*
X-53500Y61000D03*
X-67500D03*
X-76000Y77000D03*
Y62000D03*
X-60500Y107000D03*
X-70902Y94598D03*
X-77500Y115500D03*
X-59500D03*
X-66000D03*
X-49000Y24500D03*
X-35500Y43500D03*
X-27000Y46500D03*
X-48250Y51750D03*
X-44500Y48000D03*
X-53000Y82000D03*
X-29000Y65000D03*
X-48500Y79000D03*
X-50000Y74000D03*
X-27593Y74593D03*
X-52000Y68500D03*
X-38000Y56000D03*
X-32250Y101250D03*
X-50000Y92000D03*
X-41000Y85564D03*
X-47000Y87500D03*
X-48500Y105500D03*
X-39000Y105000D03*
Y96000D03*
X-32250Y106750D03*
X-49000Y115300D03*
X-36500Y114500D03*
X-11000Y-94000D03*
X-18690Y52000D03*
X-14500Y51500D03*
X-750Y37750D03*
X-9000Y52000D03*
X-2500Y35000D03*
X-9500Y61000D03*
X-9250Y72750D03*
X-14047Y60547D03*
X-9000Y77000D03*
X-6500Y82500D03*
X-13000Y82000D03*
X-18783Y61000D03*
X-23000Y65500D03*
X-21000Y63000D03*
X-1500Y91000D03*
X-15000Y102000D03*
X-10500Y101500D03*
X-20000Y83500D03*
Y96000D03*
X-24500D03*
X-21000Y114500D03*
X-6000D03*
X26000Y-3000D03*
X1500Y-500D03*
X13000Y33000D03*
X11000Y30500D03*
X8200Y30300D03*
X17000Y33500D03*
X23000Y35500D03*
X9000Y55000D03*
Y34000D03*
X10750Y78250D03*
X12500Y75000D03*
X9000Y59500D03*
X2500Y88500D03*
X1500Y98500D03*
X7500Y88000D03*
X9500Y114500D03*
X24500D03*
X35000Y-3000D03*
X32000D03*
X29000D03*
X54000Y15000D03*
X46500D03*
Y22000D03*
X54000D03*
X34500Y17500D03*
X38000Y18500D03*
Y21500D03*
X47750Y44750D03*
X49000Y53500D03*
X46500Y29500D03*
X55000Y53500D03*
X33500Y55500D03*
X46000Y75000D03*
X45500Y57000D03*
X50500Y58000D03*
X39500D03*
X34000Y73000D03*
Y87000D03*
X55000Y114500D03*
X77250Y-113750D03*
X77000Y22000D03*
X65000Y26000D03*
X60500D03*
X78500Y55000D03*
X77000Y37000D03*
Y29500D03*
X76750Y44750D03*
X60000Y76000D03*
X78500Y74500D03*
X82000Y74000D03*
X82250Y64750D03*
X80500Y90000D03*
X83000Y87500D03*
X70500Y114500D03*
X86000Y-103500D03*
X103000Y26500D03*
Y18500D03*
X84500Y15000D03*
X98846Y54654D03*
X89846D03*
X84846D03*
X94500D03*
X102000Y37000D03*
Y45000D03*
X92500Y29500D03*
Y37000D03*
Y45000D03*
X84500D03*
X103750Y70750D03*
X86000Y73000D03*
X104250Y76250D03*
X105000Y86500D03*
X88000Y95500D03*
X86000Y114500D03*
X114500Y-16500D03*
Y-19500D03*
X115500Y23500D03*
X120000Y25000D03*
X126500D03*
X118500Y18500D03*
X111500Y24000D03*
X119500Y32000D03*
X118500Y50000D03*
X121500Y35000D03*
X112750Y76250D03*
X128000Y66500D03*
X159815Y66185D03*
X152500Y73500D03*
X140000Y67000D03*
X146500Y113500D03*
X154500Y114000D03*
X169328Y78500D03*
X165500Y68000D03*
X177500Y101500D03*
X188740Y89760D03*
X168500Y103000D03*
X177500Y87000D03*
X192500Y101500D03*
X169500Y114000D03*
X185000D03*
X195000Y44000D03*
X202000Y65500D03*
X203000Y71000D03*
X200500Y73000D03*
X196500Y78500D03*
X202500Y78000D03*
X201162Y80573D03*
X200500Y101500D03*
X208500Y102000D03*
X217760Y89760D03*
X200500Y88000D03*
X208500D03*
X200000Y114000D03*
X215500D03*
X240000Y80000D03*
X231500Y103000D03*
X239500D03*
X231500Y87500D03*
X239500Y88000D03*
X225000Y103500D03*
X230500Y114000D03*
X246000D03*
X270000Y-113000D03*
X261500Y-5000D03*
X254000D03*
X261500Y18500D03*
Y2500D03*
X254000D03*
Y10000D03*
X261500D03*
X269500D03*
X252693Y31807D03*
X255500Y46500D03*
X257846Y34954D03*
X261154Y34154D03*
X255500Y52000D03*
X255000Y56500D03*
X260654Y59846D03*
X262500Y101500D03*
X249760Y89760D03*
X266750Y91750D03*
X256500Y85500D03*
X261000Y114000D03*
X285000Y-113000D03*
Y-97500D03*
X291500Y-66500D03*
X285000Y-67000D03*
X291500Y-36000D03*
Y-51000D03*
Y-5500D03*
Y-20500D03*
X277000Y10000D03*
X284500D03*
X291500Y25000D03*
Y10000D03*
Y55500D03*
Y40500D03*
Y71000D03*
Y86000D03*
Y114000D03*
G54D11*
X-279528Y-82677D03*
Y102362D03*
X-102362Y-78740D03*
X38500Y102500D03*
X102362Y-78740D03*
X279528Y-82677D03*
Y102362D03*
G54D12*
X-275591Y-23622D03*
Y-33622D03*
Y-13622D03*
X275591Y-33622D03*
Y-23622D03*
Y-13622D03*
G54D13*
X-275591Y27559D03*
Y57087D03*
Y47244D03*
Y37402D03*
Y66929D03*
X27079Y-103500D03*
X17236D03*
X7394D03*
X56606D03*
X46764D03*
X36921D03*
X103394Y104000D03*
X113236D03*
X123079D03*
X132921D03*
X142764D03*
X152606D03*
X275591Y27559D03*
Y37402D03*
Y47244D03*
Y57087D03*
Y66929D03*
G54D14*
X-251500Y-81842D03*
Y-62158D03*
X-210000Y-81842D03*
Y-62158D03*
X-169000Y-81842D03*
Y-62158D03*
X165500Y-81342D03*
Y-61658D03*
X212000Y-82342D03*
Y-62658D03*
X257500Y-82842D03*
Y-63158D03*
G54D15*
X-264500Y-53000D03*
Y-48500D03*
X-260500Y-53000D03*
Y-48500D03*
X-256500Y-53000D03*
Y-48500D03*
X-252000Y-53000D03*
Y-48500D03*
X-248000D03*
Y-53000D03*
X-245500Y87000D03*
X-249000D03*
X-235000Y47000D03*
X-206000Y-39000D03*
Y-35000D03*
Y-31000D03*
X-210500Y-39000D03*
Y-35000D03*
Y-31000D03*
Y-27000D03*
X-206000D03*
Y-23000D03*
X-210500D03*
X-212500Y32500D03*
X-213000Y52000D03*
X-193500Y46500D03*
X-169500Y-30000D03*
Y-34000D03*
Y-38000D03*
X-165500D03*
Y-34000D03*
Y-30500D03*
Y-26500D03*
X-169500Y-26000D03*
X-165500Y-22500D03*
X-169500D03*
X-171000Y33000D03*
X-171500Y51500D03*
X-136870Y54130D03*
X-152000Y46500D03*
X-126500Y36000D03*
X-88000Y-17500D03*
X-94500Y38000D03*
X-98000Y39500D03*
X-94500Y42500D03*
X80300Y-6500D03*
X128000Y35000D03*
X136500Y62000D03*
X147000Y-58000D03*
X161500Y-26500D03*
Y-30500D03*
Y-34000D03*
Y-38000D03*
X147500Y-8000D03*
X161500Y-22500D03*
X144000Y15500D03*
X159000D03*
X164500Y35500D03*
X151500Y44500D03*
Y49500D03*
X164500Y49000D03*
X161500Y54500D03*
X142000Y49500D03*
X157000Y62000D03*
X165500Y-38000D03*
Y-34000D03*
Y-30500D03*
Y-26500D03*
Y-22500D03*
X187000Y16000D03*
X172500Y35500D03*
X185000Y49000D03*
X178000Y61500D03*
X195500Y-57500D03*
X208500Y-28500D03*
Y-32000D03*
Y-36000D03*
X212500D03*
Y-32000D03*
Y-28500D03*
X195000Y-4500D03*
X208500Y-25000D03*
X212500D03*
Y-21500D03*
X208500D03*
X202500Y15500D03*
X209000Y34000D03*
X195000Y49000D03*
X207500Y48000D03*
X206000Y54000D03*
X214000Y35500D03*
X199000Y61500D03*
X240500Y-57500D03*
X226500Y-43000D03*
X244500D03*
X233000Y16500D03*
X237500Y44500D03*
X230000Y52500D03*
X237000Y49500D03*
X226500D03*
X242500Y62500D03*
X221000D03*
X267500Y-37000D03*
X268000Y-43000D03*
X262500Y-37500D03*
X262000Y-43000D03*
X256500D03*
X251000D03*
X253500Y39250D03*
X247500Y54500D03*
X250000Y48500D03*
G54D16*
X-109500Y-110000D03*
Y-100000D03*
X101000Y-110000D03*
Y-100000D03*
G54D17*
X-54405Y-108500D03*
X-42594D03*
G54D18*
X58500Y-40342D03*
Y-20657D03*
G54D19*
G01X-295276Y-118110D02*
Y118110D01*
X295276D01*
Y-118110D01*
X-295276D01*
M02*
