G04 ================== begin FILE IDENTIFICATION RECORD ==================*
G04 Layout Name:  D:/WorkPrj/LUGGAGE/R2/AWheel/BRD/AWheel.brd*
G04 Film Name:    IN2*
G04 File Format:  Gerber RS274X*
G04 File Origin:  Cadence Allegro 16.6-2015-S088*
G04 Origin Date:  Fri Apr 27 16:37:20 2018*
G04 *
G04 Layer:  BOARD GEOMETRY/OUTLINE*
G04 Layer:  ETCH/IN2*
G04 Layer:  PIN/IN2*
G04 Layer:  VIA CLASS/IN2*
G04 *
G04 Offset:    (0.000 0.000)*
G04 Mirror:    No*
G04 Mode:      Positive*
G04 Rotation:  0*
G04 FullContactRelief:  No*
G04 UndefLineWidth:     5.000*
G04 ================== end FILE IDENTIFICATION RECORD ====================*
%FSLAX25Y25*MOIN*%
%IR0*IPPOS*OFA0.00000B0.00000*MIA0B0*SFA1.00000B1.00000*%
%ADD11C,.204724*%
%ADD15C,.03*%
%ADD10C,.024*%
%ADD14C,.059055*%
%ADD13C,.086614*%
%ADD12C,.07874*%
%ADD18C,.070866*%
%ADD16C,.062992*%
%ADD17C,.094488*%
%ADD19C,.008*%
%ADD20C,.01*%
%ADD21C,.02*%
%ADD22C,.04*%
%ADD23C,.005*%
G75*
%LPD*%
G75*
G36*
G01X-100000Y44000D02*
Y36500D01*
X-99500Y36000D01*
X-93000D01*
X-92000Y37000D01*
Y44000D01*
X-92500Y44500D01*
X-99500D01*
X-100000Y44000D01*
G37*
G36*
G01X40000Y23000D02*
X32000D01*
X31500Y22500D01*
Y500D01*
X31000Y0D01*
X25000D01*
X24500Y-500D01*
Y-4000D01*
X25000Y-4500D01*
X39500D01*
X40500Y-3500D01*
Y22500D01*
X40000Y23000D01*
G37*
G54D10*
X-276000Y-109500D03*
X-291000D03*
Y-94500D03*
Y-64000D03*
Y-48500D03*
Y-33500D03*
X-273000Y500D03*
X-291000Y-18000D03*
Y-3000D03*
X-273000Y12500D03*
X-291000D03*
Y28000D03*
Y43000D03*
X-273000Y78000D03*
X-291000Y58500D03*
Y73500D03*
X-273500Y87000D03*
X-291000Y89000D03*
X-261000Y-109500D03*
Y-94500D03*
Y-79000D03*
X-257000Y1500D03*
X-257500Y12500D03*
X-256847Y48846D03*
Y39346D03*
X-255500Y33000D03*
X-247500D03*
X-256000Y42500D03*
X-256847Y60000D03*
X-260153D03*
X-246500Y93000D03*
X-246000Y100450D03*
X-260000Y115000D03*
X-252500D03*
X-228000Y-56500D03*
X-237000Y12500D03*
X-224000Y42000D03*
Y47000D03*
X-241500Y60500D03*
X-228740Y101240D03*
X-218500Y103000D03*
X-241000Y104000D03*
Y115000D03*
X-229500D03*
X-218000D03*
X-216000Y-4000D03*
X-217193Y17193D03*
X-194500Y13000D03*
X-212500Y46000D03*
X-206000Y33000D03*
X-207000Y82500D03*
X-207500Y74500D03*
Y77500D03*
X-202500Y57500D03*
X-203250Y93250D03*
X-208584Y84929D03*
X-214500Y93000D03*
X-205000Y101450D03*
X-196500Y103244D03*
X-206500Y115000D03*
X-195000D03*
X-187500Y-56000D03*
X-175000Y-4500D03*
X-178500Y13000D03*
X-182500Y41500D03*
Y46500D03*
X-171000Y46000D03*
X-164500Y33000D03*
X-164000Y73000D03*
X-169500Y60500D03*
X-176500Y73000D03*
X-180500Y79250D03*
X-171750Y93250D03*
X-187000Y102000D03*
X-165000Y100500D03*
X-172250Y98750D03*
X-164750Y84750D03*
X-183500Y115000D03*
X-172500D03*
X-147000Y-56000D03*
X-135500Y-8500D03*
X-141500Y14000D03*
X-149000Y13000D03*
X-141500Y41500D03*
Y46500D03*
X-143000Y80000D03*
X-135500Y61000D03*
X-155000Y81500D03*
X-148000Y71950D03*
X-158000Y58000D03*
X-162250Y93250D03*
X-146500Y103387D03*
X-148500Y85000D03*
X-158000Y103500D03*
X-161000Y115000D03*
X-149500D03*
X-141500D03*
X-116500Y-19500D03*
Y-16000D03*
X-114500Y12000D03*
X-110000D03*
X-117750Y34250D03*
X-118250Y28750D03*
X-126750Y41750D03*
X-111750Y29250D03*
X-128000Y46950D03*
X-111500Y71500D03*
X-108500Y57750D03*
X-112500Y75500D03*
X-130437Y77063D03*
X-133750Y57750D03*
X-130750Y93250D03*
X-112000Y85000D03*
X-133000D03*
X-130750Y98750D03*
X-123750D03*
X-134000Y115000D03*
X-126500D03*
X-122500D03*
X-119000D03*
X-113500D03*
X-95154Y-108346D03*
X-88500Y-105500D03*
X-83500Y25000D03*
X-86500D03*
X-89500D03*
X-103500Y23500D03*
X-86500Y50500D03*
X-81000Y48500D03*
X-103500Y48000D03*
X-90500Y47000D03*
X-82500Y81000D03*
X-90000Y71250D03*
X-106500Y62000D03*
X-103000Y102500D03*
X-99200Y86700D03*
X-95500Y100500D03*
X-77500Y25000D03*
X-80500D03*
X-69000Y8000D03*
X-56500Y9000D03*
X-62500Y45000D03*
X-66500Y28700D03*
X-53500Y61000D03*
X-67500D03*
X-76000Y77000D03*
Y62000D03*
X-60500Y107000D03*
X-70902Y94598D03*
X-77500Y115500D03*
X-59500D03*
X-66000D03*
X-49000Y24500D03*
X-35500Y43500D03*
X-27000Y46500D03*
X-48250Y51750D03*
X-44500Y48000D03*
X-53000Y82000D03*
X-29000Y65000D03*
X-48500Y79000D03*
X-50000Y74000D03*
X-27593Y74593D03*
X-52000Y68500D03*
X-38000Y56000D03*
X-32250Y101250D03*
X-50000Y92000D03*
X-41000Y85564D03*
X-47000Y87500D03*
X-48500Y105500D03*
X-39000Y105000D03*
Y96000D03*
X-32250Y106750D03*
X-49000Y115300D03*
X-36500Y114500D03*
X-11000Y-94000D03*
X-18690Y52000D03*
X-14500Y51500D03*
X-750Y37750D03*
X-9000Y52000D03*
X-2500Y35000D03*
X-9500Y61000D03*
X-9250Y72750D03*
X-14047Y60547D03*
X-9000Y77000D03*
X-6500Y82500D03*
X-13000Y82000D03*
X-18783Y61000D03*
X-23000Y65500D03*
X-21000Y63000D03*
X-1500Y91000D03*
X-15000Y102000D03*
X-10500Y101500D03*
X-20000Y83500D03*
Y96000D03*
X-24500D03*
X-21000Y114500D03*
X-6000D03*
X26000Y-3000D03*
X1500Y-500D03*
X13000Y33000D03*
X11000Y30500D03*
X8200Y30300D03*
X17000Y33500D03*
X23000Y35500D03*
X9000Y55000D03*
Y34000D03*
X10750Y78250D03*
X12500Y75000D03*
X9000Y59500D03*
X2500Y88500D03*
X1500Y98500D03*
X7500Y88000D03*
X9500Y114500D03*
X24500D03*
X35000Y-3000D03*
X32000D03*
X29000D03*
X54000Y15000D03*
X46500D03*
Y22000D03*
X54000D03*
X34500Y17500D03*
X38000Y18500D03*
Y21500D03*
X47750Y44750D03*
X49000Y53500D03*
X46500Y29500D03*
X55000Y53500D03*
X33500Y55500D03*
X46000Y75000D03*
X45500Y57000D03*
X50500Y58000D03*
X39500D03*
X34000Y73000D03*
Y87000D03*
X55000Y114500D03*
X77250Y-113750D03*
X77000Y22000D03*
X65000Y26000D03*
X60500D03*
X78500Y55000D03*
X77000Y37000D03*
Y29500D03*
X76750Y44750D03*
X60000Y76000D03*
X78500Y74500D03*
X82000Y74000D03*
X82250Y64750D03*
X80500Y90000D03*
X83000Y87500D03*
X70500Y114500D03*
X86000Y-103500D03*
X103000Y26500D03*
Y18500D03*
X84500Y15000D03*
X98846Y54654D03*
X89846D03*
X84846D03*
X94500D03*
X102000Y37000D03*
Y45000D03*
X92500Y29500D03*
Y37000D03*
Y45000D03*
X84500D03*
X103750Y70750D03*
X86000Y73000D03*
X104250Y76250D03*
X105000Y86500D03*
X88000Y95500D03*
X86000Y114500D03*
X114500Y-16500D03*
Y-19500D03*
X115500Y23500D03*
X120000Y25000D03*
X126500D03*
X118500Y18500D03*
X111500Y24000D03*
X119500Y32000D03*
X118500Y50000D03*
X121500Y35000D03*
X112750Y76250D03*
X128000Y66500D03*
X159815Y66185D03*
X152500Y73500D03*
X140000Y67000D03*
X146500Y113500D03*
X154500Y114000D03*
X169328Y78500D03*
X165500Y68000D03*
X177500Y101500D03*
X188740Y89760D03*
X168500Y103000D03*
X177500Y87000D03*
X192500Y101500D03*
X169500Y114000D03*
X185000D03*
X195000Y44000D03*
X202000Y65500D03*
X203000Y71000D03*
X200500Y73000D03*
X196500Y78500D03*
X202500Y78000D03*
X201162Y80573D03*
X200500Y101500D03*
X208500Y102000D03*
X217760Y89760D03*
X200500Y88000D03*
X208500D03*
X200000Y114000D03*
X215500D03*
X240000Y80000D03*
X231500Y103000D03*
X239500D03*
X231500Y87500D03*
X239500Y88000D03*
X225000Y103500D03*
X230500Y114000D03*
X246000D03*
X270000Y-113000D03*
X261500Y-5000D03*
X254000D03*
X261500Y18500D03*
Y2500D03*
X254000D03*
Y10000D03*
X261500D03*
X269500D03*
X252693Y31807D03*
X255500Y46500D03*
X257846Y34954D03*
X261154Y34154D03*
X255500Y52000D03*
X255000Y56500D03*
X260654Y59846D03*
X262500Y101500D03*
X249760Y89760D03*
X266750Y91750D03*
X256500Y85500D03*
X261000Y114000D03*
X285000Y-113000D03*
Y-97500D03*
X291500Y-66500D03*
X285000Y-67000D03*
X291500Y-36000D03*
Y-51000D03*
Y-5500D03*
Y-20500D03*
X277000Y10000D03*
X284500D03*
X291500Y25000D03*
Y10000D03*
Y55500D03*
Y40500D03*
Y71000D03*
Y86000D03*
Y114000D03*
G54D20*
G01X-66500Y28700D02*
Y41000D01*
X-62500Y45000D01*
G01X231500Y103000D02*
X235000Y106500D01*
X257500D01*
X262500Y101500D01*
G54D11*
X-279528Y-82677D03*
Y102362D03*
X-102362Y-78740D03*
X38500Y102500D03*
X102362Y-78740D03*
X279528Y-82677D03*
Y102362D03*
G54D21*
G01X-275591Y-33622D02*
X-247000Y-5031D01*
Y17000D01*
X-235000Y29000D01*
Y47000D01*
G01X-247500Y33000D02*
Y54500D01*
X-241500Y60500D01*
G01X-237000Y12500D02*
Y-47500D01*
X-228000Y-56500D01*
G01X-194500Y13000D02*
Y-49000D01*
X-187500Y-56000D01*
G01X-217193Y17193D02*
Y-2807D01*
X-216000Y-4000D01*
G01X-206000Y-23000D02*
Y16500D01*
X-193500Y29000D01*
Y46500D01*
G01X-202500Y57500D02*
Y36500D01*
X-206000Y33000D01*
G01X-178500Y13000D02*
Y-1000D01*
X-175000Y-4500D01*
G01X-165500Y-22500D02*
X-160000Y-17000D01*
Y14500D01*
X-152000Y22500D01*
Y46500D01*
G01X-158000Y58000D02*
Y39500D01*
X-164500Y33000D01*
G01X-149000Y13000D02*
Y-54000D01*
X-147000Y-56000D01*
G01X-141500Y14000D02*
Y-2500D01*
X-135500Y-8500D01*
G01X128000Y35000D02*
Y53500D01*
X136500Y62000D01*
G01X165500Y-22500D02*
Y-19200D01*
X167500Y-17200D01*
Y21500D01*
X165500Y23500D01*
X144500D01*
X142000Y26000D01*
Y49500D01*
G01X157000Y62000D02*
Y48500D01*
X164500Y41000D01*
Y35500D01*
G01X208500Y-21500D02*
Y-18200D01*
X212500Y-14200D01*
Y19000D01*
X207000Y24500D01*
X188500D01*
X185000Y28000D01*
Y49000D01*
G01X172500Y35500D02*
Y56000D01*
X178000Y61500D01*
G01X199000D02*
Y52500D01*
X203500Y48000D01*
Y39500D01*
X209000Y34000D01*
G01X214000Y35500D02*
Y55500D01*
X221000Y62500D01*
G01X275591Y-33622D02*
X245500Y-3531D01*
Y20000D01*
X241000Y24500D01*
X229000D01*
X226500Y27000D01*
Y49500D01*
G01X242500Y62500D02*
Y44500D01*
X247750Y39250D01*
X253500D01*
G01X252693Y31807D02*
X234193D01*
X230000Y36000D01*
Y52500D01*
G54D12*
X-275591Y-23622D03*
Y-33622D03*
Y-13622D03*
X275591Y-33622D03*
Y-23622D03*
Y-13622D03*
G54D22*
G01X-88000Y-17500D02*
Y-19000D01*
X-42594Y-64405D01*
Y-108500D01*
G01X46764Y-103500D02*
Y-96260D01*
X31004Y-80500D01*
X-5500D01*
X-94500Y8500D01*
Y38000D01*
G01X80300Y-6500D02*
Y-18542D01*
X58500Y-40342D01*
G01X147000Y-58000D02*
X141172Y-52172D01*
Y6172D01*
X144000Y9000D01*
Y15500D01*
G01X159000D02*
Y3500D01*
X147500Y-8000D01*
G01X187000Y16000D02*
Y-49000D01*
X195500Y-57500D01*
G01X202500Y15500D02*
Y3000D01*
X195000Y-4500D01*
G01X233000Y16500D02*
Y-50000D01*
X240500Y-57500D01*
G54D13*
X-275591Y27559D03*
Y57087D03*
Y47244D03*
Y37402D03*
Y66929D03*
X27079Y-103500D03*
X17236D03*
X7394D03*
X56606D03*
X46764D03*
X36921D03*
X103394Y104000D03*
X113236D03*
X123079D03*
X132921D03*
X142764D03*
X152606D03*
X275591Y27559D03*
Y37402D03*
Y47244D03*
Y57087D03*
Y66929D03*
G54D23*
G01X-295276Y-118110D02*
Y118110D01*
X295276D01*
Y-118110D01*
X-295276D01*
G54D14*
X-251500Y-81842D03*
Y-62158D03*
X-210000Y-81842D03*
Y-62158D03*
X-169000Y-81842D03*
Y-62158D03*
X165500Y-81342D03*
Y-61658D03*
X212000Y-82342D03*
Y-62658D03*
X257500Y-82842D03*
Y-63158D03*
G54D15*
X-264500Y-53000D03*
Y-48500D03*
X-260500Y-53000D03*
Y-48500D03*
X-256500Y-53000D03*
Y-48500D03*
X-252000Y-53000D03*
Y-48500D03*
X-248000D03*
Y-53000D03*
X-245500Y87000D03*
X-249000D03*
X-235000Y47000D03*
X-206000Y-39000D03*
Y-35000D03*
Y-31000D03*
X-210500Y-39000D03*
Y-35000D03*
Y-31000D03*
Y-27000D03*
X-206000D03*
Y-23000D03*
X-210500D03*
X-212500Y32500D03*
X-213000Y52000D03*
X-193500Y46500D03*
X-169500Y-30000D03*
Y-34000D03*
Y-38000D03*
X-165500D03*
Y-34000D03*
Y-30500D03*
Y-26500D03*
X-169500Y-26000D03*
X-165500Y-22500D03*
X-169500D03*
X-171000Y33000D03*
X-171500Y51500D03*
X-136870Y54130D03*
X-152000Y46500D03*
X-126500Y36000D03*
X-88000Y-17500D03*
X-94500Y38000D03*
X-98000Y39500D03*
X-94500Y42500D03*
X80300Y-6500D03*
X128000Y35000D03*
X136500Y62000D03*
X147000Y-58000D03*
X161500Y-26500D03*
Y-30500D03*
Y-34000D03*
Y-38000D03*
X147500Y-8000D03*
X161500Y-22500D03*
X144000Y15500D03*
X159000D03*
X164500Y35500D03*
X151500Y44500D03*
Y49500D03*
X164500Y49000D03*
X161500Y54500D03*
X142000Y49500D03*
X157000Y62000D03*
X165500Y-38000D03*
Y-34000D03*
Y-30500D03*
Y-26500D03*
Y-22500D03*
X187000Y16000D03*
X172500Y35500D03*
X185000Y49000D03*
X178000Y61500D03*
X195500Y-57500D03*
X208500Y-28500D03*
Y-32000D03*
Y-36000D03*
X212500D03*
Y-32000D03*
Y-28500D03*
X195000Y-4500D03*
X208500Y-25000D03*
X212500D03*
Y-21500D03*
X208500D03*
X202500Y15500D03*
X209000Y34000D03*
X195000Y49000D03*
X207500Y48000D03*
X206000Y54000D03*
X214000Y35500D03*
X199000Y61500D03*
X240500Y-57500D03*
X226500Y-43000D03*
X244500D03*
X233000Y16500D03*
X237500Y44500D03*
X230000Y52500D03*
X237000Y49500D03*
X226500D03*
X242500Y62500D03*
X221000D03*
X267500Y-37000D03*
X268000Y-43000D03*
X262500Y-37500D03*
X262000Y-43000D03*
X256500D03*
X251000D03*
X253500Y39250D03*
X247500Y54500D03*
X250000Y48500D03*
G54D16*
X-109500Y-110000D03*
Y-100000D03*
X101000Y-110000D03*
Y-100000D03*
G54D17*
X-54405Y-108500D03*
X-42594D03*
G54D18*
X58500Y-40342D03*
Y-20657D03*
G54D19*
G01X-241000Y104000D02*
X-247000D01*
X-265500Y85500D01*
Y43000D01*
X-255500Y33000D01*
G01X-196500Y103244D02*
X-202244Y97500D01*
X-249000D01*
X-263000Y83500D01*
Y49500D01*
X-256000Y42500D01*
G01X-158000Y103500D02*
X-171500Y90000D01*
X-252000D01*
X-260153Y81846D01*
Y60000D01*
G01X-182500Y46500D02*
Y48900D01*
X-184100Y50500D01*
X-194848D01*
X-198000Y47348D01*
Y32500D01*
X-203000Y27500D01*
X-226500D01*
X-228000Y29000D01*
Y43000D01*
X-224000Y47000D01*
G01Y42000D02*
X-219500Y46500D01*
Y61500D01*
X-212500Y68500D01*
X-59000D01*
X-48500Y79000D01*
G01X-50000Y92000D02*
X-69000Y111000D01*
X-216500D01*
X-226260Y101240D01*
X-228740D01*
G01X-182500Y41500D02*
X-178000Y46000D01*
Y59000D01*
X-172000Y65000D01*
X-59000D01*
X-50000Y74000D01*
G01X-182500Y46500D02*
X-185500Y43500D01*
Y39000D01*
X-184000Y37500D01*
X-166500D01*
X-164000Y40000D01*
Y60500D01*
X-161803Y62697D01*
X-137197D01*
X-135500Y61000D01*
G01X-47000Y87500D02*
X-50000D01*
X-71000Y108500D01*
X-180500D01*
X-187000Y102000D01*
G01X-27593Y74593D02*
X-47686Y54500D01*
X-128500D01*
X-141500Y41500D01*
G01Y46500D02*
Y55000D01*
X-135500Y61000D01*
G01X-41000Y85564D02*
X-42697Y83867D01*
X-50367D01*
X-72500Y106000D01*
X-143887D01*
X-146500Y103387D01*
G01X-117750Y34250D02*
X-124500Y27500D01*
Y-47000D01*
X-117500Y-54000D01*
X-90000D01*
X-86500Y-57500D01*
Y-92000D01*
X-104500Y-110000D01*
X-109500D01*
G01X-95154Y-108346D02*
X-83700Y-96893D01*
Y-57800D01*
X-90500Y-51000D01*
X-116000D01*
X-122500Y-44500D01*
Y13500D01*
X-107000Y29000D01*
Y49700D01*
X-106200Y50500D01*
X-86500D01*
G01X-116500Y-19500D02*
X-114100D01*
X-113600Y-19000D01*
X-107652D01*
X-104000Y-15348D01*
Y16500D01*
X-105500Y18000D01*
X-111500D01*
X-113500Y16000D01*
Y13000D01*
X-114500Y12000D01*
G01X-116500Y-16000D02*
X-114100D01*
X-113100Y-17000D01*
X-108000D01*
X-106000Y-15000D01*
Y15000D01*
X-107000Y16000D01*
X-110500D01*
X-111500Y15000D01*
Y13500D01*
X-110000Y12000D01*
G01X-111750Y29250D02*
X-113500Y31000D01*
Y41000D01*
X-119450Y46950D01*
X-128000D01*
G01X-135500Y61000D02*
X-107500D01*
X-106500Y62000D01*
G01X-90500Y47000D02*
Y43000D01*
X-56500Y9000D01*
G01X-20000Y83500D02*
X-22000Y81500D01*
X-50000D01*
X-60250Y71250D01*
X-90000D01*
G01X-56500Y9000D02*
X-8000D01*
X1500Y-500D01*
G01X-44500Y48000D02*
Y30152D01*
X-41348Y27000D01*
X28500D01*
X35750Y34250D01*
X80750D01*
X95000Y20000D01*
Y-55000D01*
X86000Y-64000D01*
Y-103500D01*
G01X98846Y54654D02*
X92193Y48000D01*
X67500D01*
X59000Y39500D01*
X5500D01*
X4500Y40500D01*
X-32500D01*
X-35500Y43500D01*
G01X-9250Y72750D02*
X-25250D01*
X-35000Y63000D01*
Y54500D01*
X-39000Y50500D01*
Y34652D01*
X-35848Y31500D01*
X-1000D01*
X4500Y37000D01*
X13500D01*
X17000Y33500D01*
G01X94500Y54654D02*
X89846Y50000D01*
X65500D01*
X57300Y41800D01*
X6200D01*
X4500Y43500D01*
X-30500D01*
X-32500Y45500D01*
Y61500D01*
X-29000Y65000D01*
G01X-13000Y82000D02*
X-15500Y79500D01*
X-35000D01*
X-53500Y61000D01*
G01X-9500D02*
X-500Y52000D01*
X40500D01*
X45500Y57000D01*
G01X-18690Y52000D02*
X-14190Y47500D01*
X43000D01*
X49000Y53500D01*
G01X-14047Y60547D02*
X-18094Y56500D01*
X-20848D01*
X-27000Y50348D01*
Y46500D01*
G01X50500Y58000D02*
X48803Y56303D01*
X48303D01*
X41500Y49500D01*
X-12500D01*
X-14500Y51500D01*
G01X-18783Y61000D02*
X-16283Y63500D01*
X76500D01*
X86000Y73000D01*
G01X78500Y74500D02*
X73000Y69000D01*
X-19500D01*
X-23000Y65500D01*
G01X82000Y74000D02*
X74500Y66500D01*
X-17500D01*
X-21000Y63000D01*
G01X151500Y44500D02*
X148000Y48000D01*
Y71500D01*
X140000Y79500D01*
X29500D01*
X15500Y93500D01*
X-6500D01*
X-15000Y102000D01*
G01X195000Y44000D02*
X192000Y47000D01*
Y75500D01*
X186000Y81500D01*
X31000D01*
X17000Y95500D01*
X-4500D01*
X-10500Y101500D01*
G01X151500Y49500D02*
X155500Y45500D01*
Y41500D01*
X154500Y40500D01*
X147500D01*
X146000Y42000D01*
Y52500D01*
X144000Y54500D01*
X135800D01*
X135000Y53700D01*
Y29500D01*
X134000Y28500D01*
X117500D01*
X110000Y36000D01*
Y70000D01*
X106500Y73500D01*
X101000D01*
X97000Y77500D01*
X71000D01*
X65500Y72000D01*
X40000D01*
X35500Y76500D01*
X28500D01*
X20500Y84500D01*
X2000D01*
X-2000Y88500D01*
X-12500D01*
X-20000Y96000D01*
G01X65000Y26000D02*
Y23600D01*
X64500Y23100D01*
Y16652D01*
X67652Y13500D01*
X77000D01*
X90500Y0D01*
Y-43500D01*
X71500Y-62500D01*
Y-109000D01*
X65500Y-115000D01*
X34500D01*
X30434Y-110934D01*
Y-106856D01*
X27079Y-103500D01*
G01X1500Y98500D02*
X17500D01*
X32500Y83500D01*
X217000D01*
X240000Y60500D01*
Y47000D01*
X237500Y44500D01*
G01X60500Y26000D02*
X62197Y24303D01*
Y15303D01*
X66000Y11500D01*
X76000D01*
X88500Y-1000D01*
Y-42500D01*
X69500Y-61500D01*
Y-108000D01*
X64500Y-113000D01*
X35773D01*
X32621Y-109848D01*
Y-107800D01*
X36921Y-103500D01*
G01X49000Y53500D02*
X52500Y50000D01*
X59500D01*
X61500Y52000D01*
X87193D01*
X89846Y54654D01*
G01X60000Y76000D02*
X47000D01*
X46000Y75000D01*
G01X84846Y54654D02*
X81500Y58000D01*
X50500D01*
G01X80500Y90000D02*
X86500D01*
X89000Y92500D01*
X215020D01*
X217760Y89760D01*
G01X101000Y-100000D02*
X88000Y-87000D01*
Y-65000D01*
X98500Y-54500D01*
Y48500D01*
X103750Y53750D01*
Y70750D01*
G01X115500Y23500D02*
X113684Y21684D01*
Y19684D01*
X109500Y15500D01*
Y-16500D01*
X110066Y-17066D01*
X111434D01*
X112000Y-16500D01*
X114500D01*
G01X111500Y24000D02*
Y20000D01*
X107500Y16000D01*
Y-17000D01*
X109500Y-19000D01*
X111500D01*
X112000Y-19500D01*
X114500D01*
G01X88000Y95500D02*
X244020D01*
X249760Y89760D01*
G01X83000Y87500D02*
X87740D01*
X90000Y89760D01*
X188740D01*
G01X112750Y76250D02*
Y38750D01*
X119500Y32000D01*
G01X151500Y49500D02*
Y63000D01*
X154685Y66185D01*
X159815D01*
G01D02*
X162500Y63500D01*
X171500D01*
X175000Y67000D01*
X185500D01*
X188135Y64365D01*
Y42865D01*
X190000Y41000D01*
X197500D01*
X198500Y42000D01*
Y45500D01*
X195000Y49000D01*
G01X237000Y49500D02*
Y59000D01*
X228000Y68000D01*
X197000D01*
X195000Y66000D01*
Y49000D01*
G01X192500Y101500D02*
X196000Y98000D01*
X252000D01*
X265000Y85000D01*
Y56000D01*
X261000Y52000D01*
X255500D01*
G01X225000Y103500D02*
X228500Y100000D01*
X253000D01*
X267500Y85500D01*
Y40500D01*
X261154Y34154D01*
G01X260654Y59846D02*
Y81346D01*
X256500Y85500D01*
M02*
