G04 ================== begin FILE IDENTIFICATION RECORD ==================*
G04 Layout Name:  D:/WorkPrj/LUGGAGE/R2/AWheel/BRD/AWheel.brd*
G04 Film Name:    TOP*
G04 File Format:  Gerber RS274X*
G04 File Origin:  Cadence Allegro 16.6-2015-S088*
G04 Origin Date:  Fri Apr 27 16:37:20 2018*
G04 *
G04 Layer:  VIA CLASS/TOP*
G04 Layer:  PIN/TOP*
G04 Layer:  ETCH/TOP*
G04 Layer:  BOARD GEOMETRY/OUTLINE*
G04 *
G04 Offset:    (0.000 0.000)*
G04 Mirror:    No*
G04 Mode:      Positive*
G04 Rotation:  0*
G04 FullContactRelief:  No*
G04 UndefLineWidth:     5.000*
G04 ================== end FILE IDENTIFICATION RECORD ====================*
%FSLAX25Y25*MOIN*%
%IR0*IPPOS*OFA0.00000B0.00000*MIA0B0*SFA1.00000B1.00000*%
%ADD29R,.119X.099*%
%ADD11C,.23622*%
%ADD21R,.059055X.110236*%
%ADD33R,.23622X.07874*%
%ADD48R,.009843X.01378*%
%ADD19R,.01378X.009843*%
%ADD35R,.129921X.062992*%
%ADD45O,.026X.07*%
%ADD34R,.062X.05*%
%ADD18R,.032X.035*%
%ADD27R,.035X.032*%
%ADD15C,.03*%
%ADD25R,.055X.045*%
%ADD47R,.045X.055*%
%ADD10C,.024*%
%ADD42R,.048X.071*%
%ADD44R,.06X.06*%
%ADD23R,.061024X.023622*%
%ADD24R,.043307X.023622*%
%ADD40R,.047244X.011811*%
%ADD39R,.011811X.047244*%
%ADD43R,.401575X.362205*%
%ADD22R,.049213X.048031*%
%ADD26R,.048031X.049213*%
%ADD17C,.03937*%
%ADD38R,.11811X.295276*%
%ADD14C,.059055*%
%ADD13C,.086614*%
%ADD30R,.03937X.021654*%
%ADD12C,.07874*%
%ADD49R,.021654X.03937*%
%ADD46C,.070866*%
%ADD31R,.035433X.031496*%
%ADD41R,.07874X.051181*%
%ADD28C,.062992*%
%ADD20R,.248031X.251969*%
%ADD37C,.094488*%
%ADD16R,.047244X.044882*%
%ADD32R,.059059X.059059*%
%ADD36R,.047244X.066929*%
%ADD50C,.008*%
%ADD51C,.01*%
%ADD52C,.02*%
%ADD53C,.012*%
%ADD54C,.04*%
%ADD55C,.005*%
%ADD56R,.045004X.042004*%
%ADD57R,.058004X.081004*%
G75*
%LPD*%
G75*
G36*
G01X-106000Y115500D02*
Y105000D01*
X-107500Y103500D01*
X-142500D01*
X-145500Y106500D01*
X-249000D01*
X-250000Y105500D01*
Y91500D01*
X-251000Y90500D01*
X-253000D01*
X-253500Y90000D01*
Y76000D01*
X-255000Y74500D01*
X-280500D01*
X-282000Y73000D01*
Y18500D01*
X-281000Y17500D01*
X-252000D01*
X-250500Y16000D01*
Y-1500D01*
X-252500Y-3500D01*
X-281000D01*
X-282500Y-5000D01*
Y-59500D01*
X-281000Y-61000D01*
X-259500D01*
X-258500Y-62000D01*
Y-115000D01*
X-259500Y-116000D01*
X-291500D01*
X-294000Y-113500D01*
Y114500D01*
X-291500Y117000D01*
X-107500D01*
X-106000Y115500D01*
G37*
G36*
G01X-235500Y-62500D02*
X-244000D01*
X-245000Y-61500D01*
Y-56500D01*
X-246000Y-55500D01*
X-279000D01*
X-279500Y-55000D01*
Y-30000D01*
X-279000Y-29500D01*
X-245500D01*
X-245000Y-29000D01*
Y-21500D01*
X-244500Y-21000D01*
X-219000D01*
X-218500Y-21500D01*
Y-46500D01*
X-219000Y-47000D01*
X-234500D01*
X-235000Y-47500D01*
Y-62000D01*
X-235500Y-62500D01*
G37*
G36*
G01X-121000Y-116500D02*
X-254000D01*
X-254500Y-116000D01*
Y-70000D01*
X-253500Y-69000D01*
X-218500D01*
X-218000Y-69500D01*
Y-95000D01*
X-218500Y-95500D01*
X-243500D01*
X-244000Y-95000D01*
Y-83500D01*
X-244500Y-83000D01*
X-247500D01*
X-248000Y-83500D01*
Y-99500D01*
X-247500Y-100000D01*
X-215000D01*
X-213500Y-98500D01*
Y-69500D01*
X-212500Y-68500D01*
X-177000D01*
X-176500Y-69000D01*
Y-93500D01*
X-177500Y-94500D01*
X-202500D01*
X-203000Y-94000D01*
Y-83000D01*
X-203500Y-82500D01*
X-206500D01*
X-207500Y-83500D01*
Y-98500D01*
X-206500Y-99500D01*
X-173000D01*
X-172000Y-98500D01*
Y-69000D01*
X-171500Y-68500D01*
X-137000D01*
X-136500Y-69000D01*
Y-94000D01*
X-137000Y-94500D01*
X-162000D01*
X-163000Y-93500D01*
Y-83000D01*
X-163500Y-82500D01*
X-165500D01*
X-166000Y-83000D01*
Y-98500D01*
X-165000Y-99500D01*
X-133000D01*
X-131500Y-98000D01*
Y-46500D01*
X-130500Y-45500D01*
X-97500D01*
X-84500Y-32500D01*
X52500D01*
X53500D01*
X54500Y-33500D01*
X57500Y-36500D01*
X59500D01*
X62500Y-33500D01*
X87500D01*
X127000D01*
X127500Y-34000D01*
Y-45000D01*
Y-99500D01*
X128500Y-100500D01*
X163000D01*
X163500Y-100000D01*
Y-84500D01*
X163000Y-84000D01*
X158500D01*
X158000Y-84500D01*
Y-95500D01*
X157000Y-96500D01*
X132000D01*
X131500Y-96000D01*
Y-69500D01*
X132000Y-69000D01*
X168500D01*
X169000Y-69500D01*
Y-100000D01*
X169500Y-100500D01*
X209500D01*
X210000Y-100000D01*
Y-85500D01*
X209500Y-85000D01*
X205500D01*
X205000Y-85500D01*
Y-95500D01*
X204000Y-96500D01*
X179500D01*
X179000Y-96000D01*
Y-69500D01*
X179500Y-69000D01*
X214500D01*
X215000Y-69500D01*
Y-100000D01*
X215500Y-100500D01*
X255000D01*
X255500Y-100000D01*
Y-86000D01*
X255000Y-85500D01*
X251000D01*
X250500Y-86000D01*
Y-95500D01*
X249500Y-96500D01*
X226000D01*
X225000Y-95500D01*
Y-69500D01*
X225500Y-69000D01*
X261500D01*
X262500Y-70000D01*
Y-115500D01*
X261500Y-116500D01*
X117500D01*
X116500Y-115500D01*
Y-63500D01*
X115500Y-62500D01*
X88500D01*
X87500Y-61500D01*
Y-49000D01*
X86500Y-48000D01*
X74000D01*
X67500Y-41500D01*
X62500D01*
X62000Y-42000D01*
X71500Y-51500D01*
X84500D01*
X85000Y-52000D01*
Y-62500D01*
Y-64500D01*
Y-88500D01*
X83500Y-90000D01*
X44000D01*
X43000Y-89000D01*
Y-54500D01*
Y-53500D01*
Y-52000D01*
X44000Y-51000D01*
X56500D01*
X57500Y-50000D01*
Y-44000D01*
X57000Y-43500D01*
X49500D01*
X39500Y-53500D01*
X34000D01*
X-81000D01*
X-91000Y-63500D01*
X-118000D01*
X-119000Y-64500D01*
Y-114500D01*
X-121000Y-116500D01*
G37*
G36*
G01X-229000Y84500D02*
Y82500D01*
X-229500Y82000D01*
X-236000D01*
X-237000Y81000D01*
X-246000D01*
X-247000Y80000D01*
X-250500D01*
X-251000Y80500D01*
Y88500D01*
X-250500Y89000D01*
X-238500D01*
X-234500Y85000D01*
X-230000D01*
X-229500D01*
X-229000Y84500D01*
G37*
G36*
G01X-251000Y79000D02*
Y73500D01*
X-250500Y73000D01*
X-237500D01*
X-237000Y73500D01*
Y77500D01*
X-236500Y78000D01*
X-216500D01*
X-216000Y77500D01*
Y73000D01*
X-215500Y72500D01*
X-205500D01*
X-205000Y73000D01*
Y80000D01*
X-205500Y80500D01*
X-217500D01*
X-218000Y81000D01*
X-236000D01*
X-237500Y79500D01*
X-250500D01*
X-251000Y79000D01*
G37*
G36*
G01X-231000Y-15000D02*
X-244500D01*
X-245500Y-14000D01*
Y8000D01*
X-244000Y9500D01*
X-104000D01*
X-103000Y8500D01*
Y-13500D01*
X-104000Y-14500D01*
X-131500D01*
X-132500Y-13500D01*
Y-1500D01*
X-133500Y-500D01*
X-148000D01*
X-149000Y-1500D01*
Y-14000D01*
X-150000Y-15000D01*
X-161500D01*
X-162500Y-14000D01*
Y-2000D01*
X-164000Y-500D01*
X-188500D01*
X-189500Y-1500D01*
Y-14000D01*
X-190500Y-15000D01*
X-201500D01*
X-202500Y-14000D01*
Y-2000D01*
X-203500Y-1000D01*
X-229500D01*
X-230000Y-1500D01*
Y-14000D01*
X-231000Y-15000D01*
G37*
G36*
G01X-223500Y85000D02*
Y82500D01*
X-223000Y82000D01*
X-217500D01*
X-216500Y81000D01*
X-206000D01*
X-205500Y81500D01*
Y86000D01*
X-206000Y86500D01*
X-217000D01*
X-218000Y85500D01*
X-223000D01*
X-223500Y85000D01*
G37*
G36*
G01X-195500Y-62000D02*
X-204000D01*
X-205000Y-61000D01*
Y-58500D01*
X-206000Y-57500D01*
X-213000D01*
X-213500Y-57000D01*
Y-21500D01*
X-212500Y-20500D01*
X-177000D01*
X-176000Y-21500D01*
Y-46000D01*
X-177000Y-47000D01*
X-189000D01*
X-194500D01*
X-195000Y-47500D01*
Y-61500D01*
X-195500Y-62000D01*
G37*
G36*
G01X-137500Y-20000D02*
X-172000D01*
X-172500Y-20500D01*
Y-56000D01*
X-171500Y-57000D01*
X-165000D01*
X-164500Y-57500D01*
Y-62500D01*
X-164000Y-63000D01*
X-156000D01*
X-155000Y-62000D01*
Y-47500D01*
X-154000Y-46500D01*
X-137500D01*
X-136500Y-45500D01*
Y-21000D01*
X-137500Y-20000D01*
G37*
G36*
G01X-171500Y83000D02*
Y90000D01*
X-170500Y91000D01*
X-131000D01*
X-128000Y88000D01*
Y72000D01*
X-128500Y71500D01*
X-132000D01*
X-132500Y72000D01*
Y78500D01*
X-133000Y79000D01*
X-140000D01*
X-140500Y79500D01*
Y82000D01*
X-141000Y82500D01*
X-145500D01*
X-146000Y82000D01*
Y72000D01*
X-145500Y71500D01*
X-141500D01*
X-141000Y71000D01*
Y65000D01*
X-141500Y64500D01*
X-160000D01*
X-161000Y63500D01*
Y55500D01*
X-162000Y54500D01*
X-178000D01*
X-179000Y55500D01*
Y74500D01*
X-178000Y75500D01*
X-167000D01*
X-166500Y76000D01*
Y81500D01*
X-167500Y82500D01*
X-171000D01*
X-171500Y83000D01*
G37*
G36*
G01X-132000Y-42500D02*
X-133000Y-41500D01*
Y-22000D01*
X-132500Y-21500D01*
X-78000D01*
X-75500Y-19000D01*
Y-9000D01*
X-75000Y-8500D01*
X-66000D01*
X-65500Y-9000D01*
Y-10500D01*
X-64000Y-12000D01*
X16000D01*
X51000D01*
X53500D01*
X55000D01*
X60000Y-17000D01*
X62000D01*
X67000Y-12000D01*
X88000D01*
X96500Y-20500D01*
X125500D01*
X126000Y-21000D01*
Y-30500D01*
X125500Y-31000D01*
X70000D01*
X63500Y-24500D01*
X48000D01*
X42000Y-30500D01*
X6500D01*
X-87000D01*
X-99000Y-42500D01*
X-132000D01*
G37*
G36*
G01X-99500Y7500D02*
Y-3000D01*
X-98000Y-4500D01*
X-91500D01*
X-91000Y-5000D01*
Y-14500D01*
X-90500Y-15000D01*
X-85000D01*
X-84500Y-14500D01*
Y-5000D01*
X-83500Y-4000D01*
X-75000D01*
X-74000Y-3000D01*
Y7500D01*
X-74500Y8000D01*
X-99000D01*
X-99500Y7500D01*
G37*
G36*
G01X-99000Y15000D02*
X-75000D01*
X-74500Y15500D01*
Y23500D01*
Y25500D01*
X-73000Y27000D01*
X-51000D01*
X-50500Y27500D01*
X-42000D01*
X-41000Y26500D01*
Y17500D01*
X-40500Y17000D01*
X-36000D01*
X-35500Y17500D01*
Y30500D01*
X-36000Y31000D01*
X-66000D01*
X-68500Y33500D01*
X-99000D01*
X-99500Y33000D01*
Y15500D01*
X-99000Y15000D01*
G37*
G36*
G01X-83000Y73500D02*
Y46500D01*
X-82500Y46000D01*
X-74000D01*
X-73500Y46500D01*
Y55000D01*
X-72500Y56000D01*
X-65500D01*
X-65000Y55500D01*
Y53000D01*
X-64500Y52500D01*
X-61500D01*
X-61000Y53000D01*
Y64000D01*
X-59000Y66000D01*
X-46500D01*
X-46000Y66500D01*
Y71000D01*
X-46500Y71500D01*
X-52500D01*
X-53000Y72000D01*
Y79000D01*
X-53500Y79500D01*
X-79500D01*
X-80000Y79000D01*
Y74500D01*
X-80500Y74000D01*
X-82500D01*
X-83000Y73500D01*
G37*
G36*
G01X-35000Y12000D02*
X-40000D01*
X-40500Y11500D01*
Y-10500D01*
X-39500Y-11500D01*
X41500D01*
X42500Y-10500D01*
Y12000D01*
X42000Y12500D01*
X29500D01*
X29000Y13000D01*
Y22500D01*
X28500Y23000D01*
X6500D01*
X5500Y24000D01*
Y32000D01*
X5000Y32500D01*
X-25500D01*
X-26000Y33000D01*
Y38000D01*
X-26500Y38500D01*
X-67500D01*
X-73000Y44000D01*
X-95500D01*
X-96000Y43500D01*
Y43000D01*
X-96500Y42500D01*
X-99000D01*
X-99500Y42000D01*
Y36500D01*
X-99000Y36000D01*
X-95500D01*
X-73000D01*
X-72500Y35500D01*
X-67000D01*
X-63500Y32000D01*
X-34500D01*
X-34000Y31500D01*
Y28000D01*
X-33500Y27500D01*
X-500D01*
X0Y27000D01*
Y6500D01*
X500Y6000D01*
X37000D01*
X38000Y5000D01*
Y-5000D01*
X37500Y-5500D01*
X-34000D01*
X-34500Y-5000D01*
Y11500D01*
X-35000Y12000D01*
G37*
G36*
G01X103000Y52000D02*
X76000D01*
X75000Y51000D01*
Y45500D01*
X74500Y45000D01*
X70000D01*
X69500Y44500D01*
Y24500D01*
X68500Y23500D01*
X56000D01*
X55500Y24000D01*
Y42000D01*
X55000Y42500D01*
X44000D01*
X43500Y43000D01*
Y77500D01*
X44000Y78000D01*
X51500D01*
X52000Y78500D01*
Y86000D01*
X52500Y86500D01*
X56000D01*
X56500Y87000D01*
Y103000D01*
X57500Y104000D01*
X77000D01*
X78000Y103000D01*
Y99000D01*
X78500Y98500D01*
X87000D01*
X88000Y99500D01*
Y116500D01*
X87500Y117000D01*
X-54000D01*
X-84500D01*
X-85000Y116500D01*
Y111000D01*
X-84500Y110500D01*
X-70000D01*
X-69000Y109500D01*
X-64000D01*
X-63500Y110000D01*
X-59000D01*
X-58000Y109000D01*
Y102000D01*
X-58500Y101500D01*
X-71500D01*
X-72000Y101000D01*
Y89500D01*
X-71000Y88500D01*
X-54500D01*
X-54000Y89000D01*
Y94500D01*
X-53750Y94750D01*
X-50250D01*
X-44500Y89000D01*
X-31000D01*
X-30500Y89500D01*
Y98500D01*
X-31000Y99000D01*
X-35500D01*
X-36000Y99500D01*
Y109500D01*
X-35000Y110500D01*
X-20500D01*
X-19500Y109500D01*
Y106000D01*
X-18500Y105000D01*
X12000D01*
X12500Y104500D01*
Y95500D01*
X13500Y94500D01*
X26500D01*
X31500Y89500D01*
X35000D01*
X36000Y88500D01*
Y51000D01*
X35500Y50500D01*
X20500D01*
X20000Y50000D01*
Y33000D01*
X20500Y32500D01*
X44500D01*
X45000Y32000D01*
Y6500D01*
X45500Y6000D01*
X75500D01*
X94500D01*
X95500Y7000D01*
Y13000D01*
X96000Y13500D01*
X131000D01*
X131500Y14000D01*
Y30500D01*
X131000Y31000D01*
X123000D01*
X121500Y29500D01*
X119000D01*
X118500Y29000D01*
Y21500D01*
X118000Y21000D01*
X109000D01*
X108000Y22000D01*
Y33000D01*
X107500Y33500D01*
X104000D01*
X103500Y34000D01*
Y51500D01*
X103000Y52000D01*
G37*
G36*
G01X-50000Y-104000D02*
Y-114000D01*
X-51500Y-115500D01*
X-76500D01*
X-77500Y-114500D01*
Y-57000D01*
X-76000Y-55500D01*
X-45000D01*
X20500D01*
X22000Y-57000D01*
Y-83000D01*
X20500Y-84500D01*
X-30000D01*
X-36000D01*
X-48500D01*
X-49000Y-84000D01*
X-60000D01*
X-61000Y-85000D01*
Y-101000D01*
X-59000Y-103000D01*
X-51000D01*
X-50000Y-104000D01*
G37*
G36*
G01X-29000Y-116000D02*
X17500D01*
X20000D01*
X20500Y-115500D01*
Y-98500D01*
X19500Y-97500D01*
X500D01*
X-4500Y-102500D01*
X-16000D01*
X-19000Y-99500D01*
X-29500D01*
X-47000D01*
X-47500Y-100000D01*
Y-114500D01*
X-46000Y-116000D01*
X-29000D01*
G37*
G36*
G01X-40000Y15500D02*
Y13000D01*
X-39500Y12500D01*
X-34500D01*
X-34000Y12000D01*
Y-4500D01*
X-33500Y-5000D01*
X-21500D01*
X-21000Y-4500D01*
Y26000D01*
X-21500Y26500D01*
X-33500D01*
X-34000Y26000D01*
Y16500D01*
X-34500Y16000D01*
X-39500D01*
X-40000Y15500D01*
G37*
G36*
G01X-14000Y26000D02*
Y-4000D01*
X-13500Y-4500D01*
X36000D01*
X37000Y-3500D01*
Y3500D01*
X36000Y4500D01*
X0D01*
X-1000Y5500D01*
Y26000D01*
X-1500Y26500D01*
X-13500D01*
X-14000Y26000D01*
G37*
G36*
G01X6500Y31500D02*
Y25500D01*
X7500Y24500D01*
X31000D01*
X31500Y25000D01*
X35000D01*
X35500Y25500D01*
Y30500D01*
X16000D01*
X15000Y31500D01*
Y34500D01*
X14500Y35000D01*
X11500D01*
X11000Y34500D01*
Y32500D01*
X10500Y32000D01*
X7000D01*
X6500Y31500D01*
G37*
G36*
G01X12000Y79402D02*
Y91500D01*
X13500Y93000D01*
X26000D01*
X31000Y88000D01*
X35000D01*
X35500Y87500D01*
Y52500D01*
X34000Y51000D01*
X6000D01*
X5500Y51500D01*
Y68847D01*
X14679D01*
Y61076D01*
X20479D01*
Y68847D01*
X22760D01*
X24128Y67479D01*
Y61076D01*
X25828D01*
Y57525D01*
X25911Y57442D01*
G02X25770Y57100I-141J-141D01*
G01X25000D01*
Y52900D01*
X29500D01*
Y57100D01*
X28450D01*
Y58297D01*
X28228Y58519D01*
Y61076D01*
X29928D01*
Y69176D01*
X25825D01*
X23754Y71247D01*
X15366D01*
G02X15083Y71930I0J400D01*
G01X18779Y75627D01*
Y76824D01*
X20479D01*
Y84924D01*
X18779D01*
Y86400D01*
X22500D01*
Y90600D01*
X18000D01*
Y88063D01*
G02X17317Y87780I-400J0D01*
G01X17000Y88097D01*
Y90600D01*
X12500D01*
Y86400D01*
X15303D01*
X16148Y85554D01*
Y85404D01*
X16287Y85266D01*
G02X16146Y84924I-141J-141D01*
G01X14679D01*
Y76824D01*
X15616D01*
G02X15899Y76141I0J-400D01*
G01X12974Y73216D01*
X5500D01*
Y75000D01*
X6000Y75500D01*
X11000D01*
X12000Y76500D01*
Y77098D01*
G03Y79402I-1250J1152D01*
G37*
G36*
G01X39500Y23500D02*
X31000D01*
X30500Y23000D01*
Y16000D01*
X31500Y15000D01*
X39000D01*
X40000Y16000D01*
Y23000D01*
X39500Y23500D01*
G37*
G36*
G01X97000Y11000D02*
Y-14000D01*
X98000Y-15000D01*
X137500D01*
X139000Y-13500D01*
Y-1000D01*
X140000Y0D01*
X167000D01*
X168000Y-1000D01*
Y-14000D01*
X168500Y-14500D01*
X185500D01*
X186500Y-13500D01*
Y-500D01*
X187000Y0D01*
X215500D01*
X216000Y-500D01*
Y-14000D01*
X216500Y-14500D01*
X230500D01*
X231500Y-13500D01*
Y11500D01*
X231000Y12000D01*
X98000D01*
X97000Y11000D01*
G37*
G36*
G01X266500Y-116500D02*
X265000Y-115000D01*
Y-74000D01*
X265500Y-73500D01*
Y-68000D01*
X263000Y-65500D01*
Y-52000D01*
X263500Y-51500D01*
X281500D01*
X283000Y-50000D01*
Y-6500D01*
X282000Y-5500D01*
X269000D01*
X267500Y-7000D01*
Y-15000D01*
X266000Y-16500D01*
X253500D01*
X252500Y-15500D01*
Y19500D01*
X254000Y21000D01*
X288000D01*
X290000Y23000D01*
Y81000D01*
X289000Y82000D01*
X260500D01*
X260000Y82500D01*
Y91500D01*
X259500Y92000D01*
X254500D01*
X254000Y92500D01*
Y94500D01*
X254500Y95000D01*
X258500D01*
X259500Y94000D01*
X265500D01*
X266000Y94500D01*
Y107000D01*
X265000Y108000D01*
X204000D01*
X200500Y104500D01*
X174500D01*
X174000Y104000D01*
Y94500D01*
X174500Y94000D01*
X179500D01*
X180500Y95000D01*
X186000D01*
X186500Y94500D01*
Y92500D01*
X186000Y92000D01*
X180500D01*
X180000Y91500D01*
Y87000D01*
X179000Y86000D01*
X174500D01*
X171000Y89500D01*
X148000D01*
X147000Y88500D01*
Y84000D01*
X146500Y83500D01*
X114000D01*
X108000Y89500D01*
X99500D01*
X99000Y90000D01*
Y107000D01*
X100500Y108500D01*
X106500D01*
X108000Y107000D01*
Y98500D01*
X108500Y98000D01*
X158000D01*
X159000Y99000D01*
Y109500D01*
X158000Y110500D01*
X143500D01*
X143000Y111000D01*
Y116500D01*
X144000Y117500D01*
X292000D01*
X294500Y115000D01*
Y-115000D01*
X293000Y-116500D01*
X266500D01*
G37*
G36*
G01X139500Y-64000D02*
X132500D01*
X131500Y-63000D01*
Y-21000D01*
X132500Y-20000D01*
X168000D01*
X169000Y-21000D01*
Y-46000D01*
X168000Y-47000D01*
X140500D01*
X140000Y-47500D01*
Y-63500D01*
X139500Y-64000D01*
G37*
G36*
G01X191500Y-63000D02*
X179000D01*
X178500Y-62500D01*
Y-20500D01*
X179500Y-19500D01*
X214500D01*
X216000Y-21000D01*
Y-45500D01*
X215000Y-46500D01*
X192500D01*
X192000Y-47000D01*
Y-62500D01*
X191500Y-63000D01*
G37*
G36*
G01X209500Y74000D02*
X200000D01*
X199500Y73500D01*
Y64500D01*
X200500Y63500D01*
X208500D01*
X209000Y64000D01*
Y68000D01*
X210000Y69000D01*
X210500Y69500D01*
X217500D01*
X218000Y70000D01*
Y73500D01*
X217500Y74000D01*
X209500D01*
G37*
G36*
G01Y76500D02*
X204000D01*
X200000D01*
X199500Y77000D01*
Y85000D01*
X200000Y85500D01*
X204000D01*
X222500D01*
X223000Y85000D01*
Y77500D01*
X223500Y77000D01*
X229500D01*
X230000Y77500D01*
Y81000D01*
X230500Y81500D01*
X244000D01*
X245000Y80500D01*
Y75500D01*
X244500Y75000D01*
X240000D01*
X230500D01*
X229500Y74000D01*
X221500D01*
X221000Y74500D01*
Y81000D01*
X220500Y81500D01*
X210500D01*
X210000Y81000D01*
Y77000D01*
X209500Y76500D01*
G37*
G36*
G01X234500Y-63500D02*
X225000D01*
X224000Y-62500D01*
Y-21000D01*
X225000Y-20000D01*
X254000D01*
X263000Y-29000D01*
X263500Y-29500D01*
X279000D01*
X279500Y-30000D01*
Y-45000D01*
X278500Y-46000D01*
X235500D01*
X235000Y-46500D01*
Y-63000D01*
X234500Y-63500D01*
G37*
G36*
G01X223500Y73000D02*
Y69000D01*
X224000Y68500D01*
X245500D01*
X250500D01*
X262000D01*
X262500Y69000D01*
Y69500D01*
Y75000D01*
X263500Y76000D01*
X282500D01*
X283000Y75500D01*
Y32500D01*
X282500Y32000D01*
X272500D01*
X271500Y31000D01*
Y24000D01*
X272000Y23500D01*
X288500D01*
X289000Y24000D01*
Y80500D01*
X288500Y81000D01*
X259000D01*
X258500Y80500D01*
Y74000D01*
X258000Y73500D01*
X250000D01*
X224000D01*
X223500Y73000D01*
G37*
%LPC*%
G75*
G54D56*
X21750Y55000D03*
G54D57*
X27028Y80874D03*
%LPD*%
G75*
G54D10*
X-276000Y-109500D03*
X-291000D03*
Y-94500D03*
Y-64000D03*
Y-48500D03*
Y-33500D03*
X-273000Y500D03*
X-291000Y-18000D03*
Y-3000D03*
X-273000Y12500D03*
X-291000D03*
Y28000D03*
Y43000D03*
X-273000Y78000D03*
X-291000Y58500D03*
Y73500D03*
X-273500Y87000D03*
X-291000Y89000D03*
X-261000Y-109500D03*
Y-94500D03*
Y-79000D03*
X-257000Y1500D03*
X-257500Y12500D03*
X-256847Y48846D03*
Y39346D03*
X-255500Y33000D03*
X-247500D03*
X-256000Y42500D03*
X-256847Y60000D03*
X-260153D03*
X-246500Y93000D03*
X-246000Y100450D03*
X-260000Y115000D03*
X-252500D03*
X-228000Y-56500D03*
X-237000Y12500D03*
X-224000Y42000D03*
Y47000D03*
X-241500Y60500D03*
X-228740Y101240D03*
X-218500Y103000D03*
X-241000Y104000D03*
Y115000D03*
X-229500D03*
X-218000D03*
X-216000Y-4000D03*
X-217193Y17193D03*
X-194500Y13000D03*
X-212500Y46000D03*
X-206000Y33000D03*
X-207000Y82500D03*
X-207500Y74500D03*
Y77500D03*
X-202500Y57500D03*
X-203250Y93250D03*
X-208584Y84929D03*
X-214500Y93000D03*
X-205000Y101450D03*
X-196500Y103244D03*
X-206500Y115000D03*
X-195000D03*
X-187500Y-56000D03*
X-175000Y-4500D03*
X-178500Y13000D03*
X-182500Y41500D03*
Y46500D03*
X-171000Y46000D03*
X-164500Y33000D03*
X-164000Y73000D03*
X-169500Y60500D03*
X-176500Y73000D03*
X-180500Y79250D03*
X-171750Y93250D03*
X-187000Y102000D03*
X-165000Y100500D03*
X-172250Y98750D03*
X-164750Y84750D03*
X-183500Y115000D03*
X-172500D03*
X-147000Y-56000D03*
X-135500Y-8500D03*
X-141500Y14000D03*
X-149000Y13000D03*
X-141500Y41500D03*
Y46500D03*
X-143000Y80000D03*
X-135500Y61000D03*
X-155000Y81500D03*
X-148000Y71950D03*
X-158000Y58000D03*
X-162250Y93250D03*
X-146500Y103387D03*
X-148500Y85000D03*
X-158000Y103500D03*
X-161000Y115000D03*
X-149500D03*
X-141500D03*
X-116500Y-19500D03*
Y-16000D03*
X-114500Y12000D03*
X-110000D03*
X-117750Y34250D03*
X-118250Y28750D03*
X-126750Y41750D03*
X-111750Y29250D03*
X-128000Y46950D03*
X-111500Y71500D03*
X-108500Y57750D03*
X-112500Y75500D03*
X-130437Y77063D03*
X-133750Y57750D03*
X-130750Y93250D03*
X-112000Y85000D03*
X-133000D03*
X-130750Y98750D03*
X-123750D03*
X-134000Y115000D03*
X-126500D03*
X-122500D03*
X-119000D03*
X-113500D03*
X-95154Y-108346D03*
X-88500Y-105500D03*
X-83500Y25000D03*
X-86500D03*
X-89500D03*
X-103500Y23500D03*
X-86500Y50500D03*
X-81000Y48500D03*
X-103500Y48000D03*
X-90500Y47000D03*
X-82500Y81000D03*
X-90000Y71250D03*
X-106500Y62000D03*
X-103000Y102500D03*
X-99200Y86700D03*
X-95500Y100500D03*
X-77500Y25000D03*
X-80500D03*
X-69000Y8000D03*
X-56500Y9000D03*
X-62500Y45000D03*
X-66500Y28700D03*
X-53500Y61000D03*
X-67500D03*
X-76000Y77000D03*
Y62000D03*
X-60500Y107000D03*
X-70902Y94598D03*
X-77500Y115500D03*
X-59500D03*
X-66000D03*
X-49000Y24500D03*
X-35500Y43500D03*
X-27000Y46500D03*
X-48250Y51750D03*
X-44500Y48000D03*
X-53000Y82000D03*
X-29000Y65000D03*
X-48500Y79000D03*
X-50000Y74000D03*
X-27593Y74593D03*
X-52000Y68500D03*
X-38000Y56000D03*
X-32250Y101250D03*
X-50000Y92000D03*
X-41000Y85564D03*
X-47000Y87500D03*
X-48500Y105500D03*
X-39000Y105000D03*
Y96000D03*
X-32250Y106750D03*
X-49000Y115300D03*
X-36500Y114500D03*
X-11000Y-94000D03*
X-18690Y52000D03*
X-14500Y51500D03*
X-750Y37750D03*
X-9000Y52000D03*
X-2500Y35000D03*
X-9500Y61000D03*
X-9250Y72750D03*
X-14047Y60547D03*
X-9000Y77000D03*
X-6500Y82500D03*
X-13000Y82000D03*
X-18783Y61000D03*
X-23000Y65500D03*
X-21000Y63000D03*
X-1500Y91000D03*
X-15000Y102000D03*
X-10500Y101500D03*
X-20000Y83500D03*
Y96000D03*
X-24500D03*
X-21000Y114500D03*
X-6000D03*
X26000Y-3000D03*
X1500Y-500D03*
X13000Y33000D03*
X11000Y30500D03*
X8200Y30300D03*
X17000Y33500D03*
X23000Y35500D03*
X9000Y55000D03*
Y34000D03*
X10750Y78250D03*
X12500Y75000D03*
X9000Y59500D03*
X2500Y88500D03*
X1500Y98500D03*
X7500Y88000D03*
X9500Y114500D03*
X24500D03*
X35000Y-3000D03*
X32000D03*
X29000D03*
X54000Y15000D03*
X46500D03*
Y22000D03*
X54000D03*
X34500Y17500D03*
X38000Y18500D03*
Y21500D03*
X47750Y44750D03*
X49000Y53500D03*
X46500Y29500D03*
X55000Y53500D03*
X33500Y55500D03*
X46000Y75000D03*
X45500Y57000D03*
X50500Y58000D03*
X39500D03*
X34000Y73000D03*
Y87000D03*
X55000Y114500D03*
X77250Y-113750D03*
X77000Y22000D03*
X65000Y26000D03*
X60500D03*
X78500Y55000D03*
X77000Y37000D03*
Y29500D03*
X76750Y44750D03*
X60000Y76000D03*
X78500Y74500D03*
X82000Y74000D03*
X82250Y64750D03*
X80500Y90000D03*
X83000Y87500D03*
X70500Y114500D03*
X86000Y-103500D03*
X103000Y26500D03*
Y18500D03*
X84500Y15000D03*
X98846Y54654D03*
X89846D03*
X84846D03*
X94500D03*
X102000Y37000D03*
Y45000D03*
X92500Y29500D03*
Y37000D03*
Y45000D03*
X84500D03*
X103750Y70750D03*
X86000Y73000D03*
X104250Y76250D03*
X105000Y86500D03*
X88000Y95500D03*
X86000Y114500D03*
X114500Y-16500D03*
Y-19500D03*
X115500Y23500D03*
X120000Y25000D03*
X126500D03*
X118500Y18500D03*
X111500Y24000D03*
X119500Y32000D03*
X118500Y50000D03*
X121500Y35000D03*
X112750Y76250D03*
X128000Y66500D03*
X159815Y66185D03*
X152500Y73500D03*
X140000Y67000D03*
X146500Y113500D03*
X154500Y114000D03*
X169328Y78500D03*
X165500Y68000D03*
X177500Y101500D03*
X188740Y89760D03*
X168500Y103000D03*
X177500Y87000D03*
X192500Y101500D03*
X169500Y114000D03*
X185000D03*
X195000Y44000D03*
X202000Y65500D03*
X203000Y71000D03*
X200500Y73000D03*
X196500Y78500D03*
X202500Y78000D03*
X201162Y80573D03*
X200500Y101500D03*
X208500Y102000D03*
X217760Y89760D03*
X200500Y88000D03*
X208500D03*
X200000Y114000D03*
X215500D03*
X240000Y80000D03*
X231500Y103000D03*
X239500D03*
X231500Y87500D03*
X239500Y88000D03*
X225000Y103500D03*
X230500Y114000D03*
X246000D03*
X270000Y-113000D03*
X261500Y-5000D03*
X254000D03*
X261500Y18500D03*
Y2500D03*
X254000D03*
Y10000D03*
X261500D03*
X269500D03*
X252693Y31807D03*
X255500Y46500D03*
X257846Y34954D03*
X261154Y34154D03*
X255500Y52000D03*
X255000Y56500D03*
X260654Y59846D03*
X262500Y101500D03*
X249760Y89760D03*
X266750Y91750D03*
X256500Y85500D03*
X261000Y114000D03*
X285000Y-113000D03*
Y-97500D03*
X291500Y-66500D03*
X285000Y-67000D03*
X291500Y-36000D03*
Y-51000D03*
Y-5500D03*
Y-20500D03*
X277000Y10000D03*
X284500D03*
X291500Y25000D03*
Y10000D03*
Y55500D03*
Y40500D03*
Y71000D03*
Y86000D03*
Y114000D03*
G54D20*
X-231000Y-81598D03*
X-231500Y-34098D03*
X-189500Y-81598D03*
Y-33598D03*
X-149500Y-81598D03*
Y-33598D03*
X144500Y-83098D03*
X145000Y-33598D03*
X192000Y-82598D03*
Y-33098D03*
X237500Y-82598D03*
Y-33098D03*
G54D11*
X-279528Y-82677D03*
Y102362D03*
X-102362Y-78740D03*
X38500Y102500D03*
X102362Y-78740D03*
X279528Y-82677D03*
Y102362D03*
G54D12*
X-275591Y-23622D03*
Y-33622D03*
Y-13622D03*
X275591Y-33622D03*
Y-23622D03*
Y-13622D03*
G54D30*
X-117315Y44260D03*
Y51740D03*
X-106685D03*
Y48000D03*
Y44260D03*
G54D21*
X-240354Y-56402D03*
X-221646D03*
X-240854Y-8902D03*
X-222146D03*
X-198854Y-56402D03*
Y-8402D03*
X-180146Y-56402D03*
Y-8402D03*
X-158854Y-56402D03*
X-140146D03*
X-158854Y-8402D03*
X-140146D03*
X135146Y-57902D03*
X135646Y-8402D03*
X153854Y-57902D03*
X154354Y-8402D03*
X182646Y-57402D03*
Y-7902D03*
X201354Y-57402D03*
Y-7902D03*
X228146Y-57402D03*
X246854D03*
X228146Y-7902D03*
X246854D03*
G54D31*
X-130437Y73500D03*
X-122563Y77240D03*
Y69760D03*
X171063Y75000D03*
X178937Y78740D03*
Y71260D03*
G54D13*
X-275591Y27559D03*
Y57087D03*
Y47244D03*
Y37402D03*
Y66929D03*
X27079Y-103500D03*
X17236D03*
X7394D03*
X56606D03*
X46764D03*
X36921D03*
X103394Y104000D03*
X113236D03*
X123079D03*
X132921D03*
X142764D03*
X152606D03*
X275591Y27559D03*
Y37402D03*
Y47244D03*
Y57087D03*
Y66929D03*
G54D22*
X-237000Y28807D03*
Y17193D03*
X-222000Y28807D03*
Y17193D03*
X-194500Y28807D03*
Y17193D03*
X-178500Y28307D03*
Y16693D03*
X-149000Y28307D03*
Y16693D03*
X-134000Y28307D03*
Y16693D03*
X144000Y19693D03*
X159000D03*
X144000Y31307D03*
X159000D03*
X187000Y20193D03*
Y31807D03*
X202500Y20193D03*
Y31807D03*
X233000Y21193D03*
X248000Y20193D03*
X233000Y32807D03*
X248000Y31807D03*
G54D40*
X-33732Y62173D03*
Y64142D03*
Y66110D03*
Y68079D03*
Y70047D03*
Y72016D03*
Y73984D03*
Y75953D03*
Y77921D03*
Y79890D03*
Y81858D03*
Y83827D03*
X-268Y81858D03*
Y79890D03*
Y77921D03*
Y75953D03*
Y73984D03*
Y72016D03*
Y70047D03*
Y68079D03*
Y66110D03*
Y64142D03*
Y62173D03*
Y83827D03*
G54D50*
G01X-275591Y27559D02*
X-263728D01*
X-263169Y27000D01*
X-260000D01*
G01X-275591Y37402D02*
X-262141D01*
X-262043Y37500D01*
X-260153D01*
G01X-275591Y47244D02*
X-262287D01*
X-262043Y47000D01*
X-260153D01*
G01Y57000D02*
X-269973D01*
X-270060Y57087D01*
X-275591D01*
G01X-256847Y47000D02*
Y48846D01*
G01Y37500D02*
Y39346D01*
G01X-260153Y37500D02*
Y33154D01*
X-260000Y33000D01*
G01D02*
X-255500D01*
G01X-260153Y47000D02*
Y42654D01*
X-260000Y42500D01*
G01D02*
X-256000D01*
G01X-260000Y52000D02*
Y56846D01*
X-260153Y57000D01*
G01X-256847D02*
Y60000D01*
G01X-260153Y57000D02*
Y60000D01*
G01X-242000Y93750D02*
X-245750D01*
X-246500Y93000D01*
G01X-242000Y99250D02*
X-244800D01*
X-246000Y100450D01*
G01X-207000Y83500D02*
X-203500D01*
X-202000Y82000D01*
Y68000D01*
X-204500Y65500D01*
X-217100D01*
X-220600Y69000D01*
X-220750D01*
G01X-226750Y78750D02*
X-226500Y79000D01*
G01X-226750Y69000D02*
Y78750D01*
G01X-232250Y69000D02*
Y73140D01*
X-232012Y73379D01*
Y75760D01*
G01X-215250Y69000D02*
X-217500Y71250D01*
Y75000D01*
X-218260Y75760D01*
X-220988D01*
G01X-235512Y93760D02*
X-239190D01*
X-239200Y93750D01*
X-242000D01*
G01X-224488Y93760D02*
X-218510D01*
X-218500Y93750D01*
G01X-224488Y101240D02*
X-228740D01*
G01X-224488Y97500D02*
X-220250D01*
X-218500Y99250D01*
G01X-235512Y97500D02*
X-240250D01*
X-242000Y99250D01*
G01X-235512Y101240D02*
X-238272Y104000D01*
X-241000D01*
G01X-191500Y79250D02*
Y73500D01*
X-182693Y64693D01*
Y60500D01*
G01X-199500Y93250D02*
X-203250D01*
G01X-193012Y93260D02*
X-196690D01*
X-196700Y93250D01*
X-199500D01*
G01X-218500Y93750D02*
X-215250D01*
X-214500Y93000D01*
G01X-193012Y97000D02*
X-197750D01*
X-199500Y98750D01*
G01D02*
X-202300D01*
X-205000Y101450D01*
G01X-218500Y99250D02*
Y103000D01*
G01X-193012Y100740D02*
X-193996D01*
X-196500Y103244D01*
G01X-193272Y101000D02*
X-193012Y100740D01*
G01X-191500Y84750D02*
X-185500D01*
G01Y79250D02*
X-180500D01*
G01X-175500D02*
X-169500D01*
G01X-181988Y93260D02*
X-178310D01*
X-178300Y93250D01*
X-175500D01*
G01D02*
X-171750D01*
G01X-175500Y84750D02*
Y93250D01*
G01X-181988Y100740D02*
X-185740D01*
X-187000Y102000D01*
G01X-158000Y98750D02*
X-163250D01*
X-165000Y100500D01*
G01X-181988Y97000D02*
X-177250D01*
X-175500Y98750D01*
G01D02*
X-172250D01*
G01X-169500Y84750D02*
X-164750D01*
G01X-143000Y75250D02*
X-136500D01*
G01X-143000Y69750D02*
X-145800D01*
X-148000Y71950D01*
G01X-158000Y93250D02*
X-162250D01*
G01X-151512Y93260D02*
X-155190D01*
X-155200Y93250D01*
X-158000D01*
G01X-140488Y93260D02*
X-136810D01*
X-136800Y93250D01*
X-134000D01*
G01X-140488Y100740D02*
X-143854D01*
X-146500Y103387D01*
G01X-140488Y97000D02*
X-135750D01*
X-134000Y98750D01*
G01X-151512Y97000D02*
X-156250D01*
X-158000Y98750D01*
G01Y103500D02*
X-155256D01*
X-152496Y100740D01*
X-151512D01*
G01X-109500Y-100000D02*
X-96250D01*
G01X-116500Y-19500D02*
X-117000Y-20000D01*
Y-22500D01*
G01X-116500Y-16000D02*
X-116650Y-15850D01*
Y-13850D01*
G01X-114500Y12000D02*
X-113500Y13000D01*
Y14500D01*
X-115500Y16500D01*
Y16750D01*
G01X-110000Y12000D02*
X-111000Y13000D01*
Y14500D01*
X-108750Y16750D01*
X-108500D01*
G01X-115500Y22250D02*
Y33106D01*
X-115350Y33256D01*
Y35150D01*
X-113500Y37000D01*
Y48500D01*
X-110260Y51740D01*
X-106685D01*
G01X-121500Y34250D02*
X-117750D01*
G01X-121500D02*
Y40961D01*
X-118201Y44260D01*
X-117315D01*
G01X-108500Y34250D02*
Y37200D01*
X-110500Y39200D01*
Y43200D01*
X-109200Y44500D01*
X-106925D01*
X-106685Y44260D01*
G01X-121500Y28750D02*
X-118250D01*
G01X-130000Y41750D02*
X-126750D01*
G01X-111750Y29250D02*
X-109000D01*
X-108500Y28750D01*
G01X-124000Y45750D02*
X-126800D01*
X-128000Y46950D01*
G01X-124000Y51250D02*
X-129750D01*
X-130000Y51500D01*
G01X-117315Y51740D02*
X-120710D01*
X-121200Y51250D01*
X-124000D01*
G01X-117315Y51740D02*
Y54615D01*
X-117500Y54800D01*
Y57600D01*
G01X-99500Y63750D02*
X-99816Y64066D01*
X-102434D01*
X-103000Y63500D01*
Y55500D01*
X-104000Y54500D01*
X-114400D01*
X-117500Y57600D01*
G01Y63250D02*
X-111500D01*
G01D02*
Y71500D01*
G01X-122563Y69760D02*
Y77240D01*
G01X-117315D02*
X-122563D01*
G01X-136500Y69750D02*
X-125544D01*
X-125535Y69760D01*
X-122563D01*
G01X-112500Y75500D02*
X-110803Y73803D01*
X-104603D01*
X-103500Y72700D01*
Y72450D01*
X-102300Y71250D01*
X-99500D01*
G01X-108500Y57750D02*
X-111500D01*
G01X-117315Y73500D02*
X-113950D01*
X-112500Y74950D01*
Y75500D01*
G01X-130437Y73500D02*
Y77063D01*
G01X-130000Y57750D02*
X-133750D01*
G01X-130000Y63250D02*
X-124000D01*
G01D02*
Y63400D01*
X-120900Y66500D01*
X-118194D01*
X-117315Y67379D01*
Y69760D01*
G01X-124000Y57750D02*
X-117500D01*
G01Y57600D02*
Y57750D01*
G01X-134000Y93250D02*
X-130750D01*
G01X-134000Y98750D02*
X-130750D01*
G01X-119000D02*
X-123750D01*
G01X-102700Y94300D02*
X-103000Y94600D01*
Y97500D01*
X-104250Y98750D01*
X-113000D01*
G01Y93250D02*
X-119000D01*
G01X-95154Y-105500D02*
Y-101097D01*
X-96250Y-100000D01*
G01X-95154Y-105500D02*
Y-108346D01*
G01X-91847Y-105500D02*
Y-101097D01*
X-90750Y-100000D01*
G01X-91847Y-105500D02*
X-88500D01*
G01X-102500Y28750D02*
Y24500D01*
X-103500Y23500D01*
G01X-108500Y22250D02*
Y28750D01*
G01X-86500Y50500D02*
X-84803Y52197D01*
Y78697D01*
X-82500Y81000D01*
G01X-102500Y34250D02*
X-108500D01*
G01X-106685Y48000D02*
X-103500D01*
G01X-99500Y58250D02*
Y54000D01*
X-101760Y51740D01*
X-106685D01*
G01X-102700Y94300D02*
X-103500Y93500D01*
Y83000D01*
X-102000Y81500D01*
X-89000D01*
X-86500Y79000D01*
Y59500D01*
X-90500Y55500D01*
Y47000D01*
G01X-99500Y76750D02*
X-93500D01*
G01X-106685Y77240D02*
X-102790D01*
X-102300Y76750D01*
X-99500D01*
G01X-106500Y62000D02*
Y67194D01*
X-106685Y67379D01*
Y69760D01*
G01X-93500Y71250D02*
X-90000D01*
G01X-106685Y69760D02*
X-103320D01*
X-101309Y67749D01*
X-96851D01*
X-93500Y71100D01*
Y71250D01*
G01X-103000Y102500D02*
Y106050D01*
X-98300Y110750D01*
X-95500D01*
G01X-81500Y105200D02*
X-85650D01*
X-86200Y105750D01*
X-89000D01*
G01X-94000Y86700D02*
X-99200D01*
G01X-95500Y105250D02*
Y100500D01*
G01X-85055Y94598D02*
X-89752D01*
X-90050Y94300D01*
X-94000D01*
G01D02*
X-102700D01*
G01X-95500Y110750D02*
X-92300D01*
X-91800Y111250D01*
X-89000D01*
G01X-75000Y15500D02*
X-72500Y13000D01*
Y5000D01*
X-72000Y4500D01*
X-64750D01*
G01X-68500Y12750D02*
Y8500D01*
X-69000Y8000D01*
G01X-59250Y4500D02*
X-55000D01*
X-53000Y6500D01*
Y13877D01*
X-52377Y14500D01*
X-49012D01*
G01X-62500Y18250D02*
X-68500D01*
G01X-56500D02*
X-62500D01*
G01X-49012Y18240D02*
X-53690D01*
X-53700Y18250D01*
X-56500D01*
G01X-62500Y12750D02*
X-56500D01*
G01D02*
Y9000D01*
G01X-56750Y49000D02*
Y54500D01*
X-57250Y55000D01*
G01D02*
Y61000D01*
G01D02*
X-53500D01*
G01X-76000Y69402D02*
Y77000D01*
G01X-57500Y83200D02*
X-61450D01*
X-61750Y83500D01*
X-74000D01*
X-76000Y85500D01*
Y94598D01*
G01X-57500Y83200D02*
X-54200D01*
X-53000Y82000D01*
G01X-73000Y105200D02*
X-66550D01*
X-66000Y105750D01*
G01X-73000Y105200D02*
X-81500D01*
G01X-35500Y43500D02*
X-27827Y51173D01*
Y56268D01*
G01X-48250Y56000D02*
Y51750D01*
G01X-33732Y62173D02*
X-39627D01*
X-39800Y62000D01*
X-42750D01*
G01X-33732Y64142D02*
X-38742D01*
X-42600Y68000D01*
X-42750D01*
G01X-48250Y56000D02*
Y62000D01*
G01X-33732Y66110D02*
X-30110D01*
X-29000Y65000D01*
G01X-50000Y92000D02*
Y85500D01*
X-42421Y77921D01*
X-33732D01*
G01Y81858D02*
X-37294D01*
X-41000Y85564D01*
G01X-33732Y79890D02*
X-39390D01*
X-47000Y87500D01*
G01X-48500Y79000D02*
X-45453Y75953D01*
X-33732D01*
G01X-50000Y74000D02*
X-37310D01*
X-37294Y73984D01*
X-33732D01*
G01X-27593Y74593D02*
X-30170Y72016D01*
X-33732D01*
G01X-48250Y68000D02*
X-51500D01*
X-52000Y68500D01*
G01X-42750Y56000D02*
X-38000D01*
G01X-27827Y89732D02*
Y98127D01*
X-28000Y98300D01*
Y101250D01*
G01X-22000D02*
X-28000D01*
G01D02*
X-32250D01*
G01X-22000Y106750D02*
X-28000D01*
G01D02*
X-32250D01*
G01X-17984Y56268D02*
Y52705D01*
X-18690Y52000D01*
G01X-27000Y42500D02*
X-23550D01*
X-23300Y42750D01*
X-20500D01*
G01X-27000Y46500D02*
Y42500D01*
G01X-16016Y56268D02*
Y53016D01*
X-14500Y51500D01*
G01X-14000Y42750D02*
Y45700D01*
X-11700Y48000D01*
X-8673D01*
X-6173Y50500D01*
Y56268D01*
G01X2500Y37750D02*
X-750D01*
G01X-14000Y42750D02*
X-7550D01*
X-6500Y43800D01*
G01D02*
X-6000D01*
G01D02*
X-2901Y40701D01*
Y39901D01*
X-750Y37750D01*
G01X-6000Y43800D02*
Y46500D01*
X-268Y52232D01*
Y62173D01*
G01X-9000Y52000D02*
X-8142Y52858D01*
Y56268D01*
G01X-14000Y37250D02*
X-20500D01*
G01X-6500Y36200D02*
X-12950D01*
X-14000Y37250D01*
G01X-6500Y36200D02*
X-3700D01*
X-2500Y35000D01*
G01X-10110Y56268D02*
Y60390D01*
X-9500Y61000D01*
G01X-268Y72016D02*
X13471D01*
X17579Y76124D01*
Y80874D01*
G01X-9250Y72750D02*
X-5064D01*
X-3830Y73984D01*
X-268D01*
G01Y70047D02*
X23257D01*
X27028Y66276D01*
Y65126D01*
G01X7500Y78250D02*
X3623D01*
X3294Y77921D01*
X-268D01*
G01X-14047Y56268D02*
Y60547D01*
G01X-268Y79890D02*
X-6110D01*
X-9000Y77000D01*
G01X-268Y81858D02*
X-5858D01*
X-6500Y82500D01*
G01X-13000Y82000D02*
X-10600D01*
X-8142Y84458D01*
Y89732D01*
G01X-19953Y56268D02*
Y59830D01*
X-18783Y61000D01*
G01X-23890Y56268D02*
Y64610D01*
X-23000Y65500D01*
G01X-21921Y56268D02*
Y62079D01*
X-21000Y63000D01*
G01X6000Y74500D02*
X4547Y75953D01*
X-268D01*
G01Y83827D02*
Y85732D01*
X2500Y88500D01*
G01X9000Y94000D02*
X-1500D01*
G01D02*
X-5500D01*
X-6173Y93327D01*
Y89732D01*
G01X-1500Y91000D02*
Y94000D01*
G01X9000Y101000D02*
X4000Y96000D01*
X-7500D01*
X-8142Y95358D01*
Y89732D01*
G01X1500Y98500D02*
X-8927D01*
X-12079Y95348D01*
Y89732D01*
G01X-15000Y102000D02*
Y99600D01*
X-16016Y98584D01*
Y89732D01*
G01X-10500Y101500D02*
X-14047Y97953D01*
Y89732D01*
G01X-20000Y83500D02*
Y86123D01*
X-19953Y86170D01*
Y89732D01*
G01X-17984D02*
Y93984D01*
X-20000Y96000D01*
G01X-24500D02*
X-25858Y94642D01*
Y89732D01*
G01X2500Y43250D02*
X9000D01*
G01X17000Y43000D02*
X12050D01*
X11800Y43250D01*
X9000D01*
G01X17000Y43000D02*
Y33500D01*
G01X9000Y37750D02*
Y34000D01*
G01X21750Y52700D02*
Y55000D01*
G01X17579Y80874D02*
Y85671D01*
X17349Y85901D01*
Y86051D01*
X14900Y88500D01*
X14750D01*
G01X27028Y65126D02*
Y58022D01*
X27250Y57800D01*
Y55000D01*
G01X7500Y78250D02*
X10750D01*
G01X21500Y65000D02*
X21374Y65126D01*
G01X17500Y60000D02*
X17579Y60079D01*
G01X13500Y65000D02*
X13626Y65126D01*
G01X21374D02*
X17579D01*
G01Y60079D02*
Y65126D01*
G01X13626D02*
X17579D01*
G01X27028Y76624D02*
Y80874D01*
G01D02*
Y85124D01*
G01X23928Y80874D02*
X27028D01*
G01D02*
X30128D01*
G01X21750Y55000D02*
Y57300D01*
G01X19300Y55000D02*
X21750D01*
G01D02*
X24200D01*
G01X7500Y83750D02*
Y88000D01*
G01X20250Y86200D02*
Y88500D01*
G01D02*
Y90800D01*
G01X17800Y88500D02*
X20250D01*
G01D02*
X22700D01*
G01X33750Y27500D02*
X33500Y27250D01*
G01X47750Y48500D02*
Y44750D01*
G01X41500Y27500D02*
X33750D01*
G01X55000Y81700D02*
Y75000D01*
X48000Y68000D01*
Y54500D01*
X49000Y53500D01*
G01X53250Y48500D02*
X59750D01*
G01X46000Y75000D02*
Y59900D01*
X45500Y59400D01*
Y57000D01*
G01X70000Y98250D02*
Y98100D01*
X73500Y94600D01*
Y76000D01*
X70500Y73000D01*
X56000D01*
X50500Y67500D01*
Y58000D01*
G01X77250Y-109000D02*
Y-113750D01*
G01X82750Y-109000D02*
Y-105789D01*
X82154Y-105192D01*
Y-103500D01*
G01X77250Y-109000D02*
Y-105096D01*
X77309Y-105038D01*
Y-104841D01*
X78650Y-103500D01*
X78847D01*
G01X65000Y26000D02*
X64000Y27000D01*
Y31000D01*
X66000Y33000D01*
Y33760D01*
G01X60500Y26000D02*
X61500Y27000D01*
Y31000D01*
X59000Y33500D01*
Y33760D01*
G01X65250Y48500D02*
Y45434D01*
X66000Y44684D01*
Y41240D01*
G01X65000Y59300D02*
Y51550D01*
X65250Y51300D01*
Y48500D01*
G01X71250D02*
X65250D01*
G01X59750D02*
Y45434D01*
X59000Y44684D01*
Y41240D01*
G01X60000Y59300D02*
Y51550D01*
X59750Y51300D01*
Y48500D01*
G01X76750D02*
Y44750D01*
G01X55000Y59300D02*
Y53500D01*
G01X65000Y81700D02*
X60000D01*
G01D02*
Y76000D01*
G01Y92750D02*
Y81700D01*
G01Y98250D02*
Y98400D01*
X63600Y102000D01*
X72848D01*
X76000Y98848D01*
Y72300D01*
X70000Y66300D01*
Y59300D01*
G01X78500Y59250D02*
X72550D01*
X72500Y59300D01*
X70000D01*
G01X78500Y59250D02*
Y55000D01*
G01X70000Y81700D02*
Y92750D01*
G01X78500Y74500D02*
Y88000D01*
X80500Y90000D01*
G01X82000Y74000D02*
Y86500D01*
X83000Y87500D01*
G01X78500Y64750D02*
X82250D01*
G01X92000Y-109500D02*
X86200D01*
X85700Y-109000D01*
X82750D01*
G01X101000Y-110000D02*
X95669D01*
X95169Y-109500D01*
X92000D01*
G01X82154Y-103500D02*
X86000D01*
G01X97000Y54500D02*
Y54654D01*
G01Y56000D02*
Y107000D01*
X100000Y110000D01*
X107236D01*
X113236Y104000D01*
G01X97000Y54654D02*
X98846D01*
G01X88000D02*
Y60000D01*
X92500Y64500D01*
Y109000D01*
X97500Y114000D01*
X122921D01*
X132921Y104000D01*
G01X88000Y54654D02*
X89846D01*
G01X83000D02*
X84846D01*
G01X83000D02*
Y59000D01*
X90500Y66500D01*
Y110500D01*
X96000Y116000D01*
X130764D01*
X142764Y104000D01*
G01X92500Y54654D02*
X94500D01*
G01X92500D02*
Y60500D01*
X94500Y62500D01*
Y107500D01*
X99000Y112000D01*
X115079D01*
X123079Y104000D01*
G01X107500Y45250D02*
Y55250D01*
G01X111500Y24000D02*
Y32500D01*
X107500Y36500D01*
Y39750D01*
G01X114760Y64315D02*
Y65201D01*
X112829Y67132D01*
X111468D01*
X108000Y70600D01*
Y70750D01*
G01D02*
X103750D01*
G01X86000Y73000D02*
Y93500D01*
X88000Y95500D01*
G01X122240Y53685D02*
X122000Y53925D01*
Y57000D01*
X121000Y58000D01*
X113500D01*
X110750Y55250D01*
X107500D01*
G01X108000Y76250D02*
X104250D01*
G01X107500Y60750D02*
X119561D01*
X122240Y63429D01*
Y64315D01*
G01X105000Y86500D02*
X110500Y81000D01*
X126500D01*
X128000Y79500D01*
Y76250D01*
G01X114500Y-16500D02*
X113934Y-17066D01*
X112566D01*
X112000Y-16500D01*
Y-12500D01*
G01X114500Y-19500D02*
X114000Y-19000D01*
X112500D01*
X111500Y-20000D01*
Y-22000D01*
G01X115500Y28250D02*
Y23500D01*
G01Y39750D02*
Y33750D01*
G01X119500Y32000D02*
X117250D01*
X115500Y33750D01*
G01X118500Y53685D02*
Y50000D01*
G01X121500Y39750D02*
Y35000D01*
G01X115500Y45250D02*
Y48200D01*
X114760D01*
Y53685D01*
G01X121500Y45250D02*
X115500D01*
G01X122000Y76250D02*
X128000D01*
G01X134000D02*
X140000D01*
G01X116000D02*
X112750D01*
G01X128000Y70750D02*
Y66500D01*
G01X122000Y70750D02*
X116000D01*
G01X122240Y64315D02*
Y67560D01*
X122000Y67800D01*
Y70750D01*
G01X122240Y64315D02*
X124523D01*
X125338Y63500D01*
X132000D01*
X132213Y63713D01*
G01D02*
X134000Y65500D01*
Y70750D01*
G01X159815Y77240D02*
Y79635D01*
X159250Y80200D01*
Y83000D01*
G01X159815Y77240D02*
X165490D01*
X165500Y77250D01*
G01X159815Y69760D02*
X156690D01*
X156450Y70000D01*
Y76050D01*
X153750Y78750D01*
Y83000D01*
G01X159815Y69760D02*
Y66185D01*
G01X149185Y69760D02*
X148860Y69434D01*
X145066D01*
X144500Y70000D01*
Y75000D01*
X143250Y76250D01*
X140000D01*
G01X149185Y73500D02*
X152500D01*
G01X140000Y70750D02*
Y67000D01*
G01X178937Y78740D02*
X178740D01*
X169980Y87500D01*
X149985D01*
X149185Y86700D01*
Y77240D01*
G01X169328Y78500D02*
X168656D01*
X167406Y77250D01*
X165500D01*
G01Y71750D02*
X168750D01*
X169000Y71500D01*
X170338D01*
X171063Y72225D01*
Y75000D01*
G01X170866D02*
X171063D01*
G01X165500Y71750D02*
Y68000D01*
G01D02*
X182100D01*
X186100Y72000D01*
X186250D01*
G01X178937Y78740D02*
Y71260D01*
G01X186250Y78500D02*
X182149D01*
X181909Y78740D01*
X178937D01*
G01X183988Y97240D02*
X180310D01*
X180300Y97250D01*
X177500D01*
G01D02*
Y101500D01*
G01X183988Y89760D02*
X188740D01*
G01X183988Y93500D02*
X179250D01*
X177500Y91750D01*
G01D02*
Y87000D01*
G01X192500Y101500D02*
X190803Y99803D01*
Y91103D01*
X192146Y89760D01*
X195012D01*
G01X206750Y65000D02*
Y68000D01*
X207000Y68250D01*
Y71700D01*
G01X191750Y72000D02*
Y78500D01*
G01D02*
X196500D01*
G01X214988Y79240D02*
X218760D01*
X219500Y78500D01*
Y66500D01*
X218000Y65000D01*
X212250D01*
G01X195012Y97240D02*
X200490D01*
X200500Y97250D01*
G01D02*
Y101500D01*
G01X214488Y97240D02*
X208510D01*
X208500Y97250D01*
G01D02*
Y102000D01*
G01X214488Y89760D02*
X217760D01*
G01X195012Y93500D02*
X198750D01*
X200500Y91750D01*
G01D02*
Y88000D01*
G01X214488Y93500D02*
X210250D01*
X208500Y91750D01*
G01D02*
Y88000D01*
G01X250000Y77250D02*
X243000D01*
G01X226012Y79240D02*
Y82012D01*
X228000Y84000D01*
X245950D01*
X247200Y82750D01*
X250000D01*
G01X225512Y97240D02*
X231490D01*
X231500Y97250D01*
G01D02*
Y103000D01*
G01X245488Y97240D02*
X239510D01*
X239500Y97250D01*
G01D02*
Y103000D01*
G01X246000Y105500D02*
Y100133D01*
X245488Y99621D01*
Y97240D01*
G01Y89760D02*
X249760D01*
G01X225512Y93500D02*
X229750D01*
X231500Y91750D01*
G01D02*
Y87500D01*
G01X245488Y93500D02*
X241250D01*
X239500Y91750D01*
G01D02*
Y88000D01*
G01X225000Y103500D02*
X221000Y99500D01*
Y90906D01*
X222146Y89760D01*
X225512D01*
G01X275591Y27559D02*
X263609D01*
X263169Y28000D01*
X260000D01*
G01X257846Y46500D02*
X255500D01*
G01X257846Y37000D02*
Y34954D01*
G01X261154Y37000D02*
Y40846D01*
X260000Y42000D01*
G01X275591Y37402D02*
X263444D01*
X263042Y37000D01*
X261154D01*
G01D02*
Y34154D01*
G01Y46500D02*
Y50846D01*
X260000Y52000D01*
G01X261154Y46500D02*
X269316D01*
X270060Y47244D01*
X275591D01*
G01X260000Y52000D02*
X255500D01*
G01X257346Y56500D02*
X255000D01*
G01X260654D02*
X269473D01*
X270060Y57087D01*
X275591D01*
G01X260654Y56500D02*
Y59846D01*
G01X260000Y64500D02*
Y60500D01*
X260654Y59846D01*
G01X256512Y97240D02*
X262490D01*
X262500Y97250D01*
G01D02*
Y101500D01*
G01X256512Y93500D02*
X260750D01*
X262500Y91750D01*
G01D02*
X266750D01*
G01X256512Y89760D02*
Y85512D01*
X256500Y85500D01*
G54D32*
X-87992Y-12000D03*
X-70000D03*
X84500Y-39492D03*
Y-21500D03*
G54D41*
X16500Y-80500D03*
Y-60500D03*
G54D14*
X-251500Y-81842D03*
Y-62158D03*
X-210000Y-81842D03*
Y-62158D03*
X-169000Y-81842D03*
Y-62158D03*
X165500Y-81342D03*
Y-61658D03*
X212000Y-82342D03*
Y-62658D03*
X257500Y-82842D03*
Y-63158D03*
G54D23*
X-240630Y37000D03*
Y42000D03*
Y47000D03*
Y52000D03*
X-219370D03*
Y47000D03*
Y42000D03*
Y37000D03*
X-199130Y36500D03*
Y41500D03*
Y46500D03*
Y51500D03*
X-177870D03*
Y46500D03*
Y41500D03*
Y36500D03*
X-158130D03*
Y41500D03*
Y46500D03*
Y51500D03*
X-136870D03*
Y46500D03*
Y41500D03*
Y36500D03*
X135370Y39500D03*
Y44500D03*
Y49500D03*
Y54500D03*
X156630D03*
Y49500D03*
Y44500D03*
Y39500D03*
X179370Y39000D03*
Y44000D03*
Y49000D03*
Y54000D03*
X221370Y39500D03*
Y44500D03*
Y49500D03*
Y54500D03*
X200630Y54000D03*
Y49000D03*
Y44000D03*
Y39000D03*
X242630Y54500D03*
Y49500D03*
Y44500D03*
Y39500D03*
G54D51*
G01X-143000Y75250D02*
Y80000D01*
G01X-62250Y49000D02*
X-67000D01*
X-70000Y52000D01*
G01X-62500Y45000D02*
Y48750D01*
X-62250Y49000D01*
G01X-62750Y61000D02*
X-67500D01*
G01X-62750D02*
Y55000D01*
G01X-76000Y69402D02*
Y62000D01*
G01X-44750Y24500D02*
X-49000D01*
G01X97000Y54654D02*
Y56000D01*
G01X200500Y101500D02*
X205500Y106500D01*
X228000D01*
X231500Y103000D01*
G54D24*
X-220988Y75760D03*
X-232012D03*
Y79500D03*
X-235512Y93760D03*
Y97500D03*
Y101240D03*
X-224488D03*
Y97500D03*
Y93760D03*
X-220988Y83240D03*
X-232012D03*
X-193012Y93260D03*
Y97000D03*
Y100740D03*
X-181988D03*
Y97000D03*
Y93260D03*
X-151512D03*
Y97000D03*
Y100740D03*
X-140488D03*
Y97000D03*
Y93260D03*
X-117315Y69760D03*
Y73500D03*
Y77240D03*
X-106685D03*
Y69760D03*
X-49012Y10760D03*
Y14500D03*
Y18240D03*
X-37988D03*
Y14500D03*
Y10760D03*
X159815Y77240D03*
Y69760D03*
X149185D03*
Y73500D03*
Y77240D03*
X183988Y89760D03*
Y93500D03*
Y97240D03*
X214988Y71760D03*
Y79240D03*
X195012Y97240D03*
Y93500D03*
Y89760D03*
X214488D03*
Y93500D03*
Y97240D03*
X226012Y79240D03*
Y75500D03*
Y71760D03*
X245488Y89760D03*
Y93500D03*
Y97240D03*
X225512D03*
Y93500D03*
Y89760D03*
X256512Y97240D03*
Y93500D03*
Y89760D03*
G54D42*
X17579Y65126D03*
Y80874D03*
X27028Y65126D03*
Y80874D03*
G54D15*
X-264500Y-53000D03*
Y-48500D03*
X-260500Y-53000D03*
Y-48500D03*
X-256500Y-53000D03*
Y-48500D03*
X-252000Y-53000D03*
Y-48500D03*
X-248000D03*
Y-53000D03*
X-245500Y87000D03*
X-249000D03*
X-235000Y47000D03*
X-206000Y-39000D03*
Y-35000D03*
Y-31000D03*
X-210500Y-39000D03*
Y-35000D03*
Y-31000D03*
Y-27000D03*
X-206000D03*
Y-23000D03*
X-210500D03*
X-212500Y32500D03*
X-213000Y52000D03*
X-193500Y46500D03*
X-169500Y-30000D03*
Y-34000D03*
Y-38000D03*
X-165500D03*
Y-34000D03*
Y-30500D03*
Y-26500D03*
X-169500Y-26000D03*
X-165500Y-22500D03*
X-169500D03*
X-171000Y33000D03*
X-171500Y51500D03*
X-136870Y54130D03*
X-152000Y46500D03*
X-126500Y36000D03*
X-88000Y-17500D03*
X-94500Y38000D03*
X-98000Y39500D03*
X-94500Y42500D03*
X80300Y-6500D03*
X128000Y35000D03*
X136500Y62000D03*
X147000Y-58000D03*
X161500Y-26500D03*
Y-30500D03*
Y-34000D03*
Y-38000D03*
X147500Y-8000D03*
X161500Y-22500D03*
X144000Y15500D03*
X159000D03*
X164500Y35500D03*
X151500Y44500D03*
Y49500D03*
X164500Y49000D03*
X161500Y54500D03*
X142000Y49500D03*
X157000Y62000D03*
X165500Y-38000D03*
Y-34000D03*
Y-30500D03*
Y-26500D03*
Y-22500D03*
X187000Y16000D03*
X172500Y35500D03*
X185000Y49000D03*
X178000Y61500D03*
X195500Y-57500D03*
X208500Y-28500D03*
Y-32000D03*
Y-36000D03*
X212500D03*
Y-32000D03*
Y-28500D03*
X195000Y-4500D03*
X208500Y-25000D03*
X212500D03*
Y-21500D03*
X208500D03*
X202500Y15500D03*
X209000Y34000D03*
X195000Y49000D03*
X207500Y48000D03*
X206000Y54000D03*
X214000Y35500D03*
X199000Y61500D03*
X240500Y-57500D03*
X226500Y-43000D03*
X244500D03*
X233000Y16500D03*
X237500Y44500D03*
X230000Y52500D03*
X237000Y49500D03*
X226500D03*
X242500Y62500D03*
X221000D03*
X267500Y-37000D03*
X268000Y-43000D03*
X262500Y-37500D03*
X262000Y-43000D03*
X256500D03*
X251000D03*
X253500Y39250D03*
X247500Y54500D03*
X250000Y48500D03*
G54D33*
X-87000Y2035D03*
Y18965D03*
G54D52*
G01X-247500Y36750D02*
X-240880D01*
X-240630Y37000D01*
G01X-247500Y36750D02*
Y33000D01*
G01Y42250D02*
Y45500D01*
X-246000Y47000D01*
X-240630D01*
G01X-228000Y-56500D02*
X-221744D01*
X-221646Y-56402D01*
G01X-216000Y-4000D02*
Y-7209D01*
X-217693Y-8902D01*
X-222146D01*
G01X-244500Y19260D02*
X-239067D01*
X-237000Y17193D01*
G01D02*
Y12500D01*
G01X-222000Y28807D02*
X-227433D01*
X-229500Y26740D01*
G01X-240630Y52000D02*
X-233000D01*
X-230500Y49500D01*
Y31784D01*
X-229500Y30784D01*
Y26740D01*
G01X-237000Y28807D02*
X-242433D01*
X-244500Y26740D01*
G01X-229500Y19260D02*
X-224067D01*
X-222000Y17193D01*
G01D02*
X-217193D01*
G01X-212500Y36750D02*
X-219120D01*
X-219370Y37000D01*
G01X-224693Y60500D02*
Y55807D01*
X-227039Y53461D01*
Y39817D01*
X-224221Y37000D01*
X-219370D01*
G01Y42000D02*
X-224000D01*
G01X-219370Y47000D02*
X-224000D01*
G01X-240630Y42000D02*
X-235500D01*
X-234000Y40500D01*
Y33000D01*
X-237000Y30000D01*
Y28807D01*
G01X-219370Y52000D02*
X-213000D01*
G01X-240630Y47000D02*
X-235000D01*
G01X-241500Y60500D02*
X-236307D01*
G01X-202000Y26740D02*
X-196567D01*
X-194500Y28807D01*
G01X-202000Y19260D02*
X-196567D01*
X-194500Y17193D01*
G01D02*
Y13000D01*
G01X-212500Y36750D02*
Y32500D01*
G01X-199130Y51500D02*
X-191500D01*
X-189000Y49000D01*
Y34000D01*
X-186500Y31500D01*
Y26740D01*
G01X-199130Y41500D02*
X-194579D01*
X-193579Y40500D01*
X-193500D01*
X-192500Y39500D01*
Y33000D01*
X-194500Y31000D01*
Y28807D01*
G01X-212500Y42250D02*
Y46000D01*
G01X-199130Y36500D02*
X-205750D01*
X-206000Y36750D01*
G01D02*
Y33000D01*
G01Y42250D02*
X-201750Y46500D01*
X-199130D01*
G01D02*
X-193500D01*
G01X-202500Y57500D02*
X-199500Y60500D01*
X-194307D01*
G01X-203250Y93250D02*
Y90263D01*
X-208584Y84929D01*
G01X-187500Y-56000D02*
X-180547D01*
X-180146Y-56402D01*
G01X-175000Y-4500D02*
X-176244D01*
X-180146Y-8402D01*
G01X-186500Y26740D02*
X-180067D01*
X-178500Y28307D01*
G01X-186500Y19260D02*
X-181067D01*
X-178500Y16693D01*
G01D02*
Y13000D01*
G01X-177870Y36500D02*
X-183000D01*
X-185500Y39000D01*
Y54000D01*
X-182693Y56807D01*
Y60500D01*
G01X-171000Y36750D02*
X-177620D01*
X-177870Y36500D01*
G01X-171000Y36750D02*
Y33000D01*
G01X-177870Y41500D02*
X-182500D01*
G01X-177870Y46500D02*
X-182500D01*
G01X-171000Y42250D02*
Y46000D01*
G01X-177870Y51500D02*
X-171500D01*
G01X-158130Y36500D02*
X-164250D01*
X-164500Y36750D01*
G01D02*
Y33000D01*
G01Y42250D02*
X-160250Y46500D01*
X-158130D01*
G01X-147000Y-56000D02*
X-140547D01*
X-140146Y-56402D01*
G01X-135500Y-8500D02*
X-140047D01*
X-140146Y-8402D01*
G01X-141500Y19260D02*
X-136567D01*
X-134000Y16693D01*
G01X-141500Y19260D02*
Y14000D01*
G01Y26740D02*
X-135567D01*
X-134000Y28307D01*
G01X-141500Y26740D02*
Y30784D01*
X-148000Y37284D01*
Y48500D01*
X-151000Y51500D01*
X-158130D01*
G01X-157000Y19260D02*
X-151567D01*
X-149000Y16693D01*
G01D02*
Y13000D01*
G01X-157000Y26740D02*
X-150567D01*
X-149000Y28307D01*
G01X-136870Y36500D02*
X-130250D01*
X-130000Y36250D01*
G01X-136870Y36500D02*
X-141721D01*
X-144500Y39279D01*
Y51932D01*
X-140693Y55739D01*
Y60000D01*
G01X-136870Y41500D02*
X-141500D01*
G01X-136870Y46500D02*
X-141500D01*
G01X-136870Y51500D02*
Y54130D01*
G01X-158130Y41500D02*
X-154000D01*
X-151500Y39000D01*
Y35009D01*
X-149000Y32509D01*
Y28307D01*
G01X-158130Y46500D02*
X-152000D01*
G01X-152307Y60000D02*
X-156000D01*
X-158000Y58000D01*
G01X-126500Y36000D02*
X-126750Y36250D01*
X-130000D01*
G01X-49012Y10760D02*
Y4738D01*
X-49250Y4500D01*
G01X-37988Y14500D02*
X-42000D01*
X-43750Y12750D01*
Y4500D01*
G01X-11000Y-98750D02*
Y-94000D01*
G01X56606Y-103500D02*
X46764D01*
G01X135370Y54500D02*
X140221D01*
X140721Y54000D01*
X145500D01*
X147500Y52000D01*
Y37784D01*
X151500Y33784D01*
Y29740D01*
G01X144000Y31307D02*
Y40500D01*
X140000Y44500D01*
X135370D01*
G01Y39500D02*
X128250D01*
X128000Y39750D01*
G01D02*
Y35000D01*
G01Y45250D02*
X132250Y49500D01*
X135370D01*
G01D02*
X142000D01*
G01X140693Y62000D02*
X136500D01*
G01X156630Y39500D02*
X164250D01*
X164500Y39750D01*
G01D02*
Y35500D01*
G01X151500Y29740D02*
X157433D01*
X159000Y31307D01*
G01X156630Y44500D02*
X151500D01*
G01X156630Y49500D02*
X151500D01*
G01X164500Y45250D02*
Y49000D01*
G01X156630Y54500D02*
X161500D01*
G01X152307Y62000D02*
X157000D01*
G01X179370Y39000D02*
X173250D01*
X172500Y39750D01*
G01D02*
Y35500D01*
G01X179370Y54000D02*
X188000D01*
X189500Y52500D01*
Y40500D01*
X194500Y35500D01*
Y29740D01*
G01X187000Y31807D02*
Y39138D01*
X182138Y44000D01*
X179370D01*
G01X179500Y30740D02*
X185933D01*
X187000Y31807D01*
G01X172500Y45250D02*
X176250Y49000D01*
X179370D01*
G01D02*
X185000D01*
G01X183193Y61500D02*
X178000D01*
G01X200630Y39000D02*
X207250D01*
X207500Y39250D01*
G01D02*
Y35500D01*
X209000Y34000D01*
G01X200630Y44000D02*
X195000D01*
G01X194500Y29740D02*
X200433D01*
X202500Y31807D01*
G01X200630Y49000D02*
X195000D01*
G01X207500Y44750D02*
Y48000D01*
G01X200630Y54000D02*
X206000D01*
G01X221370Y39500D02*
X214250D01*
X214000Y39750D01*
G01D02*
Y35500D01*
G01Y45250D02*
X218250Y49500D01*
X221370D01*
G01X194807Y61500D02*
X199000D01*
G01X242630Y39500D02*
X249750D01*
X250000Y39250D01*
G01X242630Y44500D02*
X237500D01*
G01X230000Y52500D02*
X228000Y54500D01*
X221370D01*
G01X242630Y49500D02*
X237000D01*
G01X233000Y32807D02*
Y41500D01*
X230000Y44500D01*
X221370D01*
G01X242630Y54500D02*
X247500D01*
G01X221370Y49500D02*
X226500D01*
G01X237307Y62500D02*
X242500D01*
G01X225693D02*
X221000D01*
G01X250000Y39250D02*
X253500D01*
G01X250000Y44750D02*
Y48500D01*
G54D16*
X-244500Y19260D03*
Y26740D03*
X-229500Y19260D03*
Y26740D03*
X-202000Y19260D03*
Y26740D03*
X-186500Y19260D03*
Y26740D03*
X-157000Y19260D03*
Y26740D03*
X-141500Y19260D03*
Y26740D03*
X66000Y33760D03*
Y41240D03*
X59000Y33760D03*
Y41240D03*
X136500Y22260D03*
Y29740D03*
X151500Y22260D03*
Y29740D03*
X179500Y23260D03*
Y30740D03*
X194500Y22260D03*
Y29740D03*
X225000Y22760D03*
X240500Y23260D03*
X225000Y30240D03*
X240500Y30740D03*
G54D43*
X63744Y-70500D03*
G54D25*
X-240000Y75700D03*
Y83300D03*
X-213000D03*
Y75700D03*
X-94000Y94300D03*
Y86700D03*
X-81500Y105200D03*
Y112800D03*
X-57500Y83200D03*
Y90800D03*
X-73000Y105200D03*
Y112800D03*
X-6500Y43800D03*
Y36200D03*
X8000Y1200D03*
X17000D03*
X25500D03*
X8000Y8800D03*
X17000D03*
X25000Y27300D03*
Y19700D03*
X16500Y27300D03*
Y19700D03*
X25500Y8800D03*
X34000Y1200D03*
Y8800D03*
X207000Y71700D03*
Y79300D03*
X235000D03*
Y71700D03*
G54D34*
X-89000Y30000D03*
Y41000D03*
X-79000Y30000D03*
Y41000D03*
G54D53*
G01X-106685Y77240D02*
X-107669D01*
X-112000Y81571D01*
Y85000D01*
G01D02*
X-122500D01*
X-130750Y93250D01*
G01X-66000Y105750D02*
X-61750D01*
X-60500Y107000D01*
G54D17*
X-260000Y27000D03*
Y52000D03*
Y42500D03*
Y33000D03*
X-130000Y51500D03*
X-70000Y52000D03*
X-27000Y42500D03*
X17000Y43000D03*
X9000Y94000D03*
Y101000D03*
X41500Y27500D03*
X92000Y-109500D03*
X132213Y63713D03*
X246000Y105500D03*
X260000Y28000D03*
Y52000D03*
Y42000D03*
Y64500D03*
G54D26*
X-236307Y60500D03*
X-224693D03*
X-194307D03*
X-182693D03*
X-152307Y60000D03*
X-140693D03*
X140693Y62000D03*
X152307D03*
X183193Y61500D03*
X194807D03*
X225693Y62500D03*
X237307D03*
G54D44*
X48500Y0D03*
X60500D03*
G54D35*
X-76000Y69402D03*
G54D54*
G01X-88000Y-12008D02*
X-87992Y-12000D01*
G01X-88000Y-17500D02*
Y-12008D01*
G01X48500Y0D02*
Y-14000D01*
G01X80300Y0D02*
Y-6500D01*
G01X72700Y0D02*
X60500D01*
G01X136500Y22260D02*
X141433D01*
X144000Y19693D01*
G01X136500Y29740D02*
X142433D01*
X144000Y31307D01*
G01X147000Y-58000D02*
X153756D01*
X153854Y-57902D01*
G01X147500Y-8000D02*
X153953D01*
X154354Y-8402D01*
G01X144000Y19693D02*
Y15500D01*
G01X151500Y22260D02*
X156433D01*
X159000Y19693D01*
G01D02*
Y15500D01*
G01X179500Y23260D02*
X183933D01*
X187000Y20193D01*
G01D02*
Y16000D01*
G01X195500Y-57500D02*
X201256D01*
X201354Y-57402D01*
G01X195000Y-4500D02*
X198402Y-7902D01*
X201354D01*
G01X194500Y22260D02*
X200433D01*
X202500Y20193D01*
G01D02*
Y15500D01*
G01X240500Y-57500D02*
X246756D01*
X246854Y-57402D01*
G01X248000Y20193D02*
Y1556D01*
X246854Y410D01*
Y-7902D01*
G01X225000Y22760D02*
X231433D01*
X233000Y21193D01*
G01D02*
Y16500D01*
G01X240500Y23260D02*
X244933D01*
X248000Y20193D01*
G01Y31807D02*
X241567D01*
X240500Y30740D01*
G01X225000Y30240D02*
X230433D01*
X233000Y32807D01*
G01X248000Y31807D02*
X252693D01*
G54D36*
X-85055Y94598D03*
X-76000D03*
X-66945D03*
G54D27*
X-220750Y69000D03*
X-232250D03*
X-226750D03*
X-215250D03*
X-96250Y-100000D03*
X-90750D03*
X-59250Y4500D03*
X-64750D03*
X-56750Y49000D03*
X-62250D03*
X-62750Y55000D03*
X-57250D03*
Y61000D03*
X-62750D03*
X-43750Y4500D03*
X-49250D03*
X-44750Y24500D03*
X-39250D03*
X-48250Y56000D03*
X-42750D03*
Y62000D03*
X-48250D03*
X-42750Y68000D03*
X-48250D03*
X27250Y55000D03*
X21750D03*
X14750Y88500D03*
X20250D03*
X53250Y48500D03*
X47750D03*
X82750Y-109000D03*
X77250D03*
X76750Y48500D03*
X71250D03*
X59750D03*
X65250D03*
X153750Y83000D03*
X159250D03*
X191750Y72000D03*
X186250D03*
Y78500D03*
X191750D03*
X206750Y65000D03*
X212250D03*
G54D18*
X-247500Y42250D03*
Y36750D03*
X-248500Y81750D03*
Y76250D03*
X-218500Y99250D03*
Y93750D03*
X-242000D03*
Y99250D03*
X-206000Y42250D03*
Y36750D03*
X-212500Y42250D03*
Y36750D03*
X-191500Y79250D03*
X-199500Y93250D03*
Y98750D03*
X-191500Y84750D03*
X-164500Y42250D03*
Y36750D03*
X-171000Y42250D03*
Y36750D03*
X-175500Y79250D03*
X-185500D03*
X-169500D03*
X-175500Y98750D03*
Y93250D03*
Y84750D03*
X-185500D03*
X-169500D03*
X-143000Y75250D03*
Y69750D03*
X-136500D03*
Y75250D03*
X-158000Y93250D03*
Y98750D03*
X-108500Y22250D03*
Y16750D03*
X-115500Y22250D03*
Y16750D03*
X-124000Y51250D03*
Y45750D03*
X-130000Y41750D03*
Y36250D03*
X-121500Y28750D03*
Y34250D03*
X-108500D03*
Y28750D03*
X-111500Y63250D03*
Y57750D03*
X-130000D03*
Y63250D03*
X-117500Y57750D03*
Y63250D03*
X-124000Y57750D03*
Y63250D03*
X-134000Y98750D03*
Y93250D03*
X-113000Y98750D03*
Y93250D03*
X-119000D03*
Y98750D03*
X-102500Y34250D03*
Y28750D03*
X-99500Y76750D03*
Y71250D03*
X-93500D03*
Y76750D03*
X-99500Y63750D03*
Y58250D03*
X-95500Y105250D03*
X-89000Y105750D03*
X-95500Y110750D03*
X-89000Y111250D03*
X-56500Y18250D03*
Y12750D03*
X-62500Y18250D03*
Y12750D03*
X-68500D03*
Y18250D03*
X-71000Y37250D03*
Y31750D03*
X-66000Y105750D03*
Y111250D03*
X-28000Y101250D03*
Y106750D03*
X-11000Y-98750D03*
Y-104250D03*
X-14000Y42750D03*
Y37250D03*
X-20500D03*
Y42750D03*
X-22000Y101250D03*
Y106750D03*
X9000Y21250D03*
Y26750D03*
Y43250D03*
Y37750D03*
X2500Y43250D03*
Y37750D03*
X7500Y78250D03*
Y83750D03*
X33500Y21750D03*
Y27250D03*
X78500Y59250D03*
Y64750D03*
X60000Y98250D03*
Y92750D03*
X70000Y98250D03*
Y92750D03*
X93500Y-30250D03*
Y-35750D03*
X107500Y45250D03*
Y39750D03*
Y55250D03*
X108000Y76250D03*
Y70750D03*
X107500Y60750D03*
X115500Y28250D03*
X128000Y45250D03*
Y39750D03*
X121500Y45250D03*
Y39750D03*
X115500Y45250D03*
Y39750D03*
Y33750D03*
X116000Y70750D03*
Y76250D03*
X128000D03*
Y70750D03*
X122000D03*
Y76250D03*
X134000Y70750D03*
Y76250D03*
X164500Y45250D03*
Y39750D03*
X140000Y70750D03*
Y76250D03*
X172500Y45250D03*
Y39750D03*
X165500Y77250D03*
Y71750D03*
X177500Y91750D03*
Y97250D03*
X214000Y45250D03*
Y39750D03*
X207500Y44750D03*
Y39250D03*
X200500Y97250D03*
Y91750D03*
X208500D03*
Y97250D03*
X243000Y71750D03*
Y77250D03*
X231500Y97250D03*
Y91750D03*
X239500D03*
Y97250D03*
X250000Y44750D03*
Y39250D03*
Y82750D03*
Y77250D03*
X262500Y97250D03*
Y91750D03*
G54D45*
X55000Y59300D03*
Y81700D03*
X70000Y59300D03*
X65000D03*
X60000D03*
Y81700D03*
X65000D03*
X70000D03*
G54D55*
G01X-295276Y-118110D02*
Y118110D01*
X295276D01*
Y-118110D01*
X-295276D01*
G54D37*
X-54405Y-108500D03*
X-42594D03*
G54D28*
X-109500Y-110000D03*
Y-100000D03*
X101000Y-110000D03*
Y-100000D03*
G54D46*
X58500Y-40342D03*
Y-20657D03*
G54D19*
X-260153Y37500D03*
X-256847D03*
X-260153Y47000D03*
X-256847D03*
X-260153Y57000D03*
X-256847D03*
X-95154Y-105500D03*
X-91847D03*
X82154Y-103500D03*
X78847D03*
X261154Y37000D03*
X257846D03*
X261154Y46500D03*
X257846D03*
X260654Y56500D03*
X257346D03*
G54D38*
X-27343Y10500D03*
X-7658D03*
G54D47*
X80300Y0D03*
X72700D03*
G54D29*
X-109500Y-26358D03*
X-125000D03*
X-109500Y-8642D03*
X-125000D03*
X104000Y-25858D03*
Y-8142D03*
X119500Y-25858D03*
Y-8142D03*
G54D39*
X-27827Y56268D03*
Y89732D03*
X-6173Y56268D03*
X-8142D03*
X-10110D03*
X-12079D03*
X-14047D03*
X-16016D03*
X-17984D03*
X-19953D03*
X-21921D03*
X-23890D03*
X-25858D03*
Y89732D03*
X-23890D03*
X-21921D03*
X-19953D03*
X-17984D03*
X-16016D03*
X-14047D03*
X-12079D03*
X-10110D03*
X-8142D03*
X-6173D03*
G54D48*
X97000Y54654D03*
Y51347D03*
X83000Y54654D03*
Y51347D03*
X88000Y54654D03*
Y51347D03*
X92500Y54654D03*
Y51347D03*
G54D49*
X122240Y53685D03*
X118500D03*
X114760D03*
Y64315D03*
X122240D03*
M02*
