G04 ================== begin FILE IDENTIFICATION RECORD ==================*
G04 Layout Name:  D:/WorkPrj/LUGGAGE/R2/AWheel/BRD/AWheel.brd*
G04 Film Name:    TOP_PASTEMASK*
G04 File Format:  Gerber RS274X*
G04 File Origin:  Cadence Allegro 16.6-2015-S088*
G04 Origin Date:  Fri Apr 27 16:37:20 2018*
G04 *
G04 Layer:  BOARD GEOMETRY/OUTLINE*
G04 Layer:  PACKAGE GEOMETRY/PASTEMASK_TOP*
G04 Layer:  PIN/PASTEMASK_TOP*
G04 *
G04 Offset:    (0.000 0.000)*
G04 Mirror:    No*
G04 Mode:      Positive*
G04 Rotation:  0*
G04 FullContactRelief:  No*
G04 UndefLineWidth:     5.000*
G04 ================== end FILE IDENTIFICATION RECORD ====================*
%FSLAX25Y25*MOIN*%
%IR0*IPPOS*OFA0.00000B0.00000*MIA0B0*SFA1.00000B1.00000*%
%ADD23R,.119X.099*%
%ADD15R,.059055X.110236*%
%ADD27R,.23622X.07874*%
%ADD41R,.009843X.01378*%
%ADD13R,.01378X.009843*%
%ADD29R,.129921X.062992*%
%ADD38O,.026X.07*%
%ADD28R,.062X.05*%
%ADD12R,.032X.035*%
%ADD21R,.035X.032*%
%ADD19R,.055X.045*%
%ADD40R,.045X.055*%
%ADD35R,.048X.071*%
%ADD37R,.06X.06*%
%ADD17R,.061024X.023622*%
%ADD18R,.043307X.023622*%
%ADD33R,.047244X.011811*%
%ADD32R,.011811X.047244*%
%ADD36R,.401575X.362205*%
%ADD16R,.049213X.048031*%
%ADD20R,.048031X.049213*%
%ADD11C,.03937*%
%ADD31R,.11811X.295276*%
%ADD24R,.03937X.021654*%
%ADD42R,.021654X.03937*%
%ADD39C,.070866*%
%ADD25R,.035433X.031496*%
%ADD34R,.07874X.051181*%
%ADD22C,.062992*%
%ADD14R,.248031X.251969*%
%ADD10R,.047244X.044882*%
%ADD26R,.059059X.059059*%
%ADD30R,.047244X.066929*%
%ADD43C,.005*%
G75*
%LPD*%
G75*
G36*
G01X-60311Y-116374D02*
Y-100626D01*
X-36689D01*
Y-116374D01*
X-60311D01*
G37*
G54D10*
X-244500Y19260D03*
Y26740D03*
X-229500Y19260D03*
Y26740D03*
X-202000Y19260D03*
Y26740D03*
X-186500Y19260D03*
Y26740D03*
X-157000Y19260D03*
Y26740D03*
X-141500Y19260D03*
Y26740D03*
X66000Y33760D03*
Y41240D03*
X59000Y33760D03*
Y41240D03*
X136500Y22260D03*
Y29740D03*
X151500Y22260D03*
Y29740D03*
X179500Y23260D03*
Y30740D03*
X194500Y22260D03*
Y29740D03*
X225000Y22760D03*
X240500Y23260D03*
X225000Y30240D03*
X240500Y30740D03*
G54D11*
X-260000Y27000D03*
Y52000D03*
Y42500D03*
Y33000D03*
X-130000Y51500D03*
X-70000Y52000D03*
X-27000Y42500D03*
X17000Y43000D03*
X9000Y94000D03*
Y101000D03*
X41500Y27500D03*
X92000Y-109500D03*
X132213Y63713D03*
X246000Y105500D03*
X260000Y28000D03*
Y52000D03*
Y42000D03*
Y64500D03*
G54D20*
X-236307Y60500D03*
X-224693D03*
X-194307D03*
X-182693D03*
X-152307Y60000D03*
X-140693D03*
X140693Y62000D03*
X152307D03*
X183193Y61500D03*
X194807D03*
X225693Y62500D03*
X237307D03*
G54D30*
X-85055Y94598D03*
X-76000D03*
X-66945D03*
G54D21*
X-220750Y69000D03*
X-232250D03*
X-226750D03*
X-215250D03*
X-96250Y-100000D03*
X-90750D03*
X-59250Y4500D03*
X-64750D03*
X-56750Y49000D03*
X-62250D03*
X-62750Y55000D03*
X-57250D03*
Y61000D03*
X-62750D03*
X-43750Y4500D03*
X-49250D03*
X-44750Y24500D03*
X-39250D03*
X-48250Y56000D03*
X-42750D03*
Y62000D03*
X-48250D03*
X-42750Y68000D03*
X-48250D03*
X27250Y55000D03*
X21750D03*
X14750Y88500D03*
X20250D03*
X53250Y48500D03*
X47750D03*
X82750Y-109000D03*
X77250D03*
X76750Y48500D03*
X71250D03*
X59750D03*
X65250D03*
X153750Y83000D03*
X159250D03*
X191750Y72000D03*
X186250D03*
Y78500D03*
X191750D03*
X206750Y65000D03*
X212250D03*
G54D12*
X-247500Y42250D03*
Y36750D03*
X-248500Y81750D03*
Y76250D03*
X-218500Y99250D03*
Y93750D03*
X-242000D03*
Y99250D03*
X-206000Y42250D03*
Y36750D03*
X-212500Y42250D03*
Y36750D03*
X-191500Y79250D03*
X-199500Y93250D03*
Y98750D03*
X-191500Y84750D03*
X-164500Y42250D03*
Y36750D03*
X-171000Y42250D03*
Y36750D03*
X-175500Y79250D03*
X-185500D03*
X-169500D03*
X-175500Y98750D03*
Y93250D03*
Y84750D03*
X-185500D03*
X-169500D03*
X-143000Y75250D03*
Y69750D03*
X-136500D03*
Y75250D03*
X-158000Y93250D03*
Y98750D03*
X-108500Y22250D03*
Y16750D03*
X-115500Y22250D03*
Y16750D03*
X-124000Y51250D03*
Y45750D03*
X-130000Y41750D03*
Y36250D03*
X-121500Y28750D03*
Y34250D03*
X-108500D03*
Y28750D03*
X-111500Y63250D03*
Y57750D03*
X-130000D03*
Y63250D03*
X-117500Y57750D03*
Y63250D03*
X-124000Y57750D03*
Y63250D03*
X-134000Y98750D03*
Y93250D03*
X-113000Y98750D03*
Y93250D03*
X-119000D03*
Y98750D03*
X-102500Y34250D03*
Y28750D03*
X-99500Y76750D03*
Y71250D03*
X-93500D03*
Y76750D03*
X-99500Y63750D03*
Y58250D03*
X-95500Y105250D03*
X-89000Y105750D03*
X-95500Y110750D03*
X-89000Y111250D03*
X-56500Y18250D03*
Y12750D03*
X-62500Y18250D03*
Y12750D03*
X-68500D03*
Y18250D03*
X-71000Y37250D03*
Y31750D03*
X-66000Y105750D03*
Y111250D03*
X-28000Y101250D03*
Y106750D03*
X-11000Y-98750D03*
Y-104250D03*
X-14000Y42750D03*
Y37250D03*
X-20500D03*
Y42750D03*
X-22000Y101250D03*
Y106750D03*
X9000Y21250D03*
Y26750D03*
Y43250D03*
Y37750D03*
X2500Y43250D03*
Y37750D03*
X7500Y78250D03*
Y83750D03*
X33500Y21750D03*
Y27250D03*
X78500Y59250D03*
Y64750D03*
X60000Y98250D03*
Y92750D03*
X70000Y98250D03*
Y92750D03*
X93500Y-30250D03*
Y-35750D03*
X107500Y45250D03*
Y39750D03*
Y55250D03*
X108000Y76250D03*
Y70750D03*
X107500Y60750D03*
X115500Y28250D03*
X128000Y45250D03*
Y39750D03*
X121500Y45250D03*
Y39750D03*
X115500Y45250D03*
Y39750D03*
Y33750D03*
X116000Y70750D03*
Y76250D03*
X128000D03*
Y70750D03*
X122000D03*
Y76250D03*
X134000Y70750D03*
Y76250D03*
X164500Y45250D03*
Y39750D03*
X140000Y70750D03*
Y76250D03*
X172500Y45250D03*
Y39750D03*
X165500Y77250D03*
Y71750D03*
X177500Y91750D03*
Y97250D03*
X214000Y45250D03*
Y39750D03*
X207500Y44750D03*
Y39250D03*
X200500Y97250D03*
Y91750D03*
X208500D03*
Y97250D03*
X243000Y71750D03*
Y77250D03*
X231500Y97250D03*
Y91750D03*
X239500D03*
Y97250D03*
X250000Y44750D03*
Y39250D03*
Y82750D03*
Y77250D03*
X262500Y97250D03*
Y91750D03*
G54D22*
X-109500Y-110000D03*
Y-100000D03*
X101000Y-110000D03*
Y-100000D03*
G54D31*
X-27343Y10500D03*
X-7658D03*
G54D40*
X80300Y0D03*
X72700D03*
G54D13*
X-260153Y37500D03*
X-256847D03*
X-260153Y47000D03*
X-256847D03*
X-260153Y57000D03*
X-256847D03*
X-95154Y-105500D03*
X-91847D03*
X82154Y-103500D03*
X78847D03*
X261154Y37000D03*
X257846D03*
X261154Y46500D03*
X257846D03*
X260654Y56500D03*
X257346D03*
G54D14*
X-231000Y-81598D03*
X-231500Y-34098D03*
X-189500Y-81598D03*
Y-33598D03*
X-149500Y-81598D03*
Y-33598D03*
X144500Y-83098D03*
X145000Y-33598D03*
X192000Y-82598D03*
Y-33098D03*
X237500Y-82598D03*
Y-33098D03*
G54D32*
X-27827Y56268D03*
Y89732D03*
X-6173Y56268D03*
X-8142D03*
X-10110D03*
X-12079D03*
X-14047D03*
X-16016D03*
X-17984D03*
X-19953D03*
X-21921D03*
X-23890D03*
X-25858D03*
Y89732D03*
X-23890D03*
X-21921D03*
X-19953D03*
X-17984D03*
X-16016D03*
X-14047D03*
X-12079D03*
X-10110D03*
X-8142D03*
X-6173D03*
G54D41*
X97000Y54654D03*
Y51347D03*
X83000Y54654D03*
Y51347D03*
X88000Y54654D03*
Y51347D03*
X92500Y54654D03*
Y51347D03*
G54D23*
X-109500Y-26358D03*
X-125000D03*
X-109500Y-8642D03*
X-125000D03*
X104000Y-25858D03*
Y-8142D03*
X119500Y-25858D03*
Y-8142D03*
G54D42*
X122240Y53685D03*
X118500D03*
X114760D03*
Y64315D03*
X122240D03*
G54D24*
X-117315Y44260D03*
Y51740D03*
X-106685D03*
Y48000D03*
Y44260D03*
G54D33*
X-33732Y62173D03*
Y64142D03*
Y66110D03*
Y68079D03*
Y70047D03*
Y72016D03*
Y73984D03*
Y75953D03*
Y77921D03*
Y79890D03*
Y81858D03*
Y83827D03*
X-268Y81858D03*
Y79890D03*
Y77921D03*
Y75953D03*
Y73984D03*
Y72016D03*
Y70047D03*
Y68079D03*
Y66110D03*
Y64142D03*
Y62173D03*
Y83827D03*
G54D15*
X-240354Y-56402D03*
X-221646D03*
X-240854Y-8902D03*
X-222146D03*
X-198854Y-56402D03*
Y-8402D03*
X-180146Y-56402D03*
Y-8402D03*
X-158854Y-56402D03*
X-140146D03*
X-158854Y-8402D03*
X-140146D03*
X135146Y-57902D03*
X135646Y-8402D03*
X153854Y-57902D03*
X154354Y-8402D03*
X182646Y-57402D03*
Y-7902D03*
X201354Y-57402D03*
Y-7902D03*
X228146Y-57402D03*
X246854D03*
X228146Y-7902D03*
X246854D03*
G54D43*
G01X-295276Y-118110D02*
Y118110D01*
X295276D01*
Y-118110D01*
X-295276D01*
G54D34*
X16500Y-80500D03*
Y-60500D03*
G54D25*
X-130437Y73500D03*
X-122563Y77240D03*
Y69760D03*
X171063Y75000D03*
X178937Y78740D03*
Y71260D03*
G54D16*
X-237000Y28807D03*
Y17193D03*
X-222000Y28807D03*
Y17193D03*
X-194500Y28807D03*
Y17193D03*
X-178500Y28307D03*
Y16693D03*
X-149000Y28307D03*
Y16693D03*
X-134000Y28307D03*
Y16693D03*
X144000Y19693D03*
X159000D03*
X144000Y31307D03*
X159000D03*
X187000Y20193D03*
Y31807D03*
X202500Y20193D03*
Y31807D03*
X233000Y21193D03*
X248000Y20193D03*
X233000Y32807D03*
X248000Y31807D03*
G54D26*
X-87992Y-12000D03*
X-70000D03*
X84500Y-39492D03*
Y-21500D03*
G54D17*
X-240630Y37000D03*
Y42000D03*
Y47000D03*
Y52000D03*
X-219370D03*
Y47000D03*
Y42000D03*
Y37000D03*
X-199130Y36500D03*
Y41500D03*
Y46500D03*
Y51500D03*
X-177870D03*
Y46500D03*
Y41500D03*
Y36500D03*
X-158130D03*
Y41500D03*
Y46500D03*
Y51500D03*
X-136870D03*
Y46500D03*
Y41500D03*
Y36500D03*
X135370Y39500D03*
Y44500D03*
Y49500D03*
Y54500D03*
X156630D03*
Y49500D03*
Y44500D03*
Y39500D03*
X179370Y39000D03*
Y44000D03*
Y49000D03*
Y54000D03*
X221370Y39500D03*
Y44500D03*
Y49500D03*
Y54500D03*
X200630Y54000D03*
Y49000D03*
Y44000D03*
Y39000D03*
X242630Y54500D03*
Y49500D03*
Y44500D03*
Y39500D03*
G54D35*
X17579Y65126D03*
Y80874D03*
X27028Y65126D03*
Y80874D03*
G54D36*
X63744Y-70500D03*
G54D18*
X-220988Y75760D03*
X-232012D03*
Y79500D03*
X-235512Y93760D03*
Y97500D03*
Y101240D03*
X-224488D03*
Y97500D03*
Y93760D03*
X-220988Y83240D03*
X-232012D03*
X-193012Y93260D03*
Y97000D03*
Y100740D03*
X-181988D03*
Y97000D03*
Y93260D03*
X-151512D03*
Y97000D03*
Y100740D03*
X-140488D03*
Y97000D03*
Y93260D03*
X-117315Y69760D03*
Y73500D03*
Y77240D03*
X-106685D03*
Y69760D03*
X-49012Y10760D03*
Y14500D03*
Y18240D03*
X-37988D03*
Y14500D03*
Y10760D03*
X159815Y77240D03*
Y69760D03*
X149185D03*
Y73500D03*
Y77240D03*
X183988Y89760D03*
Y93500D03*
Y97240D03*
X214988Y71760D03*
Y79240D03*
X195012Y97240D03*
Y93500D03*
Y89760D03*
X214488D03*
Y93500D03*
Y97240D03*
X226012Y79240D03*
Y75500D03*
Y71760D03*
X245488Y89760D03*
Y93500D03*
Y97240D03*
X225512D03*
Y93500D03*
Y89760D03*
X256512Y97240D03*
Y93500D03*
Y89760D03*
G54D27*
X-87000Y2035D03*
Y18965D03*
G54D37*
X48500Y0D03*
X60500D03*
G54D19*
X-240000Y75700D03*
Y83300D03*
X-213000D03*
Y75700D03*
X-94000Y94300D03*
Y86700D03*
X-81500Y105200D03*
Y112800D03*
X-57500Y83200D03*
Y90800D03*
X-73000Y105200D03*
Y112800D03*
X-6500Y43800D03*
Y36200D03*
X8000Y1200D03*
X17000D03*
X25500D03*
X8000Y8800D03*
X17000D03*
X25000Y27300D03*
Y19700D03*
X16500Y27300D03*
Y19700D03*
X25500Y8800D03*
X34000Y1200D03*
Y8800D03*
X207000Y71700D03*
Y79300D03*
X235000D03*
Y71700D03*
G54D28*
X-89000Y30000D03*
Y41000D03*
X-79000Y30000D03*
Y41000D03*
G54D38*
X55000Y59300D03*
Y81700D03*
X70000Y59300D03*
X65000D03*
X60000D03*
Y81700D03*
X65000D03*
X70000D03*
G54D29*
X-76000Y69402D03*
G54D39*
X58500Y-40342D03*
Y-20657D03*
M02*
